<ttFont>
<head>
    <!-- Most of this table will be recalculated by the compiler -->
    <tableVersion value="1.0"/>
    <fontRevision value="1.29999"/>
    <checkSumAdjustment value="0xbc69a6a9"/>
    <magicNumber value="0x5f0f3cf5"/>
    <flags value="00000000 00001001"/>
    <unitsPerEm value="1000"/>
    <created value="Mon Oct 19 13:11:52 2015"/>
    <modified value="Mon Aug  1 23:07:37 2016"/>
    <xMin value="-4"/>
    <yMin value="-326"/>
    <xMax value="743"/>
    <yMax value="1276"/>
    <macStyle value="00000000 00000000"/>
    <lowestRecPPEM value="9"/>
    <fontDirectionHint value="2"/>
    <indexToLocFormat value="0"/>
    <glyphDataFormat value="0"/>
  </head>
    <TTGlyph name=".notdef" xMin="5" yMin="-200" xMax="545" yMax="800">
      <contour>
        <pt x="5" y="800" on="1"/>
        <pt x="545" y="800" on="1"/>
        <pt x="545" y="-200" on="1"/>
        <pt x="5" y="-200" on="1"/>
      </contour>
      <contour>
        <pt x="275" y="360" on="1"/>
        <pt x="468" y="750" on="1"/>
        <pt x="82" y="750" on="1"/>
      </contour>
      <contour>
        <pt x="305" y="300" on="1"/>
        <pt x="491" y="-76" on="1"/>
        <pt x="491" y="676" on="1"/>
      </contour>
      <contour>
        <pt x="245" y="300" on="1"/>
        <pt x="59" y="676" on="1"/>
        <pt x="59" y="-76" on="1"/>
      </contour>
      <contour>
        <pt x="82" y="-150" on="1"/>
        <pt x="468" y="-150" on="1"/>
        <pt x="275" y="240" on="1"/>
      </contour>
    </TTGlyph>
    <TTGlyph name="A" xMin="37" yMin="-4" xMax="588" yMax="689">
      <contour>
        <pt x="460" y="-4" on="1"/>
        <pt x="449" y="45" on="0"/>
        <pt x="425" y="142" on="0"/>
        <pt x="413" y="192" on="1"/>
        <pt x="209" y="192" on="1"/>
        <pt x="197" y="144" on="0"/>
        <pt x="174" y="48" on="0"/>
        <pt x="163" y="0" on="1"/>
        <pt x="37" y="0" on="1"/>
        <pt x="82" y="173" on="0"/>
        <pt x="173" y="515" on="0"/>
        <pt x="225" y="689" on="1"/>
        <pt x="401" y="689" on="1"/>
        <pt x="452" y="516" on="0"/>
        <pt x="543" y="177" on="0"/>
        <pt x="588" y="4" on="1"/>
      </contour>
      <contour>
        <pt x="307" y="585" on="1"/>
        <pt x="287" y="510" on="0"/>
        <pt x="250" y="360" on="0"/>
        <pt x="231" y="284" on="1"/>
        <pt x="391" y="284" on="1"/>
        <pt x="373" y="360" on="0"/>
        <pt x="336" y="510" on="0"/>
        <pt x="316" y="585" on="1"/>
      </contour>
    </TTGlyph>
    <TTGlyph name="AE" xMin="4" yMin="0" xMax="585" yMax="688">
      <contour>
        <pt x="288" y="583" on="1"/>
        <pt x="268" y="507" on="0"/>
        <pt x="224" y="354" on="0"/>
        <pt x="202" y="276" on="1"/>
        <pt x="294" y="276" on="1"/>
        <pt x="294" y="583" on="1"/>
      </contour>
      <contour>
        <pt x="294" y="183" on="1"/>
        <pt x="175" y="183" on="1"/>
        <pt x="162" y="137" on="0"/>
        <pt x="137" y="46" on="0"/>
        <pt x="125" y="0" on="1"/>
        <pt x="4" y="0" on="1"/>
        <pt x="53" y="172" on="0"/>
        <pt x="161" y="517" on="0"/>
        <pt x="213" y="688" on="1"/>
        <pt x="579" y="688" on="1"/>
        <pt x="579" y="583" on="1"/>
        <pt x="399" y="583" on="1"/>
        <pt x="399" y="393" on="1"/>
        <pt x="546" y="393" on="1"/>
        <pt x="546" y="300" on="1"/>
        <pt x="399" y="300" on="1"/>
        <pt x="399" y="106" on="1"/>
        <pt x="585" y="106" on="1"/>
        <pt x="577" y="0" on="1"/>
        <pt x="294" y="0" on="1"/>
      </contour>
    </TTGlyph>
    <TTGlyph name="AEacute" xMin="4" yMin="0" xMax="585" yMax="1007">
      <component glyphName="acute.cap" x="65" y="136" flags="0x204"/>
      <component glyphName="AE" x="0" y="0" flags="0x4"/>
    </TTGlyph>
    <TTGlyph name="Aacute" xMin="37" yMin="-4" xMax="588" yMax="1007">
      <component glyphName="A" x="0" y="0" flags="0x204"/>
      <component glyphName="acute.cap" x="12" y="136" flags="0x4"/>
    </TTGlyph>
    <TTGlyph name="Abreve" xMin="37" yMin="-4" xMax="588" yMax="974">
      <component glyphName="A" x="0" y="0" flags="0x204"/>
      <component glyphName="breve.cap" x="3" y="136" flags="0x4"/>
    </TTGlyph>
    <TTGlyph name="Acircumflex" xMin="37" yMin="-4" xMax="588" yMax="986">
      <component glyphName="A" x="0" y="0" flags="0x204"/>
      <component glyphName="circumflex.cap" x="-1" y="136" flags="0x4"/>
    </TTGlyph>
    <TTGlyph name="Adieresis" xMin="37" yMin="-4" xMax="588" yMax="927">
      <component glyphName="A" x="0" y="0" flags="0x204"/>
      <component glyphName="dieresis.cap" x="-2" y="136" flags="0x4"/>
    </TTGlyph>
    <TTGlyph name="Agrave" xMin="37" yMin="-4" xMax="588" yMax="1006">
      <component glyphName="A" x="0" y="0" flags="0x204"/>
      <component glyphName="grave.cap" x="-32" y="136" flags="0x4"/>
    </TTGlyph>
    <TTGlyph name="Amacron" xMin="37" yMin="-4" xMax="588" yMax="903">
      <component glyphName="A" x="0" y="0" flags="0x204"/>
      <component glyphName="macron.cap" x="-2" y="136" flags="0x4"/>
    </TTGlyph>
    <TTGlyph name="Aogonek" xMin="37" yMin="-244" xMax="588" yMax="689">
      <contour>
        <pt x="564" y="-244" on="1"/>
        <pt x="502" y="-241" on="0"/>
        <pt x="416" y="-222" on="0"/>
        <pt x="362" y="-192" on="0"/>
        <pt x="337" y="-154" on="0"/>
        <pt x="337" y="-132" on="1"/>
        <pt x="337" y="-100" on="0"/>
        <pt x="394" y="-34" on="0"/>
        <pt x="458" y="3" on="1"/>
        <pt x="447" y="51" on="0"/>
        <pt x="424" y="144" on="0"/>
        <pt x="413" y="192" on="1"/>
        <pt x="209" y="192" on="1"/>
        <pt x="197" y="144" on="0"/>
        <pt x="174" y="48" on="0"/>
        <pt x="163" y="0" on="1"/>
        <pt x="37" y="0" on="1"/>
        <pt x="82" y="173" on="0"/>
        <pt x="173" y="515" on="0"/>
        <pt x="225" y="689" on="1"/>
        <pt x="401" y="689" on="1"/>
        <pt x="452" y="516" on="0"/>
        <pt x="543" y="177" on="0"/>
        <pt x="588" y="4" on="1"/>
        <pt x="510" y="-30" on="0"/>
        <pt x="453" y="-79" on="0"/>
        <pt x="453" y="-98" on="1"/>
        <pt x="453" y="-117" on="0"/>
        <pt x="508" y="-142" on="0"/>
        <pt x="575" y="-148" on="1"/>
      </contour>
      <contour>
        <pt x="307" y="585" on="1"/>
        <pt x="287" y="510" on="0"/>
        <pt x="250" y="360" on="0"/>
        <pt x="231" y="284" on="1"/>
        <pt x="391" y="284" on="1"/>
        <pt x="373" y="360" on="0"/>
        <pt x="336" y="510" on="0"/>
        <pt x="316" y="585" on="1"/>
      </contour>
    </TTGlyph>
    <TTGlyph name="Aring" xMin="37" yMin="-4" xMax="588" yMax="989">
      <component glyphName="A" x="0" y="0" flags="0x204"/>
      <component glyphName="ring.cap" x="-11" y="136" flags="0x4"/>
    </TTGlyph>
    <TTGlyph name="Aringacute" xMin="37" yMin="-4" xMax="588" yMax="1276">
      <contour>
        <pt x="460" y="-4" on="1"/>
        <pt x="449" y="45" on="0"/>
        <pt x="425" y="142" on="0"/>
        <pt x="413" y="192" on="1"/>
        <pt x="209" y="192" on="1"/>
        <pt x="197" y="144" on="0"/>
        <pt x="174" y="48" on="0"/>
        <pt x="163" y="0" on="1"/>
        <pt x="37" y="0" on="1"/>
        <pt x="82" y="173" on="0"/>
        <pt x="173" y="515" on="0"/>
        <pt x="225" y="689" on="1"/>
        <pt x="401" y="689" on="1"/>
        <pt x="452" y="516" on="0"/>
        <pt x="543" y="177" on="0"/>
        <pt x="588" y="4" on="1"/>
      </contour>
      <contour>
        <pt x="307" y="585" on="1"/>
        <pt x="287" y="510" on="0"/>
        <pt x="250" y="360" on="0"/>
        <pt x="231" y="284" on="1"/>
        <pt x="391" y="284" on="1"/>
        <pt x="373" y="360" on="0"/>
        <pt x="336" y="510" on="0"/>
        <pt x="316" y="585" on="1"/>
      </contour>
      <contour>
        <pt x="179" y="1079" on="1"/>
        <pt x="203" y="1095" on="0"/>
        <pt x="263" y="1142" on="0"/>
        <pt x="326" y="1196" on="0"/>
        <pt x="384" y="1251" on="0"/>
        <pt x="407" y="1276" on="1"/>
        <pt x="498" y="1183" on="1"/>
        <pt x="470" y="1161" on="0"/>
        <pt x="396" y="1115" on="0"/>
        <pt x="317" y="1072" on="0"/>
        <pt x="240" y="1037" on="0"/>
        <pt x="210" y="1025" on="1"/>
        <pt x="179" y="1079" on="1"/>
      </contour>
      <contour>
        <pt x="310" y="989" on="1"/>
        <pt x="343" y="989" on="0"/>
        <pt x="398" y="970" on="0"/>
        <pt x="437" y="937" on="0"/>
        <pt x="459" y="894" on="0"/>
        <pt x="459" y="870" on="1"/>
        <pt x="459" y="817" on="0"/>
        <pt x="378" y="748" on="0"/>
        <pt x="310" y="748" on="1"/>
        <pt x="277" y="748" on="0"/>
        <pt x="222" y="766" on="0"/>
        <pt x="183" y="798" on="0"/>
        <pt x="161" y="841" on="0"/>
        <pt x="161" y="866" on="1"/>
        <pt x="161" y="919" on="0"/>
        <pt x="241" y="989" on="0"/>
      </contour>
    </TTGlyph>
    <TTGlyph name="Atilde" xMin="37" yMin="-4" xMax="588" yMax="962">
      <component glyphName="A" x="0" y="0" flags="0x204"/>
      <component glyphName="tilde.cap" x="6" y="136" flags="0x4"/>
    </TTGlyph>
    <TTGlyph name="B" xMin="101" yMin="-9" xMax="565" yMax="698">
      <contour>
        <pt x="101" y="688" on="1"/>
        <pt x="144" y="693" on="0"/>
        <pt x="223" y="698" on="0"/>
        <pt x="258" y="698" on="1"/>
        <pt x="325" y="698" on="0"/>
        <pt x="430" y="679" on="0"/>
        <pt x="504" y="638" on="0"/>
        <pt x="543" y="573" on="0"/>
        <pt x="543" y="527" on="1"/>
        <pt x="543" y="468" on="0"/>
        <pt x="482" y="387" on="0"/>
        <pt x="431" y="364" on="1"/>
        <pt x="496" y="346" on="0"/>
        <pt x="565" y="268" on="0"/>
        <pt x="565" y="202" on="1"/>
        <pt x="565" y="146" on="0"/>
        <pt x="518" y="67" on="0"/>
        <pt x="432" y="15" on="0"/>
        <pt x="312" y="-9" on="0"/>
        <pt x="240" y="-9" on="1"/>
        <pt x="174" y="-9" on="0"/>
        <pt x="101" y="0" on="1"/>
      </contour>
      <contour>
        <pt x="226" y="388" on="1"/>
        <pt x="254" y="388" on="1"/>
        <pt x="301" y="388" on="0"/>
        <pt x="365" y="401" on="0"/>
        <pt x="404" y="427" on="0"/>
        <pt x="421" y="468" on="0"/>
        <pt x="421" y="496" on="1"/>
        <pt x="421" y="549" on="0"/>
        <pt x="349" y="596" on="0"/>
        <pt x="282" y="596" on="1"/>
        <pt x="256" y="596" on="0"/>
        <pt x="226" y="593" on="1"/>
      </contour>
      <contour>
        <pt x="226" y="95" on="1"/>
        <pt x="268" y="89" on="0"/>
        <pt x="302" y="89" on="1"/>
        <pt x="371" y="89" on="0"/>
        <pt x="441" y="141" on="0"/>
        <pt x="441" y="198" on="1"/>
        <pt x="441" y="258" on="0"/>
        <pt x="357" y="301" on="0"/>
        <pt x="276" y="301" on="1"/>
        <pt x="264" y="301" on="0"/>
        <pt x="240" y="301" on="0"/>
        <pt x="226" y="300" on="1"/>
      </contour>
    </TTGlyph>
    <TTGlyph name="C" xMin="75" yMin="-7" xMax="544" yMax="698">
      <contour>
        <pt x="537" y="577" on="1"/>
        <pt x="431" y="579" on="0"/>
        <pt x="301" y="551" on="0"/>
        <pt x="230" y="493" on="0"/>
        <pt x="206" y="407" on="0"/>
        <pt x="206" y="351" on="1"/>
        <pt x="206" y="288" on="0"/>
        <pt x="233" y="195" on="0"/>
        <pt x="299" y="133" on="0"/>
        <pt x="408" y="103" on="0"/>
        <pt x="491" y="103" on="1"/>
        <pt x="504" y="103" on="0"/>
        <pt x="530" y="103" on="0"/>
        <pt x="544" y="104" on="1"/>
        <pt x="534" y="-4" on="1"/>
        <pt x="492" y="-7" on="0"/>
        <pt x="454" y="-7" on="1"/>
        <pt x="344" y="-7" on="0"/>
        <pt x="199" y="46" on="0"/>
        <pt x="111" y="138" on="0"/>
        <pt x="75" y="262" on="0"/>
        <pt x="75" y="334" on="1"/>
        <pt x="75" y="406" on="0"/>
        <pt x="121" y="536" on="0"/>
        <pt x="228" y="635" on="0"/>
        <pt x="402" y="695" on="0"/>
        <pt x="530" y="698" on="1"/>
        <pt x="537" y="577" on="1"/>
      </contour>
    </TTGlyph>
    <TTGlyph name="Cacute" xMin="75" yMin="-7" xMax="544" yMax="1007">
      <component glyphName="C" x="0" y="0" flags="0x204"/>
      <component glyphName="acute.cap" x="53" y="136" flags="0x4"/>
    </TTGlyph>
    <TTGlyph name="Ccaron" xMin="75" yMin="-7" xMax="563" yMax="980">
      <component glyphName="C" x="0" y="0" flags="0x204"/>
      <component glyphName="caron.cap" x="45" y="136" flags="0x4"/>
    </TTGlyph>
    <TTGlyph name="Ccedilla" xMin="75" yMin="-251" xMax="544" yMax="698">
      <contour>
        <pt x="537" y="577" on="1"/>
        <pt x="431" y="579" on="0"/>
        <pt x="301" y="551" on="0"/>
        <pt x="230" y="493" on="0"/>
        <pt x="206" y="407" on="0"/>
        <pt x="206" y="351" on="1"/>
        <pt x="206" y="288" on="0"/>
        <pt x="233" y="195" on="0"/>
        <pt x="299" y="133" on="0"/>
        <pt x="408" y="103" on="0"/>
        <pt x="491" y="103" on="1"/>
        <pt x="504" y="103" on="0"/>
        <pt x="530" y="103" on="0"/>
        <pt x="544" y="104" on="1"/>
        <pt x="534" y="-4" on="1"/>
        <pt x="490" y="-7" on="0"/>
        <pt x="452" y="-7" on="1"/>
        <pt x="389" y="-7" on="0"/>
        <pt x="338" y="2" on="1"/>
        <pt x="403" y="-31" on="0"/>
        <pt x="456" y="-97" on="0"/>
        <pt x="456" y="-127" on="1"/>
        <pt x="456" y="-173" on="0"/>
        <pt x="344" y="-240" on="0"/>
        <pt x="232" y="-251" on="1"/>
        <pt x="224" y="-157" on="1"/>
        <pt x="290" y="-149" on="0"/>
        <pt x="346" y="-128" on="0"/>
        <pt x="346" y="-112" on="1"/>
        <pt x="346" y="-78" on="0"/>
        <pt x="248" y="-28" on="1"/>
        <pt x="269" y="20" on="1"/>
        <pt x="215" y="39" on="0"/>
        <pt x="140" y="102" on="0"/>
        <pt x="95" y="183" on="0"/>
        <pt x="75" y="280" on="0"/>
        <pt x="75" y="334" on="1"/>
        <pt x="75" y="406" on="0"/>
        <pt x="121" y="536" on="0"/>
        <pt x="228" y="635" on="0"/>
        <pt x="402" y="695" on="0"/>
        <pt x="530" y="698" on="1"/>
      </contour>
    </TTGlyph>
    <TTGlyph name="Cdotaccent" xMin="75" yMin="-7" xMax="544" yMax="927">
      <component glyphName="dotaccent.cap" x="43" y="136" flags="0x204"/>
      <component glyphName="C" x="0" y="0" flags="0x4"/>
    </TTGlyph>
    <TTGlyph name="D" xMin="91" yMin="-9" xMax="571" yMax="699">
      <contour>
        <pt x="571" y="357" on="1"/>
        <pt x="571" y="182" on="0"/>
        <pt x="396" y="-9" on="0"/>
        <pt x="212" y="-9" on="1"/>
        <pt x="155" y="-9" on="0"/>
        <pt x="91" y="0" on="1"/>
        <pt x="91" y="689" on="1"/>
        <pt x="131" y="694" on="0"/>
        <pt x="202" y="699" on="0"/>
        <pt x="234" y="699" on="1"/>
        <pt x="326" y="699" on="0"/>
        <pt x="454" y="657" on="0"/>
        <pt x="535" y="572" on="0"/>
        <pt x="571" y="443" on="0"/>
      </contour>
      <contour>
        <pt x="443" y="339" on="1"/>
        <pt x="443" y="402" on="0"/>
        <pt x="424" y="497" on="0"/>
        <pt x="381" y="562" on="0"/>
        <pt x="310" y="594" on="0"/>
        <pt x="259" y="594" on="1"/>
        <pt x="239" y="594" on="0"/>
        <pt x="215" y="591" on="1"/>
        <pt x="215" y="100" on="1"/>
        <pt x="230" y="98" on="0"/>
        <pt x="258" y="96" on="0"/>
        <pt x="271" y="96" on="1"/>
        <pt x="365" y="96" on="0"/>
        <pt x="443" y="217" on="0"/>
      </contour>
    </TTGlyph>
    <TTGlyph name="Dcaron" xMin="91" yMin="-9" xMax="571" yMax="986">
      <component glyphName="caron.cap" x="-7" y="142" flags="0x204"/>
      <component glyphName="D" x="0" y="0" flags="0x4"/>
    </TTGlyph>
    <TTGlyph name="Dcroat" xMin="21" yMin="-9" xMax="571" yMax="699">
      <contour>
        <pt x="571" y="357" on="1"/>
        <pt x="571" y="182" on="0"/>
        <pt x="396" y="-9" on="0"/>
        <pt x="212" y="-9" on="1"/>
        <pt x="155" y="-9" on="0"/>
        <pt x="91" y="0" on="1"/>
        <pt x="91" y="304" on="1"/>
        <pt x="21" y="304" on="1"/>
        <pt x="21" y="391" on="1"/>
        <pt x="91" y="391" on="1"/>
        <pt x="91" y="689" on="1"/>
        <pt x="131" y="694" on="0"/>
        <pt x="202" y="699" on="0"/>
        <pt x="234" y="699" on="1"/>
        <pt x="326" y="699" on="0"/>
        <pt x="454" y="657" on="0"/>
        <pt x="535" y="572" on="0"/>
        <pt x="571" y="443" on="0"/>
      </contour>
      <contour>
        <pt x="215" y="100" on="1"/>
        <pt x="230" y="98" on="0"/>
        <pt x="258" y="96" on="0"/>
        <pt x="271" y="96" on="1"/>
        <pt x="365" y="96" on="0"/>
        <pt x="443" y="217" on="0"/>
        <pt x="443" y="339" on="1"/>
        <pt x="443" y="402" on="0"/>
        <pt x="424" y="497" on="0"/>
        <pt x="381" y="562" on="0"/>
        <pt x="310" y="594" on="0"/>
        <pt x="259" y="594" on="1"/>
        <pt x="239" y="594" on="0"/>
        <pt x="215" y="591" on="1"/>
        <pt x="215" y="391" on="1"/>
        <pt x="337" y="391" on="1"/>
        <pt x="332" y="304" on="1"/>
        <pt x="215" y="304" on="1"/>
      </contour>
    </TTGlyph>
    <TTGlyph name="E" xMin="114" yMin="0" xMax="550" yMax="688">
      <contour>
        <pt x="540" y="0" on="1"/>
        <pt x="114" y="0" on="1"/>
        <pt x="114" y="688" on="1"/>
        <pt x="544" y="688" on="1"/>
        <pt x="544" y="583" on="1"/>
        <pt x="241" y="583" on="1"/>
        <pt x="241" y="393" on="1"/>
        <pt x="500" y="393" on="1"/>
        <pt x="500" y="300" on="1"/>
        <pt x="241" y="300" on="1"/>
        <pt x="241" y="106" on="1"/>
        <pt x="550" y="106" on="1"/>
      </contour>
    </TTGlyph>
    <TTGlyph name="Eacute" xMin="114" yMin="0" xMax="550" yMax="1007">
      <component glyphName="acute.cap" x="30" y="136" flags="0x204"/>
      <component glyphName="E" x="0" y="0" flags="0x4"/>
    </TTGlyph>
    <TTGlyph name="Ebreve" xMin="114" yMin="0" xMax="552" yMax="974">
      <component glyphName="breve.cap" x="20" y="136" flags="0x204"/>
      <component glyphName="E" x="0" y="0" flags="0x4"/>
    </TTGlyph>
    <TTGlyph name="Ecaron" xMin="114" yMin="0" xMax="550" yMax="980">
      <component glyphName="caron.cap" x="22" y="136" flags="0x204"/>
      <component glyphName="E" x="0" y="0" flags="0x4"/>
    </TTGlyph>
    <TTGlyph name="Ecircumflex" xMin="114" yMin="0" xMax="550" yMax="986">
      <component glyphName="E" x="0" y="0" flags="0x204"/>
      <component glyphName="circumflex.cap" x="16" y="136" flags="0x4"/>
    </TTGlyph>
    <TTGlyph name="Edieresis" xMin="114" yMin="0" xMax="550" yMax="927">
      <component glyphName="dieresis.cap" x="15" y="136" flags="0x204"/>
      <component glyphName="E" x="0" y="0" flags="0x4"/>
    </TTGlyph>
    <TTGlyph name="Edotaccent" xMin="114" yMin="0" xMax="550" yMax="927">
      <component glyphName="dotaccent.cap" x="20" y="136" flags="0x204"/>
      <component glyphName="E" x="0" y="0" flags="0x4"/>
    </TTGlyph>
    <TTGlyph name="Egrave" xMin="114" yMin="0" xMax="550" yMax="1006">
      <component glyphName="grave.cap" x="-15" y="136" flags="0x204"/>
      <component glyphName="E" x="0" y="0" flags="0x4"/>
    </TTGlyph>
    <TTGlyph name="Emacron" xMin="114" yMin="0" xMax="550" yMax="903">
      <component glyphName="macron.cap" x="15" y="136" flags="0x204"/>
      <component glyphName="E" x="0" y="0" flags="0x4"/>
    </TTGlyph>
    <TTGlyph name="Eogonek" xMin="114" yMin="-249" xMax="550" yMax="688">
      <contour>
        <pt x="516" y="-249" on="1"/>
        <pt x="454" y="-246" on="0"/>
        <pt x="368" y="-226" on="0"/>
        <pt x="314" y="-196" on="0"/>
        <pt x="289" y="-158" on="0"/>
        <pt x="289" y="-136" on="1"/>
        <pt x="289" y="-104" on="0"/>
        <pt x="346" y="-37" on="0"/>
        <pt x="412" y="0" on="1"/>
        <pt x="114" y="0" on="1"/>
        <pt x="114" y="688" on="1"/>
        <pt x="544" y="688" on="1"/>
        <pt x="544" y="583" on="1"/>
        <pt x="241" y="583" on="1"/>
        <pt x="241" y="393" on="1"/>
        <pt x="500" y="393" on="1"/>
        <pt x="500" y="300" on="1"/>
        <pt x="241" y="300" on="1"/>
        <pt x="241" y="106" on="1"/>
        <pt x="550" y="106" on="1"/>
        <pt x="540" y="0" on="1"/>
        <pt x="501" y="-17" on="0"/>
        <pt x="449" y="-47" on="0"/>
        <pt x="418" y="-72" on="0"/>
        <pt x="405" y="-93" on="0"/>
        <pt x="405" y="-102" on="1"/>
        <pt x="405" y="-121" on="0"/>
        <pt x="460" y="-146" on="0"/>
        <pt x="527" y="-152" on="1"/>
      </contour>
    </TTGlyph>
    <TTGlyph name="Eth" xMin="21" yMin="-9" xMax="571" yMax="699">
      <component glyphName="Dcroat" x="0" y="0" flags="0x204"/>
    </TTGlyph>
    <TTGlyph name="Euro" xMin="69" yMin="-24" xMax="547" yMax="714">
      <contour>
        <pt x="531" y="-24" on="1"/>
        <pt x="441" y="-15" on="0"/>
        <pt x="311" y="22" on="0"/>
        <pt x="220" y="80" on="0"/>
        <pt x="165" y="156" on="0"/>
        <pt x="152" y="204" on="1"/>
        <pt x="70" y="204" on="1"/>
        <pt x="70" y="291" on="1"/>
        <pt x="137" y="291" on="1"/>
        <pt x="136" y="304" on="0"/>
        <pt x="135" y="330" on="0"/>
        <pt x="135" y="344" on="1"/>
        <pt x="135" y="353" on="0"/>
        <pt x="135" y="371" on="0"/>
        <pt x="136" y="380" on="1"/>
        <pt x="69" y="380" on="1"/>
        <pt x="69" y="468" on="1"/>
        <pt x="150" y="468" on="1"/>
        <pt x="162" y="512" on="0"/>
        <pt x="213" y="587" on="0"/>
        <pt x="300" y="649" on="0"/>
        <pt x="429" y="697" on="0"/>
        <pt x="519" y="714" on="1"/>
        <pt x="538" y="597" on="1"/>
        <pt x="469" y="587" on="0"/>
        <pt x="371" y="563" on="0"/>
        <pt x="306" y="531" on="0"/>
        <pt x="269" y="488" on="0"/>
        <pt x="260" y="459" on="1"/>
        <pt x="493" y="459" on="1"/>
        <pt x="489" y="380" on="1"/>
        <pt x="249" y="380" on="1"/>
        <pt x="248" y="372" on="0"/>
        <pt x="248" y="356" on="0"/>
        <pt x="248" y="348" on="1"/>
        <pt x="248" y="334" on="0"/>
        <pt x="249" y="307" on="0"/>
        <pt x="250" y="294" on="1"/>
        <pt x="486" y="294" on="1"/>
        <pt x="482" y="215" on="1"/>
        <pt x="268" y="215" on="1"/>
        <pt x="279" y="188" on="0"/>
        <pt x="320" y="145" on="0"/>
        <pt x="387" y="112" on="0"/>
        <pt x="482" y="86" on="0"/>
        <pt x="547" y="77" on="1"/>
      </contour>
    </TTGlyph>
    <TTGlyph name="F" xMin="120" yMin="0" xMax="555" yMax="688">
      <contour>
        <pt x="248" y="284" on="1"/>
        <pt x="248" y="0" on="1"/>
        <pt x="120" y="0" on="1"/>
        <pt x="120" y="688" on="1"/>
        <pt x="555" y="688" on="1"/>
        <pt x="555" y="582" on="1"/>
        <pt x="248" y="582" on="1"/>
        <pt x="248" y="382" on="1"/>
        <pt x="510" y="382" on="1"/>
        <pt x="510" y="284" on="1"/>
      </contour>
    </TTGlyph>
    <TTGlyph name="G" xMin="62" yMin="-10" xMax="545" yMax="698">
      <contour>
        <pt x="517" y="577" on="1"/>
        <pt x="411" y="581" on="0"/>
        <pt x="283" y="550" on="0"/>
        <pt x="214" y="488" on="0"/>
        <pt x="191" y="399" on="0"/>
        <pt x="191" y="346" on="1"/>
        <pt x="191" y="284" on="0"/>
        <pt x="215" y="189" on="0"/>
        <pt x="271" y="123" on="0"/>
        <pt x="360" y="89" on="0"/>
        <pt x="425" y="89" on="1"/>
        <pt x="433" y="89" on="1"/>
        <pt x="431" y="142" on="0"/>
        <pt x="428" y="280" on="0"/>
        <pt x="428" y="344" on="1"/>
        <pt x="544" y="344" on="1"/>
        <pt x="544" y="238" on="0"/>
        <pt x="544" y="76" on="0"/>
        <pt x="545" y="9" on="1"/>
        <pt x="460" y="-10" on="0"/>
        <pt x="387" y="-10" on="1"/>
        <pt x="304" y="-10" on="0"/>
        <pt x="182" y="38" on="0"/>
        <pt x="101" y="125" on="0"/>
        <pt x="62" y="249" on="0"/>
        <pt x="62" y="326" on="1"/>
        <pt x="62" y="401" on="0"/>
        <pt x="106" y="533" on="0"/>
        <pt x="209" y="633" on="0"/>
        <pt x="381" y="694" on="0"/>
        <pt x="510" y="698" on="1"/>
        <pt x="517" y="577" on="1"/>
      </contour>
    </TTGlyph>
    <TTGlyph name="Gbreve" xMin="62" yMin="-10" xMax="556" yMax="974">
      <component glyphName="breve.cap" x="24" y="136" flags="0x204"/>
      <component glyphName="G" x="0" y="0" flags="0x4"/>
    </TTGlyph>
    <TTGlyph name="Gcommaaccent" xMin="62" yMin="-325" xMax="545" yMax="698">
      <component glyphName="G" x="0" y="0" flags="0x204"/>
      <component glyphName="commaaccent.cap" x="24" y="-10" flags="0x4"/>
    </TTGlyph>
    <TTGlyph name="Gdotaccent" xMin="62" yMin="-10" xMax="545" yMax="927">
      <component glyphName="dotaccent.cap" x="25" y="136" flags="0x204"/>
      <component glyphName="G" x="0" y="0" flags="0x4"/>
    </TTGlyph>
    <TTGlyph name="H" xMin="83" yMin="0" xMax="542" yMax="688">
      <contour>
        <pt x="412" y="299" on="1"/>
        <pt x="213" y="299" on="1"/>
        <pt x="213" y="0" on="1"/>
        <pt x="83" y="0" on="1"/>
        <pt x="83" y="688" on="1"/>
        <pt x="213" y="688" on="1"/>
        <pt x="213" y="396" on="1"/>
        <pt x="412" y="396" on="1"/>
        <pt x="412" y="688" on="1"/>
        <pt x="542" y="688" on="1"/>
        <pt x="542" y="0" on="1"/>
        <pt x="412" y="0" on="1"/>
      </contour>
    </TTGlyph>
    <TTGlyph name="Hbar" xMin="14" yMin="0" xMax="611" yMax="688">
      <contour>
        <pt x="412" y="488" on="1"/>
        <pt x="213" y="488" on="1"/>
        <pt x="213" y="377" on="1"/>
        <pt x="412" y="377" on="1"/>
      </contour>
      <contour>
        <pt x="412" y="280" on="1"/>
        <pt x="213" y="280" on="1"/>
        <pt x="213" y="0" on="1"/>
        <pt x="83" y="0" on="1"/>
        <pt x="83" y="484" on="1"/>
        <pt x="14" y="484" on="1"/>
        <pt x="14" y="570" on="1"/>
        <pt x="83" y="570" on="1"/>
        <pt x="83" y="688" on="1"/>
        <pt x="213" y="688" on="1"/>
        <pt x="213" y="566" on="1"/>
        <pt x="412" y="566" on="1"/>
        <pt x="412" y="688" on="1"/>
        <pt x="542" y="688" on="1"/>
        <pt x="542" y="570" on="1"/>
        <pt x="611" y="570" on="1"/>
        <pt x="611" y="484" on="1"/>
        <pt x="542" y="484" on="1"/>
        <pt x="542" y="0" on="1"/>
        <pt x="412" y="0" on="1"/>
      </contour>
    </TTGlyph>
    <TTGlyph name="I" xMin="91" yMin="0" xMax="541" yMax="688">
      <contour>
        <pt x="376" y="98" on="1"/>
        <pt x="541" y="98" on="1"/>
        <pt x="532" y="0" on="1"/>
        <pt x="91" y="0" on="1"/>
        <pt x="91" y="98" on="1"/>
        <pt x="249" y="98" on="1"/>
        <pt x="249" y="590" on="1"/>
        <pt x="91" y="590" on="1"/>
        <pt x="91" y="688" on="1"/>
        <pt x="535" y="688" on="1"/>
        <pt x="535" y="590" on="1"/>
        <pt x="376" y="590" on="1"/>
      </contour>
    </TTGlyph>
    <TTGlyph name="Iacute" xMin="91" yMin="0" xMax="541" yMax="1007">
      <component glyphName="I" x="0" y="0" flags="0x204"/>
      <component glyphName="acute.cap" x="18" y="136" flags="0x4"/>
    </TTGlyph>
    <TTGlyph name="Ibreve" xMin="91" yMin="0" xMax="541" yMax="974">
      <component glyphName="I" x="0" y="0" flags="0x204"/>
      <component glyphName="breve.cap" x="8" y="136" flags="0x4"/>
    </TTGlyph>
    <TTGlyph name="Icircumflex" xMin="91" yMin="0" xMax="541" yMax="986">
      <component glyphName="I" x="0" y="0" flags="0x204"/>
      <component glyphName="circumflex.cap" x="4" y="136" flags="0x4"/>
    </TTGlyph>
    <TTGlyph name="Idieresis" xMin="91" yMin="0" xMax="541" yMax="927">
      <component glyphName="I" x="0" y="0" flags="0x204"/>
      <component glyphName="dieresis.cap" x="4" y="136" flags="0x4"/>
    </TTGlyph>
    <TTGlyph name="Idotaccent" xMin="91" yMin="0" xMax="541" yMax="927">
      <component glyphName="I" x="0" y="0" flags="0x204"/>
      <component glyphName="dotaccent.cap" x="8" y="136" flags="0x4"/>
    </TTGlyph>
    <TTGlyph name="Igrave" xMin="91" yMin="0" xMax="541" yMax="1006">
      <component glyphName="I" x="0" y="0" flags="0x204"/>
      <component glyphName="grave.cap" x="-27" y="136" flags="0x4"/>
    </TTGlyph>
    <TTGlyph name="Imacron" xMin="91" yMin="0" xMax="541" yMax="903">
      <component glyphName="I" x="0" y="0" flags="0x204"/>
      <component glyphName="macron.cap" x="4" y="136" flags="0x4"/>
    </TTGlyph>
    <TTGlyph name="Iogonek" xMin="91" yMin="-245" xMax="541" yMax="688">
      <contour>
        <pt x="405" y="-245" on="1"/>
        <pt x="343" y="-242" on="0"/>
        <pt x="257" y="-222" on="0"/>
        <pt x="203" y="-191" on="0"/>
        <pt x="178" y="-151" on="0"/>
        <pt x="178" y="-128" on="1"/>
        <pt x="178" y="-99" on="0"/>
        <pt x="219" y="-35" on="0"/>
        <pt x="264" y="0" on="1"/>
        <pt x="91" y="0" on="1"/>
        <pt x="91" y="98" on="1"/>
        <pt x="249" y="98" on="1"/>
        <pt x="249" y="590" on="1"/>
        <pt x="91" y="590" on="1"/>
        <pt x="91" y="688" on="1"/>
        <pt x="535" y="688" on="1"/>
        <pt x="535" y="590" on="1"/>
        <pt x="376" y="590" on="1"/>
        <pt x="376" y="98" on="1"/>
        <pt x="541" y="98" on="1"/>
        <pt x="532" y="0" on="1"/>
        <pt x="367" y="0" on="1"/>
        <pt x="325" y="-33" on="0"/>
        <pt x="294" y="-79" on="0"/>
        <pt x="294" y="-97" on="1"/>
        <pt x="294" y="-117" on="0"/>
        <pt x="349" y="-143" on="0"/>
        <pt x="415" y="-148" on="1"/>
      </contour>
    </TTGlyph>
    <TTGlyph name="J" xMin="95" yMin="-11" xMax="491" yMax="688">
      <contour>
        <pt x="491" y="688" on="1"/>
        <pt x="491" y="234" on="1"/>
        <pt x="491" y="171" on="0"/>
        <pt x="454" y="78" on="0"/>
        <pt x="370" y="18" on="0"/>
        <pt x="233" y="-11" on="0"/>
        <pt x="132" y="-11" on="1"/>
        <pt x="95" y="-11" on="1"/>
        <pt x="95" y="100" on="1"/>
        <pt x="121" y="98" on="0"/>
        <pt x="166" y="98" on="0"/>
        <pt x="186" y="98" on="1"/>
        <pt x="246" y="98" on="0"/>
        <pt x="316" y="111" on="0"/>
        <pt x="353" y="142" on="0"/>
        <pt x="363" y="194" on="0"/>
        <pt x="363" y="232" on="1"/>
        <pt x="363" y="588" on="1"/>
        <pt x="136" y="588" on="1"/>
        <pt x="136" y="688" on="1"/>
      </contour>
    </TTGlyph>
    <TTGlyph name="K" xMin="93" yMin="-8" xMax="593" yMax="688">
      <contour>
        <pt x="277" y="296" on="1"/>
        <pt x="220" y="296" on="1"/>
        <pt x="220" y="0" on="1"/>
        <pt x="93" y="0" on="1"/>
        <pt x="93" y="688" on="1"/>
        <pt x="220" y="688" on="1"/>
        <pt x="220" y="400" on="1"/>
        <pt x="282" y="400" on="1"/>
        <pt x="442" y="688" on="1"/>
        <pt x="577" y="688" on="1"/>
        <pt x="382" y="354" on="1"/>
        <pt x="593" y="8" on="1"/>
        <pt x="455" y="-8" on="1"/>
      </contour>
    </TTGlyph>
    <TTGlyph name="Kcommaaccent" xMin="93" yMin="-323" xMax="593" yMax="688">
      <component glyphName="K" x="0" y="0" flags="0x204"/>
      <component glyphName="commaaccent.cap" x="5" y="-8" flags="0x4"/>
    </TTGlyph>
    <TTGlyph name="L" xMin="122" yMin="0" xMax="561" yMax="688">
      <contour>
        <pt x="122" y="0" on="1"/>
        <pt x="122" y="688" on="1"/>
        <pt x="250" y="688" on="1"/>
        <pt x="250" y="106" on="1"/>
        <pt x="561" y="106" on="1"/>
        <pt x="550" y="0" on="1"/>
      </contour>
    </TTGlyph>
    <TTGlyph name="Lacute" xMin="122" yMin="0" xMax="561" yMax="1007">
      <component glyphName="acute.cap" x="38" y="136" flags="0x204"/>
      <component glyphName="L" x="0" y="0" flags="0x4"/>
    </TTGlyph>
    <TTGlyph name="Lcaron" xMin="122" yMin="0" xMax="561" yMax="783">
      <component glyphName="L" x="0" y="0" flags="0x204"/>
      <component glyphName="caron.alt" x="175" y="-112" flags="0x4"/>
    </TTGlyph>
    <TTGlyph name="Lcommaaccent" xMin="122" yMin="-315" xMax="561" yMax="688">
      <component glyphName="L" x="0" y="0" flags="0x204"/>
      <component glyphName="commaaccent.cap" x="28" y="0" flags="0x4"/>
    </TTGlyph>
    <TTGlyph name="Ldot" xMin="122" yMin="0" xMax="561" yMax="688">
      <contour>
        <pt x="425" y="289" on="1"/>
        <pt x="433" y="431" on="1"/>
        <pt x="556" y="431" on="1"/>
        <pt x="549" y="289" on="1"/>
      </contour>
      <contour>
        <pt x="122" y="0" on="1"/>
        <pt x="122" y="688" on="1"/>
        <pt x="250" y="688" on="1"/>
        <pt x="250" y="106" on="1"/>
        <pt x="561" y="106" on="1"/>
        <pt x="550" y="0" on="1"/>
      </contour>
    </TTGlyph>
    <TTGlyph name="Lslash" xMin="37" yMin="0" xMax="561" yMax="688">
      <contour>
        <pt x="122" y="0" on="1"/>
        <pt x="122" y="309" on="1"/>
        <pt x="56" y="275" on="1"/>
        <pt x="37" y="358" on="1"/>
        <pt x="122" y="401" on="1"/>
        <pt x="122" y="688" on="1"/>
        <pt x="250" y="688" on="1"/>
        <pt x="250" y="466" on="1"/>
        <pt x="377" y="531" on="1"/>
        <pt x="396" y="448" on="1"/>
        <pt x="250" y="374" on="1"/>
        <pt x="250" y="106" on="1"/>
        <pt x="561" y="106" on="1"/>
        <pt x="550" y="0" on="1"/>
      </contour>
    </TTGlyph>
    <TTGlyph name="M" xMin="73" yMin="0" xMax="551" yMax="688">
      <contour>
        <pt x="551" y="688" on="1"/>
        <pt x="551" y="0" on="1"/>
        <pt x="433" y="0" on="1"/>
        <pt x="440" y="461" on="1"/>
        <pt x="435" y="461" on="1"/>
        <pt x="346" y="136" on="1"/>
        <pt x="275" y="136" on="1"/>
        <pt x="184" y="461" on="1"/>
        <pt x="180" y="461" on="1"/>
        <pt x="186" y="0" on="1"/>
        <pt x="73" y="0" on="1"/>
        <pt x="73" y="688" on="1"/>
        <pt x="197" y="688" on="1"/>
        <pt x="226" y="581" on="0"/>
        <pt x="251" y="494" on="1"/>
        <pt x="261" y="457" on="0"/>
        <pt x="281" y="384" on="0"/>
        <pt x="298" y="325" on="0"/>
        <pt x="309" y="284" on="0"/>
        <pt x="311" y="278" on="1"/>
        <pt x="316" y="278" on="1"/>
        <pt x="317" y="284" on="0"/>
        <pt x="329" y="325" on="0"/>
        <pt x="345" y="384" on="0"/>
        <pt x="365" y="457" on="0"/>
        <pt x="375" y="494" on="1"/>
        <pt x="399" y="581" on="0"/>
        <pt x="429" y="688" on="1"/>
      </contour>
    </TTGlyph>
    <TTGlyph name="N" xMin="84" yMin="0" xMax="541" yMax="688">
      <contour>
        <pt x="202" y="460" on="1"/>
        <pt x="196" y="460" on="1"/>
        <pt x="201" y="0" on="1"/>
        <pt x="84" y="0" on="1"/>
        <pt x="84" y="688" on="1"/>
        <pt x="203" y="688" on="1"/>
        <pt x="424" y="233" on="1"/>
        <pt x="429" y="233" on="1"/>
        <pt x="424" y="688" on="1"/>
        <pt x="541" y="688" on="1"/>
        <pt x="541" y="0" on="1"/>
        <pt x="432" y="0" on="1"/>
      </contour>
    </TTGlyph>
    <TTGlyph name="Nacute" xMin="84" yMin="0" xMax="541" yMax="1007">
      <component glyphName="acute.cap" x="15" y="136" flags="0x204"/>
      <component glyphName="N" x="0" y="0" flags="0x4"/>
    </TTGlyph>
    <TTGlyph name="Ncaron" xMin="84" yMin="0" xMax="541" yMax="980">
      <component glyphName="caron.cap" x="8" y="136" flags="0x204"/>
      <component glyphName="N" x="0" y="0" flags="0x4"/>
    </TTGlyph>
    <TTGlyph name="Ncommaaccent" xMin="84" yMin="-315" xMax="541" yMax="688">
      <component glyphName="commaaccent.cap" x="5" y="0" flags="0x204"/>
      <component glyphName="N" x="0" y="0" flags="0x4"/>
    </TTGlyph>
    <TTGlyph name="Ntilde" xMin="84" yMin="0" xMax="553" yMax="962">
      <component glyphName="tilde.cap" x="9" y="136" flags="0x204"/>
      <component glyphName="N" x="0" y="0" flags="0x4"/>
    </TTGlyph>
    <TTGlyph name="O" xMin="52" yMin="-17" xMax="573" yMax="706">
      <contour>
        <pt x="297" y="-17" on="1"/>
        <pt x="179" y="-17" on="0"/>
        <pt x="52" y="158" on="0"/>
        <pt x="52" y="324" on="1"/>
        <pt x="52" y="417" on="0"/>
        <pt x="91" y="560" on="0"/>
        <pt x="163" y="656" on="0"/>
        <pt x="265" y="706" on="0"/>
        <pt x="328" y="706" on="1"/>
        <pt x="446" y="706" on="0"/>
        <pt x="572" y="530" on="0"/>
        <pt x="573" y="364" on="1"/>
        <pt x="573" y="271" on="0"/>
        <pt x="534" y="129" on="0"/>
        <pt x="462" y="33" on="0"/>
        <pt x="360" y="-17" on="0"/>
      </contour>
      <contour>
        <pt x="308" y="601" on="1"/>
        <pt x="244" y="601" on="0"/>
        <pt x="183" y="479" on="0"/>
        <pt x="183" y="352" on="1"/>
        <pt x="183" y="219" on="0"/>
        <pt x="251" y="87" on="0"/>
        <pt x="316" y="87" on="1"/>
        <pt x="442" y="87" on="0"/>
        <pt x="442" y="336" on="1"/>
        <pt x="442" y="469" on="0"/>
        <pt x="374" y="601" on="0"/>
      </contour>
    </TTGlyph>
    <TTGlyph name="OE" xMin="41" yMin="0" xMax="579" yMax="688">
      <contour>
        <pt x="167" y="350" on="1"/>
        <pt x="167" y="284" on="0"/>
        <pt x="181" y="192" on="0"/>
        <pt x="213" y="133" on="0"/>
        <pt x="263" y="106" on="0"/>
        <pt x="298" y="106" on="1"/>
        <pt x="298" y="582" on="1"/>
        <pt x="264" y="582" on="0"/>
        <pt x="214" y="557" on="0"/>
        <pt x="182" y="502" on="0"/>
        <pt x="167" y="414" on="0"/>
      </contour>
      <contour>
        <pt x="573" y="0" on="1"/>
        <pt x="326" y="0" on="1"/>
        <pt x="254" y="0" on="0"/>
        <pt x="146" y="37" on="0"/>
        <pt x="76" y="118" on="0"/>
        <pt x="41" y="243" on="0"/>
        <pt x="41" y="332" on="1"/>
        <pt x="41" y="504" on="0"/>
        <pt x="184" y="688" on="0"/>
        <pt x="327" y="688" on="1"/>
        <pt x="574" y="688" on="1"/>
        <pt x="574" y="583" on="1"/>
        <pt x="404" y="583" on="1"/>
        <pt x="404" y="393" on="1"/>
        <pt x="542" y="393" on="1"/>
        <pt x="542" y="300" on="1"/>
        <pt x="404" y="300" on="1"/>
        <pt x="404" y="106" on="1"/>
        <pt x="579" y="106" on="1"/>
      </contour>
    </TTGlyph>
    <TTGlyph name="Oacute" xMin="52" yMin="-17" xMax="573" yMax="1015">
      <component glyphName="acute.cap" x="19" y="144" flags="0x204"/>
      <component glyphName="O" x="0" y="0" flags="0x4"/>
    </TTGlyph>
    <TTGlyph name="Obreve" xMin="52" yMin="-17" xMax="573" yMax="982">
      <component glyphName="breve.cap" x="9" y="144" flags="0x204"/>
      <component glyphName="O" x="0" y="0" flags="0x4"/>
    </TTGlyph>
    <TTGlyph name="Ocircumflex" xMin="52" yMin="-17" xMax="573" yMax="994">
      <component glyphName="O" x="0" y="0" flags="0x204"/>
      <component glyphName="circumflex.cap" x="5" y="144" flags="0x4"/>
    </TTGlyph>
    <TTGlyph name="Odieresis" xMin="52" yMin="-17" xMax="573" yMax="935">
      <component glyphName="dieresis.cap" x="4" y="144" flags="0x204"/>
      <component glyphName="O" x="0" y="0" flags="0x4"/>
    </TTGlyph>
    <TTGlyph name="Ograve" xMin="52" yMin="-17" xMax="573" yMax="1014">
      <component glyphName="grave.cap" x="-26" y="144" flags="0x204"/>
      <component glyphName="O" x="0" y="0" flags="0x4"/>
    </TTGlyph>
    <TTGlyph name="Ohungarumlaut" xMin="52" yMin="-17" xMax="606" yMax="1030">
      <component glyphName="O" x="0" y="0" flags="0x204"/>
      <component glyphName="hungarumlaut.cap" x="-3" y="144" flags="0x4"/>
    </TTGlyph>
    <TTGlyph name="Omacron" xMin="52" yMin="-17" xMax="573" yMax="911">
      <component glyphName="macron.cap" x="4" y="144" flags="0x204"/>
      <component glyphName="O" x="0" y="0" flags="0x4"/>
    </TTGlyph>
    <TTGlyph name="Omega" xMin="57" yMin="0" xMax="569" yMax="704">
      <contour>
        <pt x="268" y="0" on="1"/>
        <pt x="57" y="0" on="1"/>
        <pt x="57" y="98" on="1"/>
        <pt x="148" y="98" on="1"/>
        <pt x="113" y="186" on="0"/>
        <pt x="79" y="345" on="0"/>
        <pt x="79" y="414" on="1"/>
        <pt x="79" y="478" on="0"/>
        <pt x="111" y="585" on="0"/>
        <pt x="172" y="662" on="0"/>
        <pt x="261" y="704" on="0"/>
        <pt x="318" y="704" on="1"/>
        <pt x="373" y="704" on="0"/>
        <pt x="459" y="662" on="0"/>
        <pt x="517" y="587" on="0"/>
        <pt x="547" y="483" on="0"/>
        <pt x="547" y="420" on="1"/>
        <pt x="547" y="349" on="0"/>
        <pt x="513" y="189" on="0"/>
        <pt x="476" y="98" on="1"/>
        <pt x="569" y="98" on="1"/>
        <pt x="569" y="0" on="1"/>
        <pt x="357" y="0" on="1"/>
        <pt x="355" y="7" on="1"/>
        <pt x="393" y="125" on="0"/>
        <pt x="427" y="317" on="0"/>
        <pt x="427" y="389" on="1"/>
        <pt x="427" y="488" on="0"/>
        <pt x="369" y="592" on="0"/>
        <pt x="313" y="592" on="1"/>
        <pt x="256" y="592" on="0"/>
        <pt x="197" y="490" on="0"/>
        <pt x="197" y="393" on="1"/>
        <pt x="197" y="320" on="0"/>
        <pt x="233" y="127" on="0"/>
        <pt x="271" y="7" on="1"/>
      </contour>
    </TTGlyph>
    <TTGlyph name="Oslash" xMin="52" yMin="-48" xMax="573" yMax="736">
      <contour>
        <pt x="180" y="352" on="1"/>
        <pt x="180" y="305" on="0"/>
        <pt x="189" y="230" on="0"/>
        <pt x="197" y="199" on="1"/>
        <pt x="391" y="563" on="1"/>
        <pt x="358" y="602" on="0"/>
        <pt x="308" y="602" on="1"/>
        <pt x="243" y="602" on="0"/>
        <pt x="180" y="480" on="0"/>
      </contour>
      <contour>
        <pt x="316" y="86" on="1"/>
        <pt x="381" y="86" on="0"/>
        <pt x="444" y="208" on="0"/>
        <pt x="444" y="336" on="1"/>
        <pt x="444" y="383" on="0"/>
        <pt x="435" y="458" on="0"/>
        <pt x="427" y="489" on="1"/>
        <pt x="233" y="125" on="1"/>
        <pt x="264" y="86" on="0"/>
      </contour>
      <contour>
        <pt x="297" y="-17" on="1"/>
        <pt x="232" y="-17" on="0"/>
        <pt x="183" y="10" on="1"/>
        <pt x="153" y="-48" on="1"/>
        <pt x="75" y="-7" on="1"/>
        <pt x="117" y="69" on="1"/>
        <pt x="52" y="157" on="0"/>
        <pt x="52" y="324" on="1"/>
        <pt x="52" y="417" on="0"/>
        <pt x="91" y="560" on="0"/>
        <pt x="163" y="656" on="0"/>
        <pt x="265" y="706" on="0"/>
        <pt x="328" y="706" on="1"/>
        <pt x="393" y="706" on="0"/>
        <pt x="443" y="678" on="1"/>
        <pt x="473" y="736" on="1"/>
        <pt x="551" y="696" on="1"/>
        <pt x="509" y="617" on="1"/>
        <pt x="573" y="529" on="0"/>
        <pt x="573" y="364" on="1"/>
        <pt x="573" y="271" on="0"/>
        <pt x="534" y="129" on="0"/>
        <pt x="462" y="33" on="0"/>
        <pt x="360" y="-17" on="0"/>
      </contour>
    </TTGlyph>
    <TTGlyph name="Oslashacute" xMin="52" yMin="-48" xMax="573" yMax="1015">
      <component glyphName="Oslash" x="0" y="0" flags="0x204"/>
      <component glyphName="acute.cap" x="14" y="144" flags="0x4"/>
    </TTGlyph>
    <TTGlyph name="Otilde" xMin="52" yMin="-17" xMax="573" yMax="970">
      <component glyphName="tilde.cap" x="12" y="144" flags="0x204"/>
      <component glyphName="O" x="0" y="0" flags="0x4"/>
    </TTGlyph>
    <TTGlyph name="P" xMin="103" yMin="0" xMax="572" yMax="698">
      <contour>
        <pt x="103" y="0" on="1"/>
        <pt x="103" y="687" on="1"/>
        <pt x="145" y="693" on="0"/>
        <pt x="220" y="698" on="0"/>
        <pt x="255" y="698" on="1"/>
        <pt x="416" y="698" on="0"/>
        <pt x="572" y="582" on="0"/>
        <pt x="572" y="473" on="1"/>
        <pt x="572" y="411" on="0"/>
        <pt x="522" y="318" on="0"/>
        <pt x="431" y="253" on="0"/>
        <pt x="305" y="214" on="0"/>
        <pt x="230" y="206" on="1"/>
        <pt x="230" y="0" on="1"/>
      </contour>
      <contour>
        <pt x="448" y="448" on="1"/>
        <pt x="448" y="518" on="0"/>
        <pt x="366" y="593" on="0"/>
        <pt x="281" y="593" on="1"/>
        <pt x="257" y="593" on="0"/>
        <pt x="230" y="590" on="1"/>
        <pt x="230" y="313" on="1"/>
        <pt x="260" y="310" on="0"/>
        <pt x="287" y="310" on="1"/>
        <pt x="367" y="310" on="0"/>
        <pt x="448" y="374" on="0"/>
      </contour>
    </TTGlyph>
    <TTGlyph name="Q" xMin="52" yMin="-161" xMax="573" yMax="706">
      <contour>
        <pt x="238" y="-75" on="1"/>
        <pt x="259" y="-14" on="1"/>
        <pt x="159" y="0" on="0"/>
        <pt x="52" y="172" on="0"/>
        <pt x="52" y="324" on="1"/>
        <pt x="52" y="417" on="0"/>
        <pt x="91" y="560" on="0"/>
        <pt x="163" y="656" on="0"/>
        <pt x="265" y="706" on="0"/>
        <pt x="328" y="706" on="1"/>
        <pt x="446" y="706" on="0"/>
        <pt x="573" y="530" on="0"/>
        <pt x="573" y="364" on="1"/>
        <pt x="573" y="213" on="0"/>
        <pt x="474" y="28" on="0"/>
        <pt x="386" y="-3" on="1"/>
        <pt x="386" y="-6" on="1"/>
        <pt x="535" y="-58" on="1"/>
        <pt x="499" y="-161" on="1"/>
      </contour>
      <contour>
        <pt x="308" y="601" on="1"/>
        <pt x="242" y="601" on="0"/>
        <pt x="183" y="479" on="0"/>
        <pt x="183" y="352" on="1"/>
        <pt x="183" y="87" on="0"/>
        <pt x="316" y="87" on="1"/>
        <pt x="382" y="87" on="0"/>
        <pt x="442" y="210" on="0"/>
        <pt x="442" y="336" on="1"/>
        <pt x="442" y="601" on="0"/>
      </contour>
    </TTGlyph>
    <TTGlyph name="R" xMin="97" yMin="-10" xMax="594" yMax="698">
      <contour>
        <pt x="332" y="240" on="1"/>
        <pt x="222" y="237" on="1"/>
        <pt x="222" y="0" on="1"/>
        <pt x="97" y="0" on="1"/>
        <pt x="97" y="687" on="1"/>
        <pt x="142" y="693" on="0"/>
        <pt x="218" y="698" on="0"/>
        <pt x="253" y="698" on="1"/>
        <pt x="335" y="698" on="0"/>
        <pt x="446" y="669" on="0"/>
        <pt x="514" y="616" on="0"/>
        <pt x="544" y="542" on="0"/>
        <pt x="544" y="498" on="1"/>
        <pt x="544" y="433" on="0"/>
        <pt x="480" y="339" on="0"/>
        <pt x="432" y="304" on="1"/>
        <pt x="594" y="7" on="1"/>
        <pt x="458" y="-10" on="1"/>
      </contour>
      <contour>
        <pt x="222" y="326" on="1"/>
        <pt x="342" y="329" on="1"/>
        <pt x="377" y="353" on="0"/>
        <pt x="419" y="424" on="0"/>
        <pt x="419" y="470" on="1"/>
        <pt x="419" y="529" on="0"/>
        <pt x="349" y="595" on="0"/>
        <pt x="274" y="595" on="1"/>
        <pt x="262" y="595" on="0"/>
        <pt x="236" y="593" on="0"/>
        <pt x="222" y="591" on="1"/>
      </contour>
    </TTGlyph>
    <TTGlyph name="R_p" xMin="37" yMin="-193" xMax="598" yMax="691">
      <contour>
        <pt x="167" y="253" on="1"/>
        <pt x="126" y="251" on="1"/>
        <pt x="132" y="0" on="1"/>
        <pt x="37" y="0" on="1"/>
        <pt x="37" y="686" on="1"/>
        <pt x="56" y="689" on="0"/>
        <pt x="90" y="691" on="0"/>
        <pt x="106" y="691" on="1"/>
        <pt x="160" y="691" on="0"/>
        <pt x="239" y="662" on="0"/>
        <pt x="290" y="610" on="0"/>
        <pt x="314" y="537" on="0"/>
        <pt x="314" y="493" on="1"/>
        <pt x="314" y="434" on="0"/>
        <pt x="275" y="337" on="0"/>
        <pt x="245" y="300" on="1"/>
        <pt x="314" y="3" on="1"/>
        <pt x="221" y="-4" on="1"/>
      </contour>
      <contour>
        <pt x="349" y="-193" on="1"/>
        <pt x="349" y="530" on="1"/>
        <pt x="412" y="531" on="1"/>
        <pt x="415" y="511" on="1"/>
        <pt x="457" y="534" on="0"/>
        <pt x="491" y="534" on="1"/>
        <pt x="598" y="534" on="0"/>
        <pt x="598" y="285" on="1"/>
        <pt x="598" y="208" on="0"/>
        <pt x="573" y="101" on="0"/>
        <pt x="530" y="33" on="0"/>
        <pt x="474" y="3" on="0"/>
        <pt x="443" y="3" on="1"/>
        <pt x="437" y="3" on="1"/>
        <pt x="437" y="-182" on="1"/>
      </contour>
    </TTGlyph>
    <TTGlyph name="Racute" xMin="97" yMin="-10" xMax="594" yMax="1014">
      <component glyphName="R" x="0" y="0" flags="0x204"/>
      <component glyphName="acute.cap" x="-1" y="143" flags="0x4"/>
    </TTGlyph>
    <TTGlyph name="Rcaron" xMin="96" yMin="-10" xMax="594" yMax="987">
      <component glyphName="caron.cap" x="-9" y="143" flags="0x204"/>
      <component glyphName="R" x="0" y="0" flags="0x4"/>
    </TTGlyph>
    <TTGlyph name="Rcommaaccent" xMin="97" yMin="-325" xMax="594" yMax="698">
      <component glyphName="R" x="0" y="0" flags="0x204"/>
      <component glyphName="commaaccent.cap" x="28" y="-10" flags="0x4"/>
    </TTGlyph>
    <TTGlyph name="S" xMin="93" yMin="-9" xMax="546" yMax="695">
      <contour>
        <pt x="96" y="106" on="1"/>
        <pt x="125" y="104" on="0"/>
        <pt x="176" y="102" on="0"/>
        <pt x="199" y="102" on="1"/>
        <pt x="258" y="102" on="0"/>
        <pt x="340" y="115" on="0"/>
        <pt x="392" y="137" on="0"/>
        <pt x="415" y="168" on="0"/>
        <pt x="415" y="186" on="1"/>
        <pt x="415" y="214" on="0"/>
        <pt x="367" y="260" on="0"/>
        <pt x="296" y="303" on="0"/>
        <pt x="212" y="346" on="0"/>
        <pt x="141" y="396" on="0"/>
        <pt x="93" y="458" on="0"/>
        <pt x="93" y="498" on="1"/>
        <pt x="93" y="534" on="0"/>
        <pt x="133" y="605" on="0"/>
        <pt x="219" y="661" on="0"/>
        <pt x="352" y="695" on="0"/>
        <pt x="445" y="695" on="1"/>
        <pt x="458" y="695" on="0"/>
        <pt x="483" y="695" on="0"/>
        <pt x="497" y="694" on="1"/>
        <pt x="505" y="580" on="1"/>
        <pt x="475" y="582" on="0"/>
        <pt x="423" y="584" on="0"/>
        <pt x="400" y="584" on="1"/>
        <pt x="349" y="584" on="0"/>
        <pt x="281" y="574" on="0"/>
        <pt x="241" y="556" on="0"/>
        <pt x="225" y="530" on="0"/>
        <pt x="225" y="515" on="1"/>
        <pt x="225" y="489" on="0"/>
        <pt x="273" y="446" on="0"/>
        <pt x="344" y="403" on="0"/>
        <pt x="427" y="359" on="0"/>
        <pt x="498" y="307" on="0"/>
        <pt x="546" y="243" on="0"/>
        <pt x="546" y="202" on="1"/>
        <pt x="546" y="163" on="0"/>
        <pt x="503" y="88" on="0"/>
        <pt x="409" y="28" on="0"/>
        <pt x="256" y="-9" on="0"/>
        <pt x="147" y="-9" on="1"/>
        <pt x="134" y="-9" on="0"/>
        <pt x="109" y="-9" on="0"/>
        <pt x="96" y="-8" on="1"/>
        <pt x="96" y="106" on="1"/>
      </contour>
    </TTGlyph>
    <TTGlyph name="Sacute" xMin="93" yMin="-9" xMax="546" yMax="1012">
      <component glyphName="S" x="0" y="0" flags="0x204"/>
      <component glyphName="acute.cap" x="29" y="141" flags="0x4"/>
    </TTGlyph>
    <TTGlyph name="Scaron" xMin="93" yMin="-9" xMax="546" yMax="985">
      <component glyphName="S" x="0" y="0" flags="0x204"/>
      <component glyphName="caron.cap" x="22" y="141" flags="0x4"/>
    </TTGlyph>
    <TTGlyph name="Scedilla" xMin="93" yMin="-257" xMax="546" yMax="695">
      <contour>
        <pt x="185" y="-163" on="1"/>
        <pt x="251" y="-155" on="0"/>
        <pt x="307" y="-134" on="0"/>
        <pt x="307" y="-118" on="1"/>
        <pt x="307" y="-84" on="0"/>
        <pt x="209" y="-34" on="1"/>
        <pt x="221" y="-6" on="1"/>
        <pt x="183" y="-9" on="0"/>
        <pt x="143" y="-9" on="1"/>
        <pt x="132" y="-9" on="0"/>
        <pt x="108" y="-9" on="0"/>
        <pt x="96" y="-8" on="1"/>
        <pt x="96" y="106" on="1"/>
        <pt x="125" y="104" on="0"/>
        <pt x="176" y="102" on="0"/>
        <pt x="199" y="102" on="1"/>
        <pt x="258" y="102" on="0"/>
        <pt x="340" y="115" on="0"/>
        <pt x="392" y="137" on="0"/>
        <pt x="415" y="168" on="0"/>
        <pt x="415" y="186" on="1"/>
        <pt x="415" y="214" on="0"/>
        <pt x="367" y="260" on="0"/>
        <pt x="296" y="303" on="0"/>
        <pt x="212" y="346" on="0"/>
        <pt x="141" y="396" on="0"/>
        <pt x="93" y="458" on="0"/>
        <pt x="93" y="498" on="1"/>
        <pt x="93" y="534" on="0"/>
        <pt x="133" y="605" on="0"/>
        <pt x="219" y="661" on="0"/>
        <pt x="352" y="695" on="0"/>
        <pt x="445" y="695" on="1"/>
        <pt x="458" y="695" on="0"/>
        <pt x="483" y="695" on="0"/>
        <pt x="497" y="694" on="1"/>
        <pt x="505" y="580" on="1"/>
        <pt x="475" y="582" on="0"/>
        <pt x="423" y="584" on="0"/>
        <pt x="400" y="584" on="1"/>
        <pt x="349" y="584" on="0"/>
        <pt x="281" y="574" on="0"/>
        <pt x="241" y="556" on="0"/>
        <pt x="225" y="530" on="0"/>
        <pt x="225" y="515" on="1"/>
        <pt x="225" y="489" on="0"/>
        <pt x="273" y="446" on="0"/>
        <pt x="344" y="403" on="0"/>
        <pt x="427" y="359" on="0"/>
        <pt x="498" y="307" on="0"/>
        <pt x="546" y="243" on="0"/>
        <pt x="546" y="202" on="1"/>
        <pt x="546" y="170" on="0"/>
        <pt x="518" y="108" on="0"/>
        <pt x="456" y="54" on="0"/>
        <pt x="359" y="12" on="0"/>
        <pt x="289" y="1" on="1"/>
        <pt x="359" y="-34" on="0"/>
        <pt x="417" y="-101" on="0"/>
        <pt x="417" y="-133" on="1"/>
        <pt x="417" y="-179" on="0"/>
        <pt x="305" y="-246" on="0"/>
        <pt x="193" y="-257" on="1"/>
      </contour>
    </TTGlyph>
    <TTGlyph name="Scommaaccent" xMin="93" yMin="-326" xMax="546" yMax="695">
      <component glyphName="S" x="0" y="0" flags="0x204"/>
      <component glyphName="commaaccent.cap" x="-3" y="-11" flags="0x4"/>
    </TTGlyph>
    <TTGlyph name="T" xMin="47" yMin="0" xMax="575" yMax="688">
      <contour>
        <pt x="377" y="0" on="1"/>
        <pt x="249" y="0" on="1"/>
        <pt x="249" y="582" on="1"/>
        <pt x="47" y="582" on="1"/>
        <pt x="56" y="688" on="1"/>
        <pt x="575" y="688" on="1"/>
        <pt x="575" y="582" on="1"/>
        <pt x="377" y="582" on="1"/>
      </contour>
    </TTGlyph>
    <TTGlyph name="Tcaron" xMin="47" yMin="0" xMax="575" yMax="980">
      <component glyphName="caron.cap" x="3" y="136" flags="0x204"/>
      <component glyphName="T" x="0" y="0" flags="0x4"/>
    </TTGlyph>
    <TTGlyph name="Tcommaaccent" xMin="47" yMin="-315" xMax="575" yMax="688">
      <component glyphName="T" x="0" y="0" flags="0x204"/>
      <component glyphName="commaaccent.cap" x="0" y="0" flags="0x4"/>
    </TTGlyph>
    <TTGlyph name="Thorn" xMin="104" yMin="0" xMax="575" yMax="688">
      <contour>
        <pt x="104" y="0" on="1"/>
        <pt x="104" y="688" on="1"/>
        <pt x="231" y="688" on="1"/>
        <pt x="231" y="586" on="1"/>
        <pt x="242" y="587" on="0"/>
        <pt x="262" y="587" on="0"/>
        <pt x="272" y="587" on="1"/>
        <pt x="423" y="587" on="0"/>
        <pt x="575" y="475" on="0"/>
        <pt x="575" y="370" on="1"/>
        <pt x="575" y="309" on="0"/>
        <pt x="524" y="218" on="0"/>
        <pt x="433" y="154" on="0"/>
        <pt x="307" y="116" on="0"/>
        <pt x="231" y="109" on="1"/>
        <pt x="231" y="0" on="1"/>
      </contour>
      <contour>
        <pt x="450" y="345" on="1"/>
        <pt x="450" y="482" on="0"/>
        <pt x="277" y="482" on="1"/>
        <pt x="266" y="482" on="0"/>
        <pt x="243" y="482" on="0"/>
        <pt x="231" y="480" on="1"/>
        <pt x="231" y="216" on="1"/>
        <pt x="259" y="213" on="0"/>
        <pt x="284" y="213" on="1"/>
        <pt x="365" y="213" on="0"/>
        <pt x="450" y="274" on="0"/>
      </contour>
    </TTGlyph>
    <TTGlyph name="U" xMin="80" yMin="-17" xMax="545" yMax="688">
      <contour>
        <pt x="307" y="-17" on="1"/>
        <pt x="200" y="-17" on="0"/>
        <pt x="80" y="110" on="0"/>
        <pt x="80" y="229" on="1"/>
        <pt x="80" y="688" on="1"/>
        <pt x="207" y="688" on="1"/>
        <pt x="207" y="234" on="1"/>
        <pt x="207" y="159" on="0"/>
        <pt x="265" y="92" on="0"/>
        <pt x="316" y="92" on="1"/>
        <pt x="369" y="92" on="0"/>
        <pt x="418" y="149" on="0"/>
        <pt x="418" y="216" on="1"/>
        <pt x="418" y="688" on="1"/>
        <pt x="545" y="688" on="1"/>
        <pt x="545" y="238" on="1"/>
        <pt x="545" y="118" on="0"/>
        <pt x="418" y="-17" on="0"/>
      </contour>
    </TTGlyph>
    <TTGlyph name="Uacute" xMin="80" yMin="-17" xMax="545" yMax="1007">
      <component glyphName="acute.cap" x="14" y="136" flags="0x204"/>
      <component glyphName="U" x="0" y="0" flags="0x4"/>
    </TTGlyph>
    <TTGlyph name="Ubreve" xMin="80" yMin="-17" xMax="545" yMax="974">
      <component glyphName="breve.cap" x="5" y="136" flags="0x204"/>
      <component glyphName="U" x="0" y="0" flags="0x4"/>
    </TTGlyph>
    <TTGlyph name="Ucircumflex" xMin="80" yMin="-17" xMax="545" yMax="986">
      <component glyphName="U" x="0" y="0" flags="0x204"/>
      <component glyphName="circumflex.cap" x="1" y="136" flags="0x4"/>
    </TTGlyph>
    <TTGlyph name="Udieresis" xMin="80" yMin="-17" xMax="545" yMax="927">
      <component glyphName="dieresis.cap" x="0" y="136" flags="0x204"/>
      <component glyphName="U" x="0" y="0" flags="0x4"/>
    </TTGlyph>
    <TTGlyph name="Ugrave" xMin="80" yMin="-17" xMax="545" yMax="1006">
      <component glyphName="grave.cap" x="-30" y="136" flags="0x204"/>
      <component glyphName="U" x="0" y="0" flags="0x4"/>
    </TTGlyph>
    <TTGlyph name="Uhungarumlaut" xMin="80" yMin="-17" xMax="602" yMax="1022">
      <component glyphName="U" x="0" y="0" flags="0x204"/>
      <component glyphName="hungarumlaut.cap" x="-7" y="136" flags="0x4"/>
    </TTGlyph>
    <TTGlyph name="Umacron" xMin="80" yMin="-17" xMax="545" yMax="903">
      <component glyphName="macron.cap" x="0" y="136" flags="0x204"/>
      <component glyphName="U" x="0" y="0" flags="0x4"/>
    </TTGlyph>
    <TTGlyph name="Uogonek" xMin="80" yMin="-249" xMax="545" yMax="688">
      <contour>
        <pt x="418" y="-249" on="1"/>
        <pt x="356" y="-246" on="0"/>
        <pt x="270" y="-226" on="0"/>
        <pt x="216" y="-196" on="0"/>
        <pt x="191" y="-158" on="0"/>
        <pt x="191" y="-136" on="1"/>
        <pt x="191" y="-106" on="0"/>
        <pt x="232" y="-49" on="0"/>
        <pt x="283" y="-17" on="1"/>
        <pt x="186" y="-9" on="0"/>
        <pt x="80" y="118" on="0"/>
        <pt x="80" y="229" on="1"/>
        <pt x="80" y="688" on="1"/>
        <pt x="207" y="688" on="1"/>
        <pt x="207" y="234" on="1"/>
        <pt x="207" y="159" on="0"/>
        <pt x="265" y="92" on="0"/>
        <pt x="316" y="92" on="1"/>
        <pt x="369" y="92" on="0"/>
        <pt x="418" y="149" on="0"/>
        <pt x="418" y="216" on="1"/>
        <pt x="418" y="688" on="1"/>
        <pt x="545" y="688" on="1"/>
        <pt x="545" y="238" on="1"/>
        <pt x="545" y="158" on="0"/>
        <pt x="492" y="55" on="0"/>
        <pt x="435" y="15" on="1"/>
        <pt x="403" y="-8" on="0"/>
        <pt x="355" y="-39" on="0"/>
        <pt x="323" y="-65" on="0"/>
        <pt x="307" y="-87" on="0"/>
        <pt x="307" y="-99" on="1"/>
        <pt x="307" y="-120" on="0"/>
        <pt x="362" y="-146" on="0"/>
        <pt x="429" y="-152" on="1"/>
        <pt x="418" y="-249" on="1"/>
      </contour>
    </TTGlyph>
    <TTGlyph name="Uring" xMin="80" yMin="-17" xMax="545" yMax="989">
      <component glyphName="U" x="0" y="0" flags="0x204"/>
      <component glyphName="ring.cap" x="-9" y="136" flags="0x4"/>
    </TTGlyph>
    <TTGlyph name="V" xMin="39" yMin="-1" xMax="585" yMax="693">
      <contour>
        <pt x="224" y="-1" on="1"/>
        <pt x="173" y="173" on="0"/>
        <pt x="81" y="511" on="0"/>
        <pt x="39" y="684" on="1"/>
        <pt x="168" y="693" on="1"/>
        <pt x="201" y="549" on="0"/>
        <pt x="272" y="257" on="0"/>
        <pt x="310" y="114" on="1"/>
        <pt x="320" y="114" on="1"/>
        <pt x="358" y="257" on="0"/>
        <pt x="427" y="545" on="0"/>
        <pt x="459" y="688" on="1"/>
        <pt x="585" y="688" on="1"/>
        <pt x="543" y="515" on="0"/>
        <pt x="452" y="173" on="0"/>
        <pt x="401" y="-1" on="1"/>
      </contour>
    </TTGlyph>
    <TTGlyph name="W" xMin="50" yMin="0" xMax="576" yMax="688">
      <contour>
        <pt x="309" y="332" on="1"/>
        <pt x="223" y="0" on="1"/>
        <pt x="102" y="0" on="1"/>
        <pt x="96" y="49" on="0"/>
        <pt x="82" y="193" on="0"/>
        <pt x="68" y="371" on="0"/>
        <pt x="55" y="577" on="0"/>
        <pt x="50" y="688" on="1"/>
        <pt x="173" y="688" on="1"/>
        <pt x="174" y="670" on="0"/>
        <pt x="177" y="585" on="0"/>
        <pt x="182" y="475" on="0"/>
        <pt x="188" y="354" on="0"/>
        <pt x="193" y="250" on="0"/>
        <pt x="197" y="176" on="0"/>
        <pt x="198" y="167" on="1"/>
        <pt x="202" y="167" on="1"/>
        <pt x="214" y="212" on="0"/>
        <pt x="233" y="290" on="0"/>
        <pt x="251" y="365" on="0"/>
        <pt x="270" y="440" on="0"/>
        <pt x="281" y="482" on="1"/>
        <pt x="348" y="482" on="1"/>
        <pt x="360" y="440" on="0"/>
        <pt x="381" y="363" on="0"/>
        <pt x="401" y="286" on="0"/>
        <pt x="422" y="209" on="0"/>
        <pt x="433" y="167" on="1"/>
        <pt x="437" y="167" on="1"/>
        <pt x="438" y="176" on="0"/>
        <pt x="441" y="250" on="0"/>
        <pt x="445" y="354" on="0"/>
        <pt x="449" y="475" on="0"/>
        <pt x="453" y="585" on="0"/>
        <pt x="456" y="670" on="0"/>
        <pt x="457" y="688" on="1"/>
        <pt x="576" y="688" on="1"/>
        <pt x="570" y="577" on="0"/>
        <pt x="557" y="371" on="0"/>
        <pt x="542" y="193" on="0"/>
        <pt x="529" y="49" on="0"/>
        <pt x="523" y="0" on="1"/>
        <pt x="399" y="0" on="1"/>
      </contour>
    </TTGlyph>
    <TTGlyph name="Wacute" xMin="50" yMin="0" xMax="576" yMax="1007">
      <component glyphName="acute.cap" x="18" y="136" flags="0x204"/>
      <component glyphName="W" x="0" y="0" flags="0x4"/>
    </TTGlyph>
    <TTGlyph name="Wcircumflex" xMin="50" yMin="0" xMax="576" yMax="986">
      <component glyphName="W" x="0" y="0" flags="0x204"/>
      <component glyphName="circumflex.cap" x="4" y="136" flags="0x4"/>
    </TTGlyph>
    <TTGlyph name="Wdieresis" xMin="50" yMin="0" xMax="576" yMax="927">
      <component glyphName="dieresis.cap" x="4" y="136" flags="0x204"/>
      <component glyphName="W" x="0" y="0" flags="0x4"/>
    </TTGlyph>
    <TTGlyph name="Wgrave" xMin="50" yMin="0" xMax="576" yMax="1006">
      <component glyphName="grave.cap" x="-27" y="136" flags="0x204"/>
      <component glyphName="W" x="0" y="0" flags="0x4"/>
    </TTGlyph>
    <TTGlyph name="X" xMin="39" yMin="-3" xMax="589" yMax="692">
      <contour>
        <pt x="308" y="255" on="1"/>
        <pt x="175" y="0" on="1"/>
        <pt x="40" y="0" on="1"/>
        <pt x="234" y="343" on="1"/>
        <pt x="39" y="685" on="1"/>
        <pt x="178" y="692" on="1"/>
        <pt x="320" y="431" on="1"/>
        <pt x="453" y="688" on="1"/>
        <pt x="589" y="688" on="1"/>
        <pt x="393" y="343" on="1"/>
        <pt x="588" y="3" on="1"/>
        <pt x="448" y="-3" on="1"/>
      </contour>
    </TTGlyph>
    <TTGlyph name="Y" xMin="30" yMin="0" xMax="595" yMax="691">
      <contour>
        <pt x="249" y="0" on="1"/>
        <pt x="249" y="228" on="1"/>
        <pt x="30" y="686" on="1"/>
        <pt x="164" y="691" on="1"/>
        <pt x="317" y="348" on="1"/>
        <pt x="464" y="688" on="1"/>
        <pt x="595" y="688" on="1"/>
        <pt x="377" y="228" on="1"/>
        <pt x="377" y="0" on="1"/>
      </contour>
    </TTGlyph>
    <TTGlyph name="Yacute" xMin="30" yMin="0" xMax="595" yMax="1009">
      <component glyphName="Y" x="0" y="0" flags="0x204"/>
      <component glyphName="acute.cap" x="17" y="138" flags="0x4"/>
    </TTGlyph>
    <TTGlyph name="Ycircumflex" xMin="30" yMin="0" xMax="595" yMax="988">
      <component glyphName="Y" x="0" y="0" flags="0x204"/>
      <component glyphName="circumflex.cap" x="3" y="138" flags="0x4"/>
    </TTGlyph>
    <TTGlyph name="Ydieresis" xMin="30" yMin="0" xMax="595" yMax="929">
      <component glyphName="Y" x="0" y="0" flags="0x204"/>
      <component glyphName="dieresis.cap" x="3" y="138" flags="0x4"/>
    </TTGlyph>
    <TTGlyph name="Ygrave" xMin="30" yMin="0" xMax="595" yMax="1008">
      <component glyphName="Y" x="0" y="0" flags="0x204"/>
      <component glyphName="grave.cap" x="-28" y="138" flags="0x4"/>
    </TTGlyph>
    <TTGlyph name="Z" xMin="77" yMin="0" xMax="555" yMax="688">
      <contour>
        <pt x="77" y="0" on="1"/>
        <pt x="77" y="107" on="1"/>
        <pt x="409" y="580" on="1"/>
        <pt x="79" y="578" on="1"/>
        <pt x="88" y="688" on="1"/>
        <pt x="546" y="688" on="1"/>
        <pt x="546" y="581" on="1"/>
        <pt x="216" y="108" on="1"/>
        <pt x="555" y="110" on="1"/>
        <pt x="546" y="0" on="1"/>
      </contour>
    </TTGlyph>
    <TTGlyph name="Zacute" xMin="77" yMin="0" xMax="555" yMax="1007">
      <component glyphName="Z" x="0" y="0" flags="0x204"/>
      <component glyphName="acute.cap" x="28" y="136" flags="0x4"/>
    </TTGlyph>
    <TTGlyph name="Zcaron" xMin="77" yMin="0" xMax="555" yMax="980">
      <component glyphName="caron.cap" x="20" y="136" flags="0x204"/>
      <component glyphName="Z" x="0" y="0" flags="0x4"/>
    </TTGlyph>
    <TTGlyph name="Zdotaccent" xMin="77" yMin="0" xMax="555" yMax="927">
      <component glyphName="dotaccent.cap" x="19" y="136" flags="0x204"/>
      <component glyphName="Z" x="0" y="0" flags="0x4"/>
    </TTGlyph>
    <TTGlyph name="a" xMin="72" yMin="-14" xMax="543" yMax="564">
      <contour>
        <pt x="288" y="81" on="1"/>
        <pt x="320" y="81" on="0"/>
        <pt x="386" y="105" on="0"/>
        <pt x="415" y="125" on="1"/>
        <pt x="413" y="148" on="0"/>
        <pt x="413" y="204" on="0"/>
        <pt x="412" y="239" on="1"/>
        <pt x="389" y="241" on="0"/>
        <pt x="351" y="244" on="0"/>
        <pt x="334" y="244" on="1"/>
        <pt x="293" y="244" on="0"/>
        <pt x="240" y="232" on="0"/>
        <pt x="208" y="209" on="0"/>
        <pt x="195" y="178" on="0"/>
        <pt x="195" y="159" on="1"/>
        <pt x="195" y="121" on="0"/>
        <pt x="245" y="81" on="0"/>
      </contour>
      <contour>
        <pt x="430" y="-4" on="1"/>
        <pt x="430" y="-2" on="0"/>
        <pt x="428" y="12" on="0"/>
        <pt x="425" y="31" on="0"/>
        <pt x="421" y="53" on="0"/>
        <pt x="420" y="63" on="1"/>
        <pt x="388" y="32" on="0"/>
        <pt x="299" y="-14" on="0"/>
        <pt x="239" y="-14" on="1"/>
        <pt x="165" y="-14" on="0"/>
        <pt x="72" y="62" on="0"/>
        <pt x="72" y="130" on="1"/>
        <pt x="72" y="169" on="0"/>
        <pt x="108" y="239" on="0"/>
        <pt x="184" y="291" on="0"/>
        <pt x="299" y="321" on="0"/>
        <pt x="379" y="321" on="1"/>
        <pt x="387" y="321" on="0"/>
        <pt x="403" y="320" on="0"/>
        <pt x="411" y="320" on="1"/>
        <pt x="408" y="360" on="0"/>
        <pt x="379" y="411" on="0"/>
        <pt x="310" y="443" on="0"/>
        <pt x="194" y="457" on="0"/>
        <pt x="105" y="460" on="1"/>
        <pt x="117" y="564" on="1"/>
        <pt x="242" y="562" on="0"/>
        <pt x="403" y="532" on="0"/>
        <pt x="496" y="464" on="0"/>
        <pt x="532" y="355" on="0"/>
        <pt x="532" y="274" on="1"/>
        <pt x="532" y="193" on="0"/>
        <pt x="539" y="60" on="0"/>
        <pt x="543" y="3" on="1"/>
      </contour>
    </TTGlyph>
    <TTGlyph name="aacute" xMin="72" yMin="-14" xMax="543" yMax="879">
      <component glyphName="a" x="0" y="0" flags="0x204"/>
      <component glyphName="acute" x="10" y="8" flags="0x4"/>
    </TTGlyph>
    <TTGlyph name="abreve" xMin="72" yMin="-14" xMax="543" yMax="846">
      <component glyphName="a" x="0" y="0" flags="0x204"/>
      <component glyphName="breve" x="0" y="8" flags="0x4"/>
    </TTGlyph>
    <TTGlyph name="acircumflex" xMin="72" yMin="-14" xMax="543" yMax="858">
      <component glyphName="a" x="0" y="0" flags="0x204"/>
      <component glyphName="circumflex" x="-4" y="8" flags="0x4"/>
    </TTGlyph>
    <TTGlyph name="acute" xMin="167" yMin="620" xMax="486" yMax="871">
      <contour>
        <pt x="167" y="674" on="1"/>
        <pt x="191" y="690" on="0"/>
        <pt x="251" y="737" on="0"/>
        <pt x="314" y="791" on="0"/>
        <pt x="372" y="846" on="0"/>
        <pt x="395" y="871" on="1"/>
        <pt x="486" y="778" on="1"/>
        <pt x="458" y="756" on="0"/>
        <pt x="384" y="710" on="0"/>
        <pt x="305" y="667" on="0"/>
        <pt x="228" y="632" on="0"/>
        <pt x="198" y="620" on="1"/>
        <pt x="167" y="674" on="1"/>
      </contour>
    </TTGlyph>
    <TTGlyph name="acute.cap" xMin="167" yMin="620" xMax="486" yMax="871">
      <contour>
        <pt x="167" y="674" on="1"/>
        <pt x="191" y="690" on="0"/>
        <pt x="251" y="737" on="0"/>
        <pt x="314" y="791" on="0"/>
        <pt x="372" y="846" on="0"/>
        <pt x="395" y="871" on="1"/>
        <pt x="486" y="778" on="1"/>
        <pt x="458" y="756" on="0"/>
        <pt x="384" y="710" on="0"/>
        <pt x="305" y="667" on="0"/>
        <pt x="228" y="632" on="0"/>
        <pt x="198" y="620" on="1"/>
        <pt x="167" y="674" on="1"/>
      </contour>
    </TTGlyph>
    <TTGlyph name="adieresis" xMin="72" yMin="-14" xMax="543" yMax="799">
      <component glyphName="a" x="0" y="0" flags="0x204"/>
      <component glyphName="dieresis" x="-4" y="8" flags="0x4"/>
    </TTGlyph>
    <TTGlyph name="ae" xMin="37" yMin="-8" xMax="587" yMax="561">
      <contour>
        <pt x="420" y="460" on="1"/>
        <pt x="388" y="460" on="0"/>
        <pt x="359" y="396" on="0"/>
        <pt x="357" y="318" on="1"/>
        <pt x="385" y="319" on="0"/>
        <pt x="451" y="320" on="0"/>
        <pt x="474" y="320" on="1"/>
        <pt x="473" y="390" on="0"/>
        <pt x="449" y="460" on="0"/>
      </contour>
      <contour>
        <pt x="255" y="245" on="1"/>
        <pt x="196" y="247" on="0"/>
        <pt x="150" y="203" on="0"/>
        <pt x="150" y="162" on="1"/>
        <pt x="150" y="87" on="0"/>
        <pt x="205" y="87" on="1"/>
        <pt x="244" y="87" on="0"/>
        <pt x="269" y="122" on="1"/>
        <pt x="261" y="148" on="0"/>
        <pt x="255" y="210" on="0"/>
      </contour>
      <contour>
        <pt x="568" y="-7" on="1"/>
        <pt x="512" y="-8" on="0"/>
        <pt x="425" y="1" on="0"/>
        <pt x="359" y="21" on="0"/>
        <pt x="313" y="49" on="0"/>
        <pt x="298" y="68" on="1"/>
        <pt x="275" y="37" on="0"/>
        <pt x="205" y="-8" on="0"/>
        <pt x="159" y="-8" on="1"/>
        <pt x="102" y="-8" on="0"/>
        <pt x="37" y="66" on="0"/>
        <pt x="37" y="133" on="1"/>
        <pt x="37" y="220" on="0"/>
        <pt x="138" y="316" on="0"/>
        <pt x="255" y="319" on="1"/>
        <pt x="253" y="359" on="0"/>
        <pt x="237" y="409" on="0"/>
        <pt x="195" y="439" on="0"/>
        <pt x="120" y="452" on="0"/>
        <pt x="59" y="455" on="1"/>
        <pt x="68" y="558" on="1"/>
        <pt x="117" y="556" on="0"/>
        <pt x="193" y="546" on="0"/>
        <pt x="250" y="528" on="0"/>
        <pt x="289" y="499" on="0"/>
        <pt x="302" y="478" on="1"/>
        <pt x="348" y="561" on="0"/>
        <pt x="436" y="561" on="1"/>
        <pt x="511" y="561" on="0"/>
        <pt x="587" y="427" on="0"/>
        <pt x="587" y="306" on="1"/>
        <pt x="587" y="292" on="0"/>
        <pt x="586" y="264" on="0"/>
        <pt x="585" y="249" on="1"/>
        <pt x="357" y="244" on="1"/>
        <pt x="357" y="202" on="0"/>
        <pt x="373" y="146" on="0"/>
        <pt x="420" y="111" on="0"/>
        <pt x="506" y="95" on="0"/>
        <pt x="577" y="94" on="1"/>
      </contour>
    </TTGlyph>
    <TTGlyph name="aeacute" xMin="37" yMin="-8" xMax="587" yMax="872">
      <component glyphName="acute" x="15" y="1" flags="0x204"/>
      <component glyphName="ae" x="0" y="0" flags="0x4"/>
    </TTGlyph>
    <TTGlyph name="agrave" xMin="72" yMin="-14" xMax="543" yMax="878">
      <component glyphName="a" x="0" y="0" flags="0x204"/>
      <component glyphName="grave" x="-35" y="8" flags="0x4"/>
    </TTGlyph>
    <TTGlyph name="amacron" xMin="72" yMin="-14" xMax="543" yMax="775">
      <component glyphName="a" x="0" y="0" flags="0x204"/>
      <component glyphName="macron" x="-4" y="8" flags="0x4"/>
    </TTGlyph>
    <TTGlyph name="ampersand" xMin="40" yMin="-15" xMax="591" yMax="702">
      <contour>
        <pt x="491" y="-15" on="1"/>
        <pt x="468" y="16" on="0"/>
        <pt x="425" y="71" on="0"/>
        <pt x="405" y="97" on="1"/>
        <pt x="363" y="39" on="0"/>
        <pt x="263" y="-14" on="0"/>
        <pt x="210" y="-14" on="1"/>
        <pt x="168" y="-14" on="0"/>
        <pt x="104" y="11" on="0"/>
        <pt x="61" y="54" on="0"/>
        <pt x="40" y="113" on="0"/>
        <pt x="40" y="148" on="1"/>
        <pt x="40" y="214" on="0"/>
        <pt x="115" y="319" on="0"/>
        <pt x="187" y="364" on="1"/>
        <pt x="157" y="406" on="0"/>
        <pt x="126" y="473" on="0"/>
        <pt x="126" y="507" on="1"/>
        <pt x="126" y="543" on="0"/>
        <pt x="155" y="613" on="0"/>
        <pt x="224" y="668" on="0"/>
        <pt x="336" y="702" on="0"/>
        <pt x="420" y="702" on="1"/>
        <pt x="437" y="702" on="1"/>
        <pt x="445" y="590" on="1"/>
        <pt x="434" y="591" on="0"/>
        <pt x="415" y="591" on="0"/>
        <pt x="406" y="591" on="1"/>
        <pt x="359" y="591" on="0"/>
        <pt x="298" y="579" on="0"/>
        <pt x="263" y="558" on="0"/>
        <pt x="249" y="528" on="0"/>
        <pt x="249" y="510" on="1"/>
        <pt x="249" y="493" on="0"/>
        <pt x="269" y="453" on="0"/>
        <pt x="309" y="399" on="0"/>
        <pt x="371" y="327" on="0"/>
        <pt x="412" y="279" on="1"/>
        <pt x="427" y="319" on="0"/>
        <pt x="453" y="407" on="0"/>
        <pt x="462" y="450" on="1"/>
        <pt x="566" y="438" on="1"/>
        <pt x="549" y="373" on="0"/>
        <pt x="500" y="253" on="0"/>
        <pt x="474" y="206" on="1"/>
        <pt x="500" y="174" on="0"/>
        <pt x="559" y="103" on="0"/>
        <pt x="591" y="61" on="1"/>
      </contour>
      <contour>
        <pt x="237" y="85" on="1"/>
        <pt x="299" y="85" on="0"/>
        <pt x="349" y="165" on="1"/>
        <pt x="315" y="207" on="0"/>
        <pt x="257" y="277" on="0"/>
        <pt x="233" y="306" on="1"/>
        <pt x="157" y="245" on="0"/>
        <pt x="157" y="174" on="1"/>
        <pt x="157" y="136" on="0"/>
        <pt x="197" y="85" on="0"/>
      </contour>
    </TTGlyph>
    <TTGlyph name="aogonek" xMin="72" yMin="-246" xMax="543" yMax="564">
      <contour>
        <pt x="518" y="-246" on="1"/>
        <pt x="456" y="-243" on="0"/>
        <pt x="370" y="-224" on="0"/>
        <pt x="316" y="-194" on="0"/>
        <pt x="291" y="-156" on="0"/>
        <pt x="291" y="-134" on="1"/>
        <pt x="291" y="-99" on="0"/>
        <pt x="356" y="-29" on="0"/>
        <pt x="428" y="10" on="1"/>
        <pt x="426" y="24" on="0"/>
        <pt x="420" y="67" on="0"/>
        <pt x="418" y="83" on="1"/>
        <pt x="385" y="44" on="0"/>
        <pt x="292" y="-14" on="0"/>
        <pt x="235" y="-14" on="1"/>
        <pt x="163" y="-14" on="0"/>
        <pt x="72" y="62" on="0"/>
        <pt x="72" y="130" on="1"/>
        <pt x="72" y="169" on="0"/>
        <pt x="108" y="239" on="0"/>
        <pt x="184" y="291" on="0"/>
        <pt x="299" y="321" on="0"/>
        <pt x="379" y="321" on="1"/>
        <pt x="387" y="321" on="0"/>
        <pt x="403" y="320" on="0"/>
        <pt x="411" y="320" on="1"/>
        <pt x="408" y="360" on="0"/>
        <pt x="379" y="411" on="0"/>
        <pt x="310" y="443" on="0"/>
        <pt x="194" y="457" on="0"/>
        <pt x="105" y="460" on="1"/>
        <pt x="117" y="564" on="1"/>
        <pt x="242" y="562" on="0"/>
        <pt x="403" y="532" on="0"/>
        <pt x="496" y="464" on="0"/>
        <pt x="532" y="355" on="0"/>
        <pt x="532" y="274" on="1"/>
        <pt x="532" y="193" on="0"/>
        <pt x="539" y="60" on="0"/>
        <pt x="543" y="3" on="1"/>
        <pt x="504" y="-14" on="0"/>
        <pt x="451" y="-44" on="0"/>
        <pt x="420" y="-69" on="0"/>
        <pt x="407" y="-91" on="0"/>
        <pt x="407" y="-100" on="1"/>
        <pt x="407" y="-119" on="0"/>
        <pt x="462" y="-144" on="0"/>
        <pt x="529" y="-150" on="1"/>
      </contour>
      <contour>
        <pt x="285" y="81" on="1"/>
        <pt x="318" y="81" on="0"/>
        <pt x="388" y="114" on="0"/>
        <pt x="414" y="143" on="1"/>
        <pt x="413" y="164" on="0"/>
        <pt x="413" y="210" on="0"/>
        <pt x="412" y="239" on="1"/>
        <pt x="389" y="241" on="0"/>
        <pt x="351" y="244" on="0"/>
        <pt x="334" y="244" on="1"/>
        <pt x="293" y="244" on="0"/>
        <pt x="240" y="232" on="0"/>
        <pt x="208" y="209" on="0"/>
        <pt x="195" y="178" on="0"/>
        <pt x="195" y="159" on="1"/>
        <pt x="195" y="121" on="0"/>
        <pt x="243" y="81" on="0"/>
      </contour>
    </TTGlyph>
    <TTGlyph name="approxequal" xMin="59" yMin="104" xMax="559" yMax="561">
      <contour>
        <pt x="406" y="350" on="1"/>
        <pt x="373" y="350" on="0"/>
        <pt x="318" y="383" on="0"/>
        <pt x="271" y="423" on="0"/>
        <pt x="231" y="456" on="0"/>
        <pt x="212" y="456" on="1"/>
        <pt x="191" y="456" on="0"/>
        <pt x="153" y="396" on="0"/>
        <pt x="131" y="348" on="1"/>
        <pt x="59" y="378" on="1"/>
        <pt x="91" y="467" on="0"/>
        <pt x="169" y="561" on="0"/>
        <pt x="223" y="561" on="1"/>
        <pt x="255" y="561" on="0"/>
        <pt x="308" y="528" on="0"/>
        <pt x="353" y="487" on="0"/>
        <pt x="392" y="454" on="0"/>
        <pt x="409" y="454" on="1"/>
        <pt x="429" y="454" on="0"/>
        <pt x="465" y="510" on="0"/>
        <pt x="485" y="555" on="1"/>
        <pt x="559" y="525" on="1"/>
        <pt x="527" y="437" on="0"/>
        <pt x="458" y="350" on="0"/>
      </contour>
      <contour>
        <pt x="406" y="105" on="1"/>
        <pt x="373" y="105" on="0"/>
        <pt x="318" y="138" on="0"/>
        <pt x="272" y="179" on="0"/>
        <pt x="231" y="212" on="0"/>
        <pt x="213" y="212" on="1"/>
        <pt x="192" y="212" on="0"/>
        <pt x="154" y="152" on="0"/>
        <pt x="132" y="104" on="1"/>
        <pt x="59" y="134" on="1"/>
        <pt x="91" y="222" on="0"/>
        <pt x="169" y="315" on="0"/>
        <pt x="223" y="315" on="1"/>
        <pt x="255" y="315" on="0"/>
        <pt x="308" y="282" on="0"/>
        <pt x="353" y="242" on="0"/>
        <pt x="392" y="209" on="0"/>
        <pt x="409" y="209" on="1"/>
        <pt x="430" y="209" on="0"/>
        <pt x="466" y="266" on="0"/>
        <pt x="487" y="311" on="1"/>
        <pt x="559" y="280" on="1"/>
        <pt x="527" y="192" on="0"/>
        <pt x="458" y="105" on="0"/>
      </contour>
    </TTGlyph>
    <TTGlyph name="aring" xMin="72" yMin="-14" xMax="543" yMax="861">
      <component glyphName="a" x="0" y="0" flags="0x204"/>
      <component glyphName="ring" x="-14" y="8" flags="0x4"/>
    </TTGlyph>
    <TTGlyph name="aringacute" xMin="72" yMin="-14" xMax="543" yMax="1150">
      <contour>
        <pt x="288" y="81" on="1"/>
        <pt x="320" y="81" on="0"/>
        <pt x="386" y="105" on="0"/>
        <pt x="415" y="125" on="1"/>
        <pt x="413" y="148" on="0"/>
        <pt x="413" y="204" on="0"/>
        <pt x="412" y="239" on="1"/>
        <pt x="389" y="241" on="0"/>
        <pt x="351" y="244" on="0"/>
        <pt x="334" y="244" on="1"/>
        <pt x="293" y="244" on="0"/>
        <pt x="240" y="232" on="0"/>
        <pt x="208" y="209" on="0"/>
        <pt x="195" y="178" on="0"/>
        <pt x="195" y="159" on="1"/>
        <pt x="195" y="121" on="0"/>
        <pt x="245" y="81" on="0"/>
      </contour>
      <contour>
        <pt x="430" y="-4" on="1"/>
        <pt x="430" y="-2" on="0"/>
        <pt x="428" y="12" on="0"/>
        <pt x="425" y="31" on="0"/>
        <pt x="421" y="53" on="0"/>
        <pt x="420" y="63" on="1"/>
        <pt x="388" y="32" on="0"/>
        <pt x="299" y="-14" on="0"/>
        <pt x="239" y="-14" on="1"/>
        <pt x="165" y="-14" on="0"/>
        <pt x="72" y="62" on="0"/>
        <pt x="72" y="130" on="1"/>
        <pt x="72" y="169" on="0"/>
        <pt x="108" y="239" on="0"/>
        <pt x="184" y="291" on="0"/>
        <pt x="299" y="321" on="0"/>
        <pt x="379" y="321" on="1"/>
        <pt x="387" y="321" on="0"/>
        <pt x="403" y="320" on="0"/>
        <pt x="411" y="320" on="1"/>
        <pt x="408" y="360" on="0"/>
        <pt x="379" y="411" on="0"/>
        <pt x="310" y="443" on="0"/>
        <pt x="194" y="457" on="0"/>
        <pt x="105" y="460" on="1"/>
        <pt x="117" y="564" on="1"/>
        <pt x="242" y="562" on="0"/>
        <pt x="403" y="532" on="0"/>
        <pt x="496" y="464" on="0"/>
        <pt x="532" y="355" on="0"/>
        <pt x="532" y="274" on="1"/>
        <pt x="532" y="193" on="0"/>
        <pt x="539" y="60" on="0"/>
        <pt x="543" y="3" on="1"/>
      </contour>
      <contour>
        <pt x="177" y="953" on="1"/>
        <pt x="201" y="969" on="0"/>
        <pt x="261" y="1016" on="0"/>
        <pt x="324" y="1070" on="0"/>
        <pt x="382" y="1125" on="0"/>
        <pt x="405" y="1150" on="1"/>
        <pt x="496" y="1057" on="1"/>
        <pt x="468" y="1035" on="0"/>
        <pt x="394" y="989" on="0"/>
        <pt x="315" y="946" on="0"/>
        <pt x="238" y="911" on="0"/>
        <pt x="208" y="899" on="1"/>
        <pt x="177" y="953" on="1"/>
      </contour>
      <contour>
        <pt x="307" y="861" on="1"/>
        <pt x="340" y="861" on="0"/>
        <pt x="395" y="842" on="0"/>
        <pt x="434" y="809" on="0"/>
        <pt x="456" y="766" on="0"/>
        <pt x="456" y="742" on="1"/>
        <pt x="456" y="689" on="0"/>
        <pt x="375" y="620" on="0"/>
        <pt x="307" y="620" on="1"/>
        <pt x="274" y="620" on="0"/>
        <pt x="219" y="638" on="0"/>
        <pt x="180" y="670" on="0"/>
        <pt x="158" y="713" on="0"/>
        <pt x="158" y="738" on="1"/>
        <pt x="158" y="791" on="0"/>
        <pt x="238" y="861" on="0"/>
      </contour>
    </TTGlyph>
    <TTGlyph name="asciicircum" xMin="62" yMin="163" xMax="569" yMax="558">
      <contour>
        <pt x="308" y="399" on="1"/>
        <pt x="145" y="163" on="1"/>
        <pt x="62" y="226" on="1"/>
        <pt x="299" y="555" on="1"/>
        <pt x="321" y="558" on="1"/>
        <pt x="569" y="227" on="1"/>
        <pt x="478" y="163" on="1"/>
      </contour>
    </TTGlyph>
    <TTGlyph name="asciitilde" xMin="40" yMin="210" xMax="585" yMax="467">
      <contour>
        <pt x="420" y="210" on="1"/>
        <pt x="387" y="210" on="0"/>
        <pt x="324" y="255" on="0"/>
        <pt x="267" y="310" on="0"/>
        <pt x="218" y="355" on="0"/>
        <pt x="200" y="355" on="1"/>
        <pt x="178" y="355" on="0"/>
        <pt x="139" y="279" on="0"/>
        <pt x="118" y="218" on="1"/>
        <pt x="40" y="248" on="1"/>
        <pt x="71" y="349" on="0"/>
        <pt x="153" y="467" on="0"/>
        <pt x="208" y="467" on="1"/>
        <pt x="241" y="467" on="0"/>
        <pt x="303" y="422" on="0"/>
        <pt x="358" y="367" on="0"/>
        <pt x="406" y="322" on="0"/>
        <pt x="424" y="322" on="1"/>
        <pt x="446" y="322" on="0"/>
        <pt x="484" y="398" on="0"/>
        <pt x="506" y="460" on="1"/>
        <pt x="585" y="429" on="1"/>
        <pt x="553" y="325" on="0"/>
        <pt x="475" y="210" on="0"/>
      </contour>
    </TTGlyph>
    <TTGlyph name="asterisk" xMin="62" yMin="272" xMax="574" yMax="770">
      <contour>
        <pt x="305" y="401" on="1"/>
        <pt x="178" y="293" on="1"/>
        <pt x="116" y="347" on="1"/>
        <pt x="207" y="486" on="1"/>
        <pt x="62" y="575" on="1"/>
        <pt x="95" y="651" on="1"/>
        <pt x="256" y="606" on="1"/>
        <pt x="295" y="770" on="1"/>
        <pt x="378" y="764" on="1"/>
        <pt x="387" y="596" on="1"/>
        <pt x="555" y="609" on="1"/>
        <pt x="574" y="531" on="1"/>
        <pt x="416" y="469" on="1"/>
        <pt x="480" y="315" on="1"/>
        <pt x="410" y="272" on="1"/>
      </contour>
    </TTGlyph>
    <TTGlyph name="asterisk.alt" xMin="53" yMin="251" xMax="572" yMax="779">
      <contour>
        <pt x="301" y="610" on="1"/>
        <pt x="303" y="779" on="1"/>
        <pt x="412" y="757" on="1"/>
        <pt x="360" y="599" on="1"/>
      </contour>
      <contour>
        <pt x="224" y="551" on="1"/>
        <pt x="80" y="639" on="1"/>
        <pt x="153" y="722" on="1"/>
        <pt x="263" y="598" on="1"/>
      </contour>
      <contour>
        <pt x="388" y="573" on="1"/>
        <pt x="536" y="655" on="1"/>
        <pt x="572" y="550" on="1"/>
        <pt x="409" y="514" on="1"/>
      </contour>
      <contour>
        <pt x="237" y="456" on="1"/>
        <pt x="89" y="375" on="1"/>
        <pt x="53" y="479" on="1"/>
        <pt x="216" y="514" on="1"/>
      </contour>
      <contour>
        <pt x="403" y="479" on="1"/>
        <pt x="546" y="390" on="1"/>
        <pt x="474" y="307" on="1"/>
        <pt x="362" y="431" on="1"/>
      </contour>
      <contour>
        <pt x="325" y="419" on="1"/>
        <pt x="323" y="251" on="1"/>
        <pt x="212" y="272" on="1"/>
        <pt x="265" y="431" on="1"/>
      </contour>
    </TTGlyph>
    <TTGlyph name="at" xMin="48" yMin="-175" xMax="567" yMax="760">
      <contour>
        <pt x="510" y="-168" on="1"/>
        <pt x="484" y="-171" on="0"/>
        <pt x="436" y="-175" on="0"/>
        <pt x="413" y="-175" on="1"/>
        <pt x="309" y="-175" on="0"/>
        <pt x="169" y="-110" on="0"/>
        <pt x="84" y="8" on="0"/>
        <pt x="48" y="172" on="0"/>
        <pt x="48" y="270" on="1"/>
        <pt x="48" y="382" on="0"/>
        <pt x="96" y="563" on="0"/>
        <pt x="182" y="691" on="0"/>
        <pt x="300" y="760" on="0"/>
        <pt x="369" y="760" on="1"/>
        <pt x="469" y="760" on="0"/>
        <pt x="561" y="629" on="0"/>
        <pt x="561" y="503" on="1"/>
        <pt x="561" y="417" on="0"/>
        <pt x="562" y="290" on="0"/>
        <pt x="564" y="193" on="0"/>
        <pt x="566" y="118" on="0"/>
        <pt x="567" y="83" on="1"/>
        <pt x="466" y="72" on="1"/>
        <pt x="466" y="76" on="0"/>
        <pt x="464" y="107" on="0"/>
        <pt x="462" y="121" on="1"/>
        <pt x="439" y="93" on="0"/>
        <pt x="392" y="65" on="0"/>
        <pt x="360" y="65" on="1"/>
        <pt x="333" y="65" on="0"/>
        <pt x="286" y="95" on="0"/>
        <pt x="253" y="149" on="0"/>
        <pt x="234" y="226" on="0"/>
        <pt x="234" y="273" on="1"/>
        <pt x="234" y="339" on="0"/>
        <pt x="266" y="436" on="0"/>
        <pt x="323" y="500" on="0"/>
        <pt x="399" y="531" on="0"/>
        <pt x="444" y="531" on="1"/>
        <pt x="454" y="531" on="1"/>
        <pt x="449" y="596" on="0"/>
        <pt x="404" y="662" on="0"/>
        <pt x="357" y="662" on="1"/>
        <pt x="316" y="662" on="0"/>
        <pt x="242" y="617" on="0"/>
        <pt x="185" y="524" on="0"/>
        <pt x="151" y="382" on="0"/>
        <pt x="151" y="285" on="1"/>
        <pt x="151" y="200" on="0"/>
        <pt x="174" y="65" on="0"/>
        <pt x="236" y="-28" on="0"/>
        <pt x="343" y="-77" on="0"/>
        <pt x="426" y="-77" on="1"/>
        <pt x="446" y="-77" on="0"/>
        <pt x="486" y="-75" on="0"/>
        <pt x="509" y="-72" on="1"/>
      </contour>
      <contour>
        <pt x="401" y="160" on="1"/>
        <pt x="417" y="160" on="0"/>
        <pt x="443" y="174" on="0"/>
        <pt x="455" y="186" on="1"/>
        <pt x="455" y="429" on="1"/>
        <pt x="438" y="432" on="0"/>
        <pt x="424" y="432" on="1"/>
        <pt x="375" y="432" on="0"/>
        <pt x="343" y="357" on="0"/>
        <pt x="343" y="293" on="1"/>
        <pt x="343" y="160" on="0"/>
      </contour>
    </TTGlyph>
    <TTGlyph name="atilde" xMin="72" yMin="-14" xMax="547" yMax="834">
      <component glyphName="a" x="0" y="0" flags="0x204"/>
      <component glyphName="tilde" x="3" y="8" flags="0x4"/>
    </TTGlyph>
    <TTGlyph name="b" xMin="94" yMin="-14" xMax="563" yMax="789">
      <contour>
        <pt x="261" y="-14" on="1"/>
        <pt x="172" y="-14" on="0"/>
        <pt x="94" y="15" on="1"/>
        <pt x="94" y="778" on="1"/>
        <pt x="217" y="789" on="1"/>
        <pt x="217" y="508" on="1"/>
        <pt x="245" y="533" on="0"/>
        <pt x="317" y="567" on="0"/>
        <pt x="362" y="567" on="1"/>
        <pt x="405" y="567" on="0"/>
        <pt x="479" y="530" on="0"/>
        <pt x="533" y="461" on="0"/>
        <pt x="563" y="364" on="0"/>
        <pt x="563" y="304" on="1"/>
        <pt x="563" y="230" on="0"/>
        <pt x="513" y="112" on="0"/>
        <pt x="430" y="30" on="0"/>
        <pt x="321" y="-14" on="0"/>
      </contour>
      <contour>
        <pt x="304" y="91" on="1"/>
        <pt x="368" y="91" on="0"/>
        <pt x="441" y="180" on="0"/>
        <pt x="441" y="274" on="1"/>
        <pt x="441" y="370" on="0"/>
        <pt x="369" y="466" on="0"/>
        <pt x="312" y="466" on="1"/>
        <pt x="264" y="466" on="0"/>
        <pt x="217" y="433" on="1"/>
        <pt x="217" y="107" on="1"/>
        <pt x="259" y="91" on="0"/>
      </contour>
    </TTGlyph>
    <TTGlyph name="backslash" xMin="-3" yMin="-206" xMax="620" yMax="816">
      <contour>
        <pt x="620" y="-172" on="1"/>
        <pt x="507" y="-206" on="1"/>
        <pt x="-3" y="771" on="1"/>
        <pt x="104" y="816" on="1"/>
      </contour>
    </TTGlyph>
    <TTGlyph name="bar" xMin="255" yMin="-203" xMax="371" yMax="797">
      <contour>
        <pt x="371" y="797" on="1"/>
        <pt x="371" y="-203" on="1"/>
        <pt x="255" y="-203" on="1"/>
        <pt x="255" y="787" on="1"/>
      </contour>
    </TTGlyph>
    <TTGlyph name="braceleft" xMin="100" yMin="-236" xMax="547" yMax="814">
      <contour>
        <pt x="504" y="-236" on="1"/>
        <pt x="407" y="-205" on="0"/>
        <pt x="275" y="-153" on="0"/>
        <pt x="195" y="-102" on="0"/>
        <pt x="160" y="-50" on="0"/>
        <pt x="160" y="-18" on="1"/>
        <pt x="160" y="15" on="0"/>
        <pt x="192" y="67" on="0"/>
        <pt x="229" y="111" on="0"/>
        <pt x="261" y="149" on="0"/>
        <pt x="261" y="168" on="1"/>
        <pt x="261" y="197" on="0"/>
        <pt x="183" y="238" on="0"/>
        <pt x="100" y="245" on="1"/>
        <pt x="104" y="332" on="1"/>
        <pt x="152" y="337" on="0"/>
        <pt x="215" y="349" on="0"/>
        <pt x="253" y="364" on="0"/>
        <pt x="269" y="383" on="0"/>
        <pt x="269" y="394" on="1"/>
        <pt x="269" y="411" on="0"/>
        <pt x="235" y="447" on="0"/>
        <pt x="193" y="489" on="0"/>
        <pt x="158" y="538" on="0"/>
        <pt x="158" y="570" on="1"/>
        <pt x="158" y="600" on="0"/>
        <pt x="194" y="660" on="0"/>
        <pt x="276" y="721" on="0"/>
        <pt x="410" y="783" on="0"/>
        <pt x="508" y="814" on="1"/>
        <pt x="547" y="714" on="1"/>
        <pt x="406" y="676" on="0"/>
        <pt x="277" y="613" on="0"/>
        <pt x="277" y="580" on="1"/>
        <pt x="277" y="561" on="0"/>
        <pt x="309" y="521" on="0"/>
        <pt x="346" y="480" on="0"/>
        <pt x="378" y="436" on="0"/>
        <pt x="378" y="412" on="1"/>
        <pt x="378" y="381" on="0"/>
        <pt x="322" y="319" on="0"/>
        <pt x="253" y="297" on="1"/>
        <pt x="322" y="279" on="0"/>
        <pt x="378" y="218" on="0"/>
        <pt x="378" y="186" on="1"/>
        <pt x="378" y="160" on="0"/>
        <pt x="348" y="115" on="0"/>
        <pt x="313" y="74" on="0"/>
        <pt x="283" y="33" on="0"/>
        <pt x="283" y="11" on="1"/>
        <pt x="283" y="-31" on="0"/>
        <pt x="410" y="-98" on="0"/>
        <pt x="545" y="-138" on="1"/>
        <pt x="504" y="-236" on="1"/>
      </contour>
    </TTGlyph>
    <TTGlyph name="braceleft.cap" xMin="100" yMin="-184" xMax="547" yMax="866">
      <component glyphName="braceleft" x="0" y="52" flags="0x204"/>
    </TTGlyph>
    <TTGlyph name="braceright" xMin="80" yMin="-235" xMax="527" yMax="815">
      <contour>
        <pt x="80" y="-135" on="1"/>
        <pt x="220" y="-97" on="0"/>
        <pt x="350" y="-34" on="0"/>
        <pt x="350" y="-1" on="1"/>
        <pt x="350" y="18" on="0"/>
        <pt x="318" y="57" on="0"/>
        <pt x="280" y="99" on="0"/>
        <pt x="248" y="142" on="0"/>
        <pt x="248" y="166" on="1"/>
        <pt x="248" y="198" on="0"/>
        <pt x="306" y="261" on="0"/>
        <pt x="375" y="282" on="1"/>
        <pt x="305" y="300" on="0"/>
        <pt x="248" y="361" on="0"/>
        <pt x="248" y="393" on="1"/>
        <pt x="248" y="419" on="0"/>
        <pt x="278" y="464" on="0"/>
        <pt x="313" y="505" on="0"/>
        <pt x="343" y="546" on="0"/>
        <pt x="343" y="568" on="1"/>
        <pt x="343" y="610" on="0"/>
        <pt x="217" y="677" on="0"/>
        <pt x="82" y="717" on="1"/>
        <pt x="123" y="815" on="1"/>
        <pt x="220" y="784" on="0"/>
        <pt x="351" y="732" on="0"/>
        <pt x="431" y="681" on="0"/>
        <pt x="466" y="628" on="0"/>
        <pt x="466" y="597" on="1"/>
        <pt x="466" y="564" on="0"/>
        <pt x="434" y="511" on="0"/>
        <pt x="397" y="467" on="0"/>
        <pt x="365" y="429" on="0"/>
        <pt x="365" y="411" on="1"/>
        <pt x="365" y="382" on="0"/>
        <pt x="444" y="341" on="0"/>
        <pt x="527" y="334" on="1"/>
        <pt x="522" y="247" on="1"/>
        <pt x="475" y="242" on="0"/>
        <pt x="411" y="230" on="0"/>
        <pt x="373" y="215" on="0"/>
        <pt x="357" y="196" on="0"/>
        <pt x="357" y="185" on="1"/>
        <pt x="357" y="168" on="0"/>
        <pt x="392" y="132" on="0"/>
        <pt x="433" y="91" on="0"/>
        <pt x="468" y="40" on="0"/>
        <pt x="468" y="8" on="1"/>
        <pt x="468" y="-22" on="0"/>
        <pt x="432" y="-82" on="0"/>
        <pt x="350" y="-142" on="0"/>
        <pt x="217" y="-204" on="0"/>
        <pt x="119" y="-235" on="1"/>
      </contour>
    </TTGlyph>
    <TTGlyph name="braceright.cap" xMin="80" yMin="-184" xMax="527" yMax="866">
      <component glyphName="braceright" x="0" y="51" flags="0x204"/>
    </TTGlyph>
    <TTGlyph name="bracketleft" xMin="150" yMin="-199" xMax="529" yMax="775">
      <contour>
        <pt x="150" y="775" on="1"/>
        <pt x="523" y="775" on="1"/>
        <pt x="523" y="677" on="1"/>
        <pt x="268" y="677" on="1"/>
        <pt x="268" y="-101" on="1"/>
        <pt x="529" y="-101" on="1"/>
        <pt x="518" y="-199" on="1"/>
        <pt x="150" y="-199" on="1"/>
      </contour>
    </TTGlyph>
    <TTGlyph name="bracketleft.cap" xMin="150" yMin="-147" xMax="529" yMax="827">
      <component glyphName="bracketleft" x="0" y="52" flags="0x204"/>
    </TTGlyph>
    <TTGlyph name="bracketright" xMin="100" yMin="-199" xMax="475" yMax="775">
      <contour>
        <pt x="358" y="-101" on="1"/>
        <pt x="358" y="677" on="1"/>
        <pt x="104" y="677" on="1"/>
        <pt x="104" y="775" on="1"/>
        <pt x="475" y="775" on="1"/>
        <pt x="475" y="-199" on="1"/>
        <pt x="100" y="-199" on="1"/>
        <pt x="107" y="-101" on="1"/>
      </contour>
    </TTGlyph>
    <TTGlyph name="bracketright.cap" xMin="100" yMin="-147" xMax="475" yMax="827">
      <component glyphName="bracketright" x="0" y="52" flags="0x204"/>
    </TTGlyph>
    <TTGlyph name="breve" xMin="94" yMin="626" xMax="532" yMax="838">
      <contour>
        <pt x="309" y="626" on="1"/>
        <pt x="248" y="626" on="0"/>
        <pt x="139" y="707" on="0"/>
        <pt x="94" y="788" on="1"/>
        <pt x="179" y="838" on="1"/>
        <pt x="217" y="778" on="0"/>
        <pt x="282" y="724" on="0"/>
        <pt x="320" y="724" on="1"/>
        <pt x="361" y="724" on="0"/>
        <pt x="426" y="780" on="0"/>
        <pt x="462" y="833" on="1"/>
        <pt x="532" y="796" on="1"/>
        <pt x="485" y="717" on="0"/>
        <pt x="372" y="626" on="0"/>
      </contour>
    </TTGlyph>
    <TTGlyph name="breve.cap" xMin="94" yMin="626" xMax="532" yMax="838">
      <contour>
        <pt x="309" y="626" on="1"/>
        <pt x="248" y="626" on="0"/>
        <pt x="139" y="707" on="0"/>
        <pt x="94" y="788" on="1"/>
        <pt x="179" y="838" on="1"/>
        <pt x="217" y="778" on="0"/>
        <pt x="282" y="724" on="0"/>
        <pt x="320" y="724" on="1"/>
        <pt x="361" y="724" on="0"/>
        <pt x="426" y="780" on="0"/>
        <pt x="462" y="833" on="1"/>
        <pt x="532" y="796" on="1"/>
        <pt x="485" y="717" on="0"/>
        <pt x="372" y="626" on="0"/>
      </contour>
    </TTGlyph>
    <TTGlyph name="bullet" xMin="152" yMin="175" xMax="471" yMax="486">
      <contour>
        <pt x="471" y="333" on="1"/>
        <pt x="471" y="297" on="0"/>
        <pt x="445" y="239" on="0"/>
        <pt x="402" y="197" on="0"/>
        <pt x="343" y="175" on="0"/>
        <pt x="310" y="175" on="1"/>
        <pt x="276" y="175" on="0"/>
        <pt x="218" y="197" on="0"/>
        <pt x="176" y="238" on="0"/>
        <pt x="152" y="294" on="0"/>
        <pt x="152" y="329" on="1"/>
        <pt x="152" y="365" on="0"/>
        <pt x="178" y="423" on="0"/>
        <pt x="222" y="464" on="0"/>
        <pt x="282" y="486" on="0"/>
        <pt x="315" y="486" on="1"/>
        <pt x="349" y="486" on="0"/>
        <pt x="406" y="464" on="0"/>
        <pt x="448" y="424" on="0"/>
        <pt x="471" y="367" on="0"/>
      </contour>
    </TTGlyph>
    <TTGlyph name="bullet.alt" xMin="177" yMin="197" xMax="447" yMax="466">
      <contour>
        <pt x="177" y="197" on="1"/>
        <pt x="179" y="466" on="1"/>
        <pt x="447" y="466" on="1"/>
        <pt x="445" y="197" on="1"/>
      </contour>
    </TTGlyph>
    <TTGlyph name="c" xMin="87" yMin="-8" xMax="535" yMax="561">
      <contour>
        <pt x="527" y="444" on="1"/>
        <pt x="423" y="447" on="0"/>
        <pt x="298" y="428" on="0"/>
        <pt x="231" y="386" on="0"/>
        <pt x="209" y="323" on="0"/>
        <pt x="209" y="283" on="1"/>
        <pt x="209" y="235" on="0"/>
        <pt x="235" y="164" on="0"/>
        <pt x="295" y="118" on="0"/>
        <pt x="394" y="95" on="0"/>
        <pt x="468" y="95" on="1"/>
        <pt x="484" y="95" on="0"/>
        <pt x="517" y="96" on="0"/>
        <pt x="535" y="97" on="1"/>
        <pt x="523" y="-4" on="1"/>
        <pt x="498" y="-6" on="0"/>
        <pt x="453" y="-8" on="0"/>
        <pt x="432" y="-8" on="1"/>
        <pt x="331" y="-8" on="0"/>
        <pt x="198" y="34" on="0"/>
        <pt x="119" y="108" on="0"/>
        <pt x="87" y="209" on="0"/>
        <pt x="87" y="267" on="1"/>
        <pt x="87" y="325" on="0"/>
        <pt x="129" y="430" on="0"/>
        <pt x="229" y="511" on="0"/>
        <pt x="395" y="560" on="0"/>
        <pt x="519" y="561" on="1"/>
        <pt x="527" y="444" on="1"/>
      </contour>
    </TTGlyph>
    <TTGlyph name="cacute" xMin="87" yMin="-8" xMax="535" yMax="871">
      <component glyphName="acute" x="37" y="0" flags="0x204"/>
      <component glyphName="c" x="0" y="0" flags="0x4"/>
    </TTGlyph>
    <TTGlyph name="caron" xMin="105" yMin="615" xMax="518" yMax="844">
      <contour>
        <pt x="309" y="615" on="1"/>
        <pt x="105" y="771" on="1"/>
        <pt x="181" y="844" on="1"/>
        <pt x="322" y="729" on="1"/>
        <pt x="460" y="843" on="1"/>
        <pt x="518" y="784" on="1"/>
        <pt x="317" y="615" on="1"/>
      </contour>
    </TTGlyph>
    <TTGlyph name="caron.alt" xMin="223" yMin="612" xMax="363" yMax="895">
      <contour>
        <pt x="223" y="628" on="1"/>
        <pt x="234" y="666" on="0"/>
        <pt x="243" y="735" on="0"/>
        <pt x="243" y="770" on="1"/>
        <pt x="243" y="801" on="0"/>
        <pt x="236" y="862" on="0"/>
        <pt x="230" y="893" on="1"/>
        <pt x="361" y="895" on="1"/>
        <pt x="362" y="889" on="0"/>
        <pt x="363" y="877" on="0"/>
        <pt x="363" y="871" on="1"/>
        <pt x="363" y="801" on="0"/>
        <pt x="322" y="677" on="0"/>
        <pt x="278" y="612" on="1"/>
        <pt x="223" y="628" on="1"/>
      </contour>
    </TTGlyph>
    <TTGlyph name="caron.cap" xMin="105" yMin="615" xMax="518" yMax="844">
      <contour>
        <pt x="309" y="615" on="1"/>
        <pt x="105" y="771" on="1"/>
        <pt x="181" y="844" on="1"/>
        <pt x="322" y="729" on="1"/>
        <pt x="460" y="843" on="1"/>
        <pt x="518" y="784" on="1"/>
        <pt x="317" y="615" on="1"/>
      </contour>
    </TTGlyph>
    <TTGlyph name="ccaron" xMin="87" yMin="-8" xMax="547" yMax="844">
      <component glyphName="caron" x="29" y="0" flags="0x204"/>
      <component glyphName="c" x="0" y="0" flags="0x4"/>
    </TTGlyph>
    <TTGlyph name="ccedilla" xMin="87" yMin="-255" xMax="535" yMax="561">
      <contour>
        <pt x="527" y="444" on="1"/>
        <pt x="423" y="447" on="0"/>
        <pt x="298" y="428" on="0"/>
        <pt x="231" y="386" on="0"/>
        <pt x="209" y="323" on="0"/>
        <pt x="209" y="283" on="1"/>
        <pt x="209" y="235" on="0"/>
        <pt x="235" y="164" on="0"/>
        <pt x="295" y="118" on="0"/>
        <pt x="394" y="95" on="0"/>
        <pt x="468" y="95" on="1"/>
        <pt x="484" y="95" on="0"/>
        <pt x="517" y="96" on="0"/>
        <pt x="535" y="97" on="1"/>
        <pt x="523" y="-4" on="1"/>
        <pt x="499" y="-6" on="0"/>
        <pt x="454" y="-8" on="0"/>
        <pt x="434" y="-8" on="1"/>
        <pt x="411" y="-8" on="0"/>
        <pt x="370" y="-6" on="0"/>
        <pt x="350" y="-4" on="1"/>
        <pt x="413" y="-37" on="0"/>
        <pt x="465" y="-101" on="0"/>
        <pt x="465" y="-131" on="1"/>
        <pt x="465" y="-177" on="0"/>
        <pt x="353" y="-244" on="0"/>
        <pt x="241" y="-255" on="1"/>
        <pt x="233" y="-161" on="1"/>
        <pt x="299" y="-153" on="0"/>
        <pt x="355" y="-132" on="0"/>
        <pt x="355" y="-116" on="1"/>
        <pt x="355" y="-82" on="0"/>
        <pt x="257" y="-32" on="1"/>
        <pt x="275" y="10" on="1"/>
        <pt x="221" y="25" on="0"/>
        <pt x="149" y="75" on="0"/>
        <pt x="106" y="142" on="0"/>
        <pt x="87" y="222" on="0"/>
        <pt x="87" y="267" on="1"/>
        <pt x="87" y="325" on="0"/>
        <pt x="129" y="430" on="0"/>
        <pt x="229" y="511" on="0"/>
        <pt x="395" y="560" on="0"/>
        <pt x="519" y="561" on="1"/>
        <pt x="527" y="444" on="1"/>
      </contour>
    </TTGlyph>
    <TTGlyph name="cdotaccent" xMin="87" yMin="-8" xMax="535" yMax="791">
      <component glyphName="c" x="0" y="0" flags="0x204"/>
      <component glyphName="dotaccent" x="27" y="0" flags="0x4"/>
    </TTGlyph>
    <TTGlyph name="cedilla" xMin="229" yMin="-246" xMax="461" yMax="36">
      <contour>
        <pt x="279" y="36" on="1"/>
        <pt x="379" y="-5" on="0"/>
        <pt x="461" y="-85" on="0"/>
        <pt x="461" y="-122" on="1"/>
        <pt x="461" y="-168" on="0"/>
        <pt x="349" y="-235" on="0"/>
        <pt x="237" y="-246" on="1"/>
        <pt x="229" y="-152" on="1"/>
        <pt x="295" y="-144" on="0"/>
        <pt x="351" y="-123" on="0"/>
        <pt x="351" y="-107" on="1"/>
        <pt x="351" y="-73" on="0"/>
        <pt x="253" y="-23" on="1"/>
      </contour>
    </TTGlyph>
    <TTGlyph name="cedilla.cap" xMin="229" yMin="-246" xMax="461" yMax="36">
      <contour>
        <pt x="279" y="36" on="1"/>
        <pt x="379" y="-5" on="0"/>
        <pt x="461" y="-85" on="0"/>
        <pt x="461" y="-122" on="1"/>
        <pt x="461" y="-168" on="0"/>
        <pt x="349" y="-235" on="0"/>
        <pt x="237" y="-246" on="1"/>
        <pt x="229" y="-152" on="1"/>
        <pt x="295" y="-144" on="0"/>
        <pt x="351" y="-123" on="0"/>
        <pt x="351" y="-107" on="1"/>
        <pt x="351" y="-73" on="0"/>
        <pt x="253" y="-23" on="1"/>
      </contour>
    </TTGlyph>
    <TTGlyph name="cent" xMin="83" yMin="-93" xMax="543" yMax="688">
      <contour>
        <pt x="200" y="307" on="1"/>
        <pt x="200" y="261" on="0"/>
        <pt x="249" y="194" on="0"/>
        <pt x="303" y="173" on="1"/>
        <pt x="336" y="430" on="1"/>
        <pt x="295" y="424" on="0"/>
        <pt x="242" y="400" on="0"/>
        <pt x="212" y="368" on="0"/>
        <pt x="200" y="328" on="0"/>
      </contour>
      <contour>
        <pt x="505" y="34" on="1"/>
        <pt x="435" y="37" on="0"/>
        <pt x="376" y="46" on="1"/>
        <pt x="361" y="-93" on="1"/>
        <pt x="255" y="-93" on="1"/>
        <pt x="278" y="67" on="1"/>
        <pt x="224" y="83" on="0"/>
        <pt x="150" y="130" on="0"/>
        <pt x="104" y="188" on="0"/>
        <pt x="83" y="255" on="0"/>
        <pt x="83" y="293" on="1"/>
        <pt x="83" y="332" on="0"/>
        <pt x="106" y="408" on="0"/>
        <pt x="164" y="473" on="0"/>
        <pt x="261" y="523" on="0"/>
        <pt x="335" y="535" on="1"/>
        <pt x="352" y="688" on="1"/>
        <pt x="459" y="688" on="1"/>
        <pt x="439" y="544" on="1"/>
        <pt x="463" y="545" on="0"/>
        <pt x="514" y="545" on="0"/>
        <pt x="543" y="543" on="1"/>
        <pt x="529" y="430" on="1"/>
        <pt x="466" y="436" on="0"/>
        <pt x="418" y="436" on="1"/>
        <pt x="382" y="151" on="1"/>
        <pt x="411" y="146" on="0"/>
        <pt x="479" y="139" on="0"/>
        <pt x="518" y="137" on="1"/>
      </contour>
    </TTGlyph>
    <TTGlyph name="check.1" xMin="69" yMin="-24" xMax="584" yMax="764">
      <contour>
        <pt x="584" y="726" on="1"/>
        <pt x="513" y="555" on="0"/>
        <pt x="396" y="186" on="0"/>
        <pt x="347" y="-18" on="1"/>
        <pt x="240" y="-24" on="1"/>
        <pt x="69" y="364" on="1"/>
        <pt x="175" y="410" on="1"/>
        <pt x="286" y="140" on="1"/>
        <pt x="292" y="140" on="1"/>
        <pt x="326" y="316" on="0"/>
        <pt x="410" y="629" on="0"/>
        <pt x="459" y="764" on="1"/>
        <pt x="584" y="726" on="1"/>
      </contour>
    </TTGlyph>
    <TTGlyph name="check.2" xMin="90" yMin="-17" xMax="568" yMax="767">
      <contour>
        <pt x="204" y="578" on="1"/>
        <pt x="289" y="396" on="1"/>
        <pt x="448" y="767" on="1"/>
        <pt x="568" y="724" on="1"/>
        <pt x="352" y="302" on="1"/>
        <pt x="501" y="15" on="1"/>
        <pt x="383" y="-11" on="1"/>
        <pt x="283" y="201" on="1"/>
        <pt x="172" y="-17" on="1"/>
        <pt x="92" y="10" on="1"/>
        <pt x="223" y="287" on="1"/>
        <pt x="90" y="537" on="1"/>
      </contour>
    </TTGlyph>
    <TTGlyph name="circumflex" xMin="105" yMin="622" xMax="518" yMax="850">
      <contour>
        <pt x="302" y="736" on="1"/>
        <pt x="164" y="623" on="1"/>
        <pt x="105" y="681" on="1"/>
        <pt x="307" y="850" on="1"/>
        <pt x="314" y="850" on="1"/>
        <pt x="518" y="694" on="1"/>
        <pt x="443" y="622" on="1"/>
      </contour>
    </TTGlyph>
    <TTGlyph name="circumflex.cap" xMin="105" yMin="622" xMax="518" yMax="850">
      <contour>
        <pt x="302" y="736" on="1"/>
        <pt x="164" y="623" on="1"/>
        <pt x="105" y="681" on="1"/>
        <pt x="307" y="850" on="1"/>
        <pt x="314" y="850" on="1"/>
        <pt x="518" y="694" on="1"/>
        <pt x="443" y="622" on="1"/>
      </contour>
    </TTGlyph>
    <TTGlyph name="colon" xMin="223" yMin="0" xMax="403" yMax="512">
      <contour>
        <pt x="233" y="356" on="1"/>
        <pt x="235" y="512" on="1"/>
        <pt x="403" y="512" on="1"/>
        <pt x="401" y="356" on="1"/>
      </contour>
      <contour>
        <pt x="223" y="0" on="1"/>
        <pt x="228" y="155" on="1"/>
        <pt x="397" y="155" on="1"/>
        <pt x="392" y="0" on="1"/>
      </contour>
    </TTGlyph>
    <TTGlyph name="colon.alt" xMin="229" yMin="88" xMax="403" yMax="600">
      <contour>
        <pt x="233" y="444" on="1"/>
        <pt x="235" y="600" on="1"/>
        <pt x="403" y="600" on="1"/>
        <pt x="401" y="444" on="1"/>
      </contour>
      <contour>
        <pt x="229" y="88" on="1"/>
        <pt x="230" y="243" on="1"/>
        <pt x="399" y="243" on="1"/>
        <pt x="397" y="88" on="1"/>
      </contour>
    </TTGlyph>
    <TTGlyph name="colonmonetary" xMin="70" yMin="-82" xMax="568" yMax="769">
      <contour>
        <pt x="409" y="542" on="1"/>
        <pt x="389" y="539" on="0"/>
        <pt x="353" y="532" on="0"/>
        <pt x="336" y="528" on="1"/>
        <pt x="304" y="170" on="1"/>
        <pt x="333" y="160" on="0"/>
        <pt x="375" y="151" on="1"/>
      </contour>
      <contour>
        <pt x="180" y="350" on="1"/>
        <pt x="180" y="298" on="0"/>
        <pt x="210" y="227" on="0"/>
        <pt x="242" y="203" on="1"/>
        <pt x="268" y="502" on="1"/>
        <pt x="218" y="476" on="0"/>
        <pt x="180" y="401" on="0"/>
      </contour>
      <contour>
        <pt x="358" y="47" on="1"/>
        <pt x="325" y="53" on="0"/>
        <pt x="294" y="62" on="1"/>
        <pt x="281" y="-82" on="1"/>
        <pt x="197" y="-82" on="1"/>
        <pt x="215" y="92" on="1"/>
        <pt x="140" y="128" on="0"/>
        <pt x="70" y="243" on="0"/>
        <pt x="70" y="331" on="1"/>
        <pt x="70" y="373" on="0"/>
        <pt x="89" y="454" on="0"/>
        <pt x="134" y="525" on="0"/>
        <pt x="207" y="586" on="0"/>
        <pt x="262" y="609" on="1"/>
        <pt x="274" y="769" on="1"/>
        <pt x="358" y="769" on="1"/>
        <pt x="346" y="637" on="1"/>
        <pt x="361" y="641" on="0"/>
        <pt x="394" y="648" on="0"/>
        <pt x="412" y="651" on="1"/>
        <pt x="422" y="769" on="1"/>
        <pt x="505" y="769" on="1"/>
        <pt x="495" y="661" on="1"/>
        <pt x="511" y="663" on="0"/>
        <pt x="544" y="664" on="0"/>
        <pt x="562" y="665" on="1"/>
        <pt x="568" y="555" on="1"/>
        <pt x="542" y="554" on="0"/>
        <pt x="496" y="552" on="0"/>
        <pt x="475" y="550" on="1"/>
        <pt x="439" y="140" on="1"/>
        <pt x="462" y="137" on="0"/>
        <pt x="512" y="131" on="0"/>
        <pt x="539" y="128" on="1"/>
        <pt x="517" y="24" on="1"/>
        <pt x="475" y="28" on="0"/>
        <pt x="439" y="33" on="1"/>
        <pt x="429" y="-82" on="1"/>
        <pt x="346" y="-82" on="1"/>
      </contour>
    </TTGlyph>
    <TTGlyph name="comma" xMin="204" yMin="-191" xMax="398" yMax="165">
      <contour>
        <pt x="204" y="-172" on="1"/>
        <pt x="231" y="-137" on="0"/>
        <pt x="259" y="-49" on="0"/>
        <pt x="259" y="1" on="1"/>
        <pt x="259" y="39" on="0"/>
        <pt x="242" y="119" on="0"/>
        <pt x="223" y="157" on="1"/>
        <pt x="380" y="165" on="1"/>
        <pt x="398" y="120" on="0"/>
        <pt x="398" y="72" on="1"/>
        <pt x="398" y="35" on="0"/>
        <pt x="379" y="-37" on="0"/>
        <pt x="344" y="-105" on="0"/>
        <pt x="297" y="-166" on="0"/>
        <pt x="270" y="-191" on="1"/>
        <pt x="204" y="-172" on="1"/>
      </contour>
    </TTGlyph>
    <TTGlyph name="commaaccent" xMin="230" yMin="-315" xMax="381" yMax="-72">
      <contour>
        <pt x="230" y="-296" on="1"/>
        <pt x="241" y="-268" on="0"/>
        <pt x="250" y="-212" on="0"/>
        <pt x="250" y="-184" on="1"/>
        <pt x="250" y="-156" on="0"/>
        <pt x="242" y="-104" on="0"/>
        <pt x="234" y="-79" on="1"/>
        <pt x="235" y="-79" on="0"/>
        <pt x="280" y="-77" on="0"/>
        <pt x="334" y="-74" on="0"/>
        <pt x="380" y="-72" on="0"/>
        <pt x="381" y="-72" on="1"/>
        <pt x="381" y="-87" on="1"/>
        <pt x="381" y="-146" on="0"/>
        <pt x="336" y="-270" on="0"/>
        <pt x="292" y="-315" on="1"/>
        <pt x="230" y="-296" on="1"/>
      </contour>
    </TTGlyph>
    <TTGlyph name="commaaccent.cap" xMin="230" yMin="-315" xMax="381" yMax="-72">
      <contour>
        <pt x="230" y="-296" on="1"/>
        <pt x="241" y="-268" on="0"/>
        <pt x="250" y="-212" on="0"/>
        <pt x="250" y="-184" on="1"/>
        <pt x="250" y="-156" on="0"/>
        <pt x="242" y="-104" on="0"/>
        <pt x="234" y="-79" on="1"/>
        <pt x="235" y="-79" on="0"/>
        <pt x="280" y="-77" on="0"/>
        <pt x="334" y="-74" on="0"/>
        <pt x="380" y="-72" on="0"/>
        <pt x="381" y="-72" on="1"/>
        <pt x="381" y="-87" on="1"/>
        <pt x="381" y="-146" on="0"/>
        <pt x="336" y="-270" on="0"/>
        <pt x="292" y="-315" on="1"/>
        <pt x="230" y="-296" on="1"/>
      </contour>
    </TTGlyph>
    <TTGlyph name="commaaccent.rot" xMin="251" yMin="638" xMax="404" yMax="880">
      <contour>
        <pt x="404" y="861" on="1"/>
        <pt x="382" y="806" on="0"/>
        <pt x="383" y="695" on="0"/>
        <pt x="400" y="644" on="1"/>
        <pt x="253" y="638" on="1"/>
        <pt x="251" y="669" on="0"/>
        <pt x="260" y="735" on="0"/>
        <pt x="283" y="798" on="0"/>
        <pt x="317" y="856" on="0"/>
        <pt x="341" y="880" on="1"/>
      </contour>
    </TTGlyph>
    <TTGlyph name="copyright" xMin="49" yMin="8" xMax="576" yMax="680">
      <contour>
        <pt x="576" y="349" on="1"/>
        <pt x="576" y="268" on="0"/>
        <pt x="536" y="141" on="0"/>
        <pt x="467" y="54" on="0"/>
        <pt x="371" y="8" on="0"/>
        <pt x="316" y="8" on="1"/>
        <pt x="258" y="8" on="0"/>
        <pt x="160" y="51" on="0"/>
        <pt x="89" y="135" on="0"/>
        <pt x="49" y="259" on="0"/>
        <pt x="49" y="340" on="1"/>
        <pt x="49" y="417" on="0"/>
        <pt x="91" y="542" on="0"/>
        <pt x="165" y="631" on="0"/>
        <pt x="265" y="680" on="0"/>
        <pt x="323" y="680" on="1"/>
        <pt x="378" y="680" on="0"/>
        <pt x="471" y="634" on="0"/>
        <pt x="539" y="549" on="0"/>
        <pt x="576" y="426" on="0"/>
      </contour>
      <contour>
        <pt x="118" y="344" on="1"/>
        <pt x="118" y="276" on="0"/>
        <pt x="149" y="174" on="0"/>
        <pt x="203" y="106" on="0"/>
        <pt x="277" y="72" on="0"/>
        <pt x="320" y="72" on="1"/>
        <pt x="404" y="72" on="0"/>
        <pt x="507" y="207" on="0"/>
        <pt x="507" y="344" on="1"/>
        <pt x="507" y="409" on="0"/>
        <pt x="480" y="510" on="0"/>
        <pt x="431" y="580" on="0"/>
        <pt x="363" y="616" on="0"/>
        <pt x="321" y="616" on="1"/>
        <pt x="277" y="616" on="0"/>
        <pt x="202" y="580" on="0"/>
        <pt x="148" y="510" on="0"/>
        <pt x="118" y="409" on="0"/>
      </contour>
      <contour>
        <pt x="393" y="168" on="1"/>
        <pt x="387" y="167" on="0"/>
        <pt x="375" y="167" on="0"/>
        <pt x="369" y="167" on="1"/>
        <pt x="321" y="167" on="0"/>
        <pt x="257" y="194" on="0"/>
        <pt x="217" y="241" on="0"/>
        <pt x="200" y="306" on="0"/>
        <pt x="200" y="344" on="1"/>
        <pt x="200" y="379" on="0"/>
        <pt x="219" y="442" on="0"/>
        <pt x="264" y="490" on="0"/>
        <pt x="338" y="522" on="0"/>
        <pt x="392" y="525" on="1"/>
        <pt x="398" y="441" on="1"/>
        <pt x="361" y="441" on="0"/>
        <pt x="316" y="429" on="0"/>
        <pt x="292" y="407" on="0"/>
        <pt x="284" y="373" on="0"/>
        <pt x="284" y="352" on="1"/>
        <pt x="284" y="296" on="0"/>
        <pt x="328" y="244" on="0"/>
        <pt x="390" y="244" on="1"/>
        <pt x="401" y="244" on="1"/>
      </contour>
    </TTGlyph>
    <TTGlyph name="d" xMin="61" yMin="-14" xMax="537" yMax="789">
      <contour>
        <pt x="314" y="87" on="1"/>
        <pt x="342" y="87" on="0"/>
        <pt x="389" y="105" on="0"/>
        <pt x="409" y="121" on="1"/>
        <pt x="407" y="186" on="0"/>
        <pt x="406" y="347" on="0"/>
        <pt x="405" y="448" on="1"/>
        <pt x="361" y="462" on="0"/>
        <pt x="327" y="462" on="1"/>
        <pt x="263" y="462" on="0"/>
        <pt x="183" y="369" on="0"/>
        <pt x="183" y="278" on="1"/>
        <pt x="183" y="179" on="0"/>
        <pt x="256" y="87" on="0"/>
      </contour>
      <contour>
        <pt x="416" y="53" on="1"/>
        <pt x="388" y="25" on="0"/>
        <pt x="312" y="-14" on="0"/>
        <pt x="264" y="-14" on="1"/>
        <pt x="220" y="-14" on="0"/>
        <pt x="146" y="21" on="0"/>
        <pt x="92" y="88" on="0"/>
        <pt x="61" y="185" on="0"/>
        <pt x="61" y="247" on="1"/>
        <pt x="61" y="323" on="0"/>
        <pt x="111" y="443" on="0"/>
        <pt x="198" y="524" on="0"/>
        <pt x="314" y="567" on="0"/>
        <pt x="380" y="567" on="1"/>
        <pt x="386" y="567" on="0"/>
        <pt x="399" y="567" on="0"/>
        <pt x="405" y="566" on="1"/>
        <pt x="405" y="778" on="1"/>
        <pt x="528" y="789" on="1"/>
        <pt x="528" y="554" on="1"/>
        <pt x="528" y="457" on="0"/>
        <pt x="529" y="295" on="0"/>
        <pt x="531" y="160" on="0"/>
        <pt x="534" y="49" on="0"/>
        <pt x="537" y="3" on="1"/>
        <pt x="423" y="-3" on="1"/>
      </contour>
    </TTGlyph>
    <TTGlyph name="dagger" xMin="79" yMin="113" xMax="552" yMax="776">
      <contour>
        <pt x="275" y="113" on="1"/>
        <pt x="256" y="122" on="1"/>
        <pt x="257" y="513" on="1"/>
        <pt x="79" y="516" on="1"/>
        <pt x="84" y="614" on="1"/>
        <pt x="257" y="611" on="1"/>
        <pt x="257" y="776" on="1"/>
        <pt x="374" y="775" on="1"/>
        <pt x="372" y="609" on="1"/>
        <pt x="552" y="606" on="1"/>
        <pt x="546" y="509" on="1"/>
        <pt x="369" y="512" on="1"/>
        <pt x="349" y="150" on="1"/>
      </contour>
    </TTGlyph>
    <TTGlyph name="daggerdbl" xMin="72" yMin="55" xMax="552" yMax="776">
      <contour>
        <pt x="276" y="55" on="1"/>
        <pt x="257" y="64" on="1"/>
        <pt x="257" y="293" on="1"/>
        <pt x="72" y="296" on="1"/>
        <pt x="77" y="389" on="1"/>
        <pt x="257" y="386" on="1"/>
        <pt x="257" y="517" on="1"/>
        <pt x="79" y="520" on="1"/>
        <pt x="84" y="614" on="1"/>
        <pt x="257" y="611" on="1"/>
        <pt x="257" y="776" on="1"/>
        <pt x="374" y="775" on="1"/>
        <pt x="372" y="609" on="1"/>
        <pt x="552" y="606" on="1"/>
        <pt x="546" y="513" on="1"/>
        <pt x="369" y="516" on="1"/>
        <pt x="363" y="385" on="1"/>
        <pt x="545" y="382" on="1"/>
        <pt x="539" y="289" on="1"/>
        <pt x="359" y="292" on="1"/>
        <pt x="350" y="92" on="1"/>
      </contour>
    </TTGlyph>
    <TTGlyph name="dcaron" xMin="61" yMin="-14" xMax="743" yMax="895">
      <component glyphName="caron.alt" x="380" y="0" flags="0x204"/>
      <component glyphName="d" x="0" y="0" flags="0x4"/>
    </TTGlyph>
    <TTGlyph name="dcroat" xMin="61" yMin="-14" xMax="597" yMax="783">
      <contour>
        <pt x="314" y="87" on="1"/>
        <pt x="342" y="87" on="0"/>
        <pt x="388" y="105" on="0"/>
        <pt x="408" y="120" on="1"/>
        <pt x="406" y="185" on="0"/>
        <pt x="405" y="345" on="0"/>
        <pt x="405" y="445" on="1"/>
        <pt x="361" y="459" on="0"/>
        <pt x="327" y="459" on="1"/>
        <pt x="263" y="459" on="0"/>
        <pt x="183" y="369" on="0"/>
        <pt x="183" y="278" on="1"/>
        <pt x="183" y="179" on="0"/>
        <pt x="256" y="87" on="0"/>
      </contour>
      <contour>
        <pt x="415" y="52" on="1"/>
        <pt x="387" y="25" on="0"/>
        <pt x="312" y="-14" on="0"/>
        <pt x="264" y="-14" on="1"/>
        <pt x="220" y="-14" on="0"/>
        <pt x="146" y="21" on="0"/>
        <pt x="92" y="88" on="0"/>
        <pt x="61" y="185" on="0"/>
        <pt x="61" y="247" on="1"/>
        <pt x="61" y="322" on="0"/>
        <pt x="111" y="440" on="0"/>
        <pt x="198" y="520" on="0"/>
        <pt x="313" y="562" on="0"/>
        <pt x="379" y="562" on="1"/>
        <pt x="386" y="562" on="0"/>
        <pt x="398" y="562" on="0"/>
        <pt x="405" y="561" on="1"/>
        <pt x="405" y="633" on="1"/>
        <pt x="269" y="633" on="1"/>
        <pt x="269" y="710" on="1"/>
        <pt x="405" y="710" on="1"/>
        <pt x="405" y="772" on="1"/>
        <pt x="528" y="783" on="1"/>
        <pt x="528" y="710" on="1"/>
        <pt x="597" y="710" on="1"/>
        <pt x="597" y="632" on="1"/>
        <pt x="528" y="632" on="1"/>
        <pt x="528" y="554" on="1"/>
        <pt x="528" y="457" on="0"/>
        <pt x="529" y="295" on="0"/>
        <pt x="531" y="160" on="0"/>
        <pt x="534" y="49" on="0"/>
        <pt x="537" y="3" on="1"/>
        <pt x="422" y="-3" on="1"/>
      </contour>
    </TTGlyph>
    <TTGlyph name="degree" xMin="106" yMin="334" xMax="518" yMax="757">
      <contour>
        <pt x="518" y="550" on="1"/>
        <pt x="518" y="500" on="0"/>
        <pt x="483" y="421" on="0"/>
        <pt x="425" y="364" on="0"/>
        <pt x="347" y="334" on="0"/>
        <pt x="305" y="334" on="1"/>
        <pt x="263" y="334" on="0"/>
        <pt x="190" y="363" on="0"/>
        <pt x="136" y="416" on="0"/>
        <pt x="106" y="493" on="0"/>
        <pt x="106" y="541" on="1"/>
        <pt x="106" y="590" on="0"/>
        <pt x="141" y="670" on="0"/>
        <pt x="200" y="726" on="0"/>
        <pt x="278" y="757" on="0"/>
        <pt x="320" y="757" on="1"/>
        <pt x="362" y="757" on="0"/>
        <pt x="435" y="728" on="0"/>
        <pt x="488" y="674" on="0"/>
        <pt x="518" y="598" on="0"/>
      </contour>
      <contour>
        <pt x="420" y="548" on="1"/>
        <pt x="420" y="598" on="0"/>
        <pt x="360" y="665" on="0"/>
        <pt x="312" y="665" on="1"/>
        <pt x="266" y="665" on="0"/>
        <pt x="205" y="600" on="0"/>
        <pt x="205" y="545" on="1"/>
        <pt x="205" y="493" on="0"/>
        <pt x="264" y="425" on="0"/>
        <pt x="312" y="425" on="1"/>
        <pt x="358" y="425" on="0"/>
        <pt x="420" y="491" on="0"/>
      </contour>
    </TTGlyph>
    <TTGlyph name="dieresis" xMin="128" yMin="635" xMax="502" yMax="791">
      <contour>
        <pt x="374" y="635" on="1"/>
        <pt x="376" y="791" on="1"/>
        <pt x="502" y="791" on="1"/>
        <pt x="498" y="635" on="1"/>
      </contour>
      <contour>
        <pt x="128" y="635" on="1"/>
        <pt x="129" y="791" on="1"/>
        <pt x="255" y="791" on="1"/>
        <pt x="252" y="635" on="1"/>
      </contour>
    </TTGlyph>
    <TTGlyph name="dieresis.cap" xMin="128" yMin="635" xMax="502" yMax="791">
      <contour>
        <pt x="374" y="635" on="1"/>
        <pt x="376" y="791" on="1"/>
        <pt x="502" y="791" on="1"/>
        <pt x="498" y="635" on="1"/>
      </contour>
      <contour>
        <pt x="128" y="635" on="1"/>
        <pt x="129" y="791" on="1"/>
        <pt x="255" y="791" on="1"/>
        <pt x="252" y="635" on="1"/>
      </contour>
    </TTGlyph>
    <TTGlyph name="divide" xMin="70" yMin="70" xMax="554" yMax="591">
      <contour>
        <pt x="248" y="468" on="1"/>
        <pt x="250" y="591" on="1"/>
        <pt x="378" y="591" on="1"/>
        <pt x="375" y="468" on="1"/>
      </contour>
      <contour>
        <pt x="554" y="279" on="1"/>
        <pt x="70" y="279" on="1"/>
        <pt x="70" y="382" on="1"/>
        <pt x="554" y="382" on="1"/>
      </contour>
      <contour>
        <pt x="247" y="70" on="1"/>
        <pt x="249" y="193" on="1"/>
        <pt x="377" y="193" on="1"/>
        <pt x="375" y="70" on="1"/>
      </contour>
    </TTGlyph>
    <TTGlyph name="dollar" xMin="71" yMin="-88" xMax="541" yMax="776">
      <contour>
        <pt x="222" y="505" on="1"/>
        <pt x="222" y="485" on="0"/>
        <pt x="265" y="446" on="0"/>
        <pt x="298" y="424" on="1"/>
        <pt x="322" y="553" on="1"/>
        <pt x="269" y="552" on="0"/>
        <pt x="223" y="527" on="0"/>
      </contour>
      <contour>
        <pt x="409" y="190" on="1"/>
        <pt x="409" y="210" on="0"/>
        <pt x="366" y="251" on="0"/>
        <pt x="334" y="272" on="1"/>
        <pt x="309" y="136" on="1"/>
        <pt x="362" y="139" on="0"/>
        <pt x="409" y="167" on="0"/>
      </contour>
      <contour>
        <pt x="178" y="-87" on="1"/>
        <pt x="202" y="34" on="1"/>
        <pt x="143" y="34" on="0"/>
        <pt x="71" y="43" on="1"/>
        <pt x="93" y="157" on="1"/>
        <pt x="135" y="149" on="0"/>
        <pt x="207" y="140" on="0"/>
        <pt x="238" y="138" on="1"/>
        <pt x="270" y="311" on="1"/>
        <pt x="238" y="330" on="0"/>
        <pt x="174" y="371" on="0"/>
        <pt x="123" y="416" on="0"/>
        <pt x="91" y="466" on="0"/>
        <pt x="91" y="494" on="1"/>
        <pt x="91" y="522" on="0"/>
        <pt x="117" y="575" on="0"/>
        <pt x="172" y="617" on="0"/>
        <pt x="260" y="647" on="0"/>
        <pt x="323" y="652" on="1"/>
        <pt x="345" y="776" on="1"/>
        <pt x="454" y="775" on="1"/>
        <pt x="429" y="653" on="1"/>
        <pt x="454" y="651" on="0"/>
        <pt x="506" y="647" on="0"/>
        <pt x="535" y="643" on="1"/>
        <pt x="520" y="529" on="1"/>
        <pt x="483" y="537" on="0"/>
        <pt x="419" y="546" on="0"/>
        <pt x="393" y="549" on="1"/>
        <pt x="363" y="384" on="1"/>
        <pt x="395" y="364" on="0"/>
        <pt x="458" y="323" on="0"/>
        <pt x="509" y="276" on="0"/>
        <pt x="541" y="225" on="0"/>
        <pt x="541" y="196" on="1"/>
        <pt x="541" y="168" on="0"/>
        <pt x="515" y="116" on="0"/>
        <pt x="459" y="73" on="0"/>
        <pt x="370" y="43" on="0"/>
        <pt x="307" y="37" on="1"/>
        <pt x="287" y="-88" on="1"/>
      </contour>
    </TTGlyph>
    <TTGlyph name="dotaccent" xMin="246" yMin="635" xMax="378" yMax="791">
      <contour>
        <pt x="246" y="635" on="1"/>
        <pt x="250" y="791" on="1"/>
        <pt x="378" y="791" on="1"/>
        <pt x="373" y="635" on="1"/>
      </contour>
    </TTGlyph>
    <TTGlyph name="dotaccent.cap" xMin="246" yMin="635" xMax="378" yMax="791">
      <contour>
        <pt x="246" y="635" on="1"/>
        <pt x="250" y="791" on="1"/>
        <pt x="378" y="791" on="1"/>
        <pt x="373" y="635" on="1"/>
      </contour>
    </TTGlyph>
    <TTGlyph name="dotlessi" xMin="80" yMin="0" xMax="591" yMax="552">
      <contour>
        <pt x="82" y="0" on="1"/>
        <pt x="82" y="92" on="1"/>
        <pt x="275" y="92" on="1"/>
        <pt x="275" y="457" on="1"/>
        <pt x="80" y="466" on="1"/>
        <pt x="90" y="552" on="1"/>
        <pt x="399" y="552" on="1"/>
        <pt x="399" y="92" on="1"/>
        <pt x="591" y="92" on="1"/>
        <pt x="581" y="0" on="1"/>
      </contour>
    </TTGlyph>
    <TTGlyph name="e" xMin="71" yMin="-15" xMax="552" yMax="567">
      <contour>
        <pt x="522" y="-13" on="1"/>
        <pt x="388" y="-15" on="0"/>
        <pt x="213" y="22" on="0"/>
        <pt x="111" y="94" on="0"/>
        <pt x="71" y="199" on="0"/>
        <pt x="71" y="266" on="1"/>
        <pt x="71" y="330" on="0"/>
        <pt x="114" y="440" on="0"/>
        <pt x="188" y="521" on="0"/>
        <pt x="286" y="567" on="0"/>
        <pt x="340" y="567" on="1"/>
        <pt x="443" y="567" on="0"/>
        <pt x="552" y="433" on="0"/>
        <pt x="552" y="316" on="1"/>
        <pt x="552" y="286" on="0"/>
        <pt x="549" y="253" on="1"/>
        <pt x="193" y="244" on="1"/>
        <pt x="198" y="202" on="0"/>
        <pt x="237" y="145" on="0"/>
        <pt x="316" y="109" on="0"/>
        <pt x="442" y="92" on="0"/>
        <pt x="534" y="90" on="1"/>
      </contour>
      <contour>
        <pt x="318" y="467" on="1"/>
        <pt x="261" y="467" on="0"/>
        <pt x="197" y="395" on="0"/>
        <pt x="192" y="317" on="1"/>
        <pt x="214" y="317" on="0"/>
        <pt x="276" y="319" on="0"/>
        <pt x="342" y="321" on="0"/>
        <pt x="407" y="323" on="0"/>
        <pt x="433" y="323" on="1"/>
        <pt x="431" y="391" on="0"/>
        <pt x="377" y="467" on="0"/>
      </contour>
    </TTGlyph>
    <TTGlyph name="eacute" xMin="71" yMin="-15" xMax="552" yMax="880">
      <component glyphName="acute" x="24" y="9" flags="0x204"/>
      <component glyphName="e" x="0" y="0" flags="0x4"/>
    </TTGlyph>
    <TTGlyph name="ebreve" xMin="71" yMin="-15" xMax="552" yMax="847">
      <component glyphName="e" x="0" y="0" flags="0x204"/>
      <component glyphName="breve" x="14" y="9" flags="0x4"/>
    </TTGlyph>
    <TTGlyph name="ecaron" xMin="71" yMin="-15" xMax="552" yMax="853">
      <component glyphName="caron" x="17" y="9" flags="0x204"/>
      <component glyphName="e" x="0" y="0" flags="0x4"/>
    </TTGlyph>
    <TTGlyph name="ecircumflex" xMin="71" yMin="-15" xMax="552" yMax="859">
      <component glyphName="circumflex" x="10" y="9" flags="0x204"/>
      <component glyphName="e" x="0" y="0" flags="0x4"/>
    </TTGlyph>
    <TTGlyph name="edieresis" xMin="71" yMin="-15" xMax="552" yMax="800">
      <component glyphName="dieresis" x="10" y="9" flags="0x204"/>
      <component glyphName="e" x="0" y="0" flags="0x4"/>
    </TTGlyph>
    <TTGlyph name="edotaccent" xMin="71" yMin="-15" xMax="552" yMax="800">
      <component glyphName="e" x="0" y="0" flags="0x204"/>
      <component glyphName="dotaccent" x="15" y="9" flags="0x4"/>
    </TTGlyph>
    <TTGlyph name="egrave" xMin="71" yMin="-15" xMax="552" yMax="879">
      <component glyphName="e" x="0" y="0" flags="0x204"/>
      <component glyphName="grave" x="-20" y="9" flags="0x4"/>
    </TTGlyph>
    <TTGlyph name="eight" xMin="77" yMin="-14" xMax="549" yMax="703">
      <contour>
        <pt x="300" y="-14" on="1"/>
        <pt x="252" y="-14" on="0"/>
        <pt x="170" y="10" on="0"/>
        <pt x="110" y="54" on="0"/>
        <pt x="77" y="117" on="0"/>
        <pt x="77" y="156" on="1"/>
        <pt x="77" y="216" on="0"/>
        <pt x="152" y="309" on="0"/>
        <pt x="218" y="344" on="1"/>
        <pt x="192" y="360" on="0"/>
        <pt x="145" y="397" on="0"/>
        <pt x="109" y="439" on="0"/>
        <pt x="88" y="488" on="0"/>
        <pt x="88" y="517" on="1"/>
        <pt x="88" y="551" on="0"/>
        <pt x="118" y="618" on="0"/>
        <pt x="177" y="671" on="0"/>
        <pt x="263" y="703" on="0"/>
        <pt x="320" y="703" on="1"/>
        <pt x="365" y="703" on="0"/>
        <pt x="444" y="680" on="0"/>
        <pt x="502" y="637" on="0"/>
        <pt x="535" y="576" on="0"/>
        <pt x="535" y="539" on="1"/>
        <pt x="535" y="477" on="0"/>
        <pt x="464" y="392" on="0"/>
        <pt x="401" y="360" on="1"/>
        <pt x="430" y="343" on="0"/>
        <pt x="483" y="307" on="0"/>
        <pt x="524" y="263" on="0"/>
        <pt x="549" y="211" on="0"/>
        <pt x="549" y="179" on="1"/>
        <pt x="549" y="138" on="0"/>
        <pt x="514" y="68" on="0"/>
        <pt x="450" y="16" on="0"/>
        <pt x="357" y="-14" on="0"/>
      </contour>
      <contour>
        <pt x="205" y="532" on="1"/>
        <pt x="205" y="510" on="0"/>
        <pt x="226" y="473" on="0"/>
        <pt x="262" y="440" on="0"/>
        <pt x="310" y="411" on="0"/>
        <pt x="337" y="396" on="1"/>
        <pt x="377" y="419" on="0"/>
        <pt x="421" y="481" on="0"/>
        <pt x="421" y="516" on="1"/>
        <pt x="421" y="556" on="0"/>
        <pt x="367" y="609" on="0"/>
        <pt x="312" y="609" on="1"/>
        <pt x="258" y="609" on="0"/>
        <pt x="205" y="562" on="0"/>
      </contour>
      <contour>
        <pt x="313" y="79" on="1"/>
        <pt x="367" y="79" on="0"/>
        <pt x="430" y="127" on="0"/>
        <pt x="430" y="163" on="1"/>
        <pt x="430" y="185" on="0"/>
        <pt x="405" y="224" on="0"/>
        <pt x="363" y="258" on="0"/>
        <pt x="309" y="291" on="0"/>
        <pt x="279" y="308" on="1"/>
        <pt x="238" y="283" on="0"/>
        <pt x="194" y="219" on="0"/>
        <pt x="194" y="181" on="1"/>
        <pt x="194" y="136" on="0"/>
        <pt x="252" y="79" on="0"/>
      </contour>
    </TTGlyph>
    <TTGlyph name="eight.den" xMin="134" yMin="-244" xMax="491" yMax="216">
      <component glyphName="eight.num" x="0" y="-705" flags="0x204"/>
    </TTGlyph>
    <TTGlyph name="eight.inf" xMin="134" yMin="-178" xMax="491" yMax="282">
      <component glyphName="eight.num" x="0" y="-639" flags="0x204"/>
    </TTGlyph>
    <TTGlyph name="eight.num" xMin="134" yMin="461" xMax="491" yMax="921">
      <contour>
        <pt x="303" y="461" on="1"/>
        <pt x="224" y="461" on="0"/>
        <pt x="134" y="524" on="0"/>
        <pt x="134" y="574" on="1"/>
        <pt x="134" y="612" on="0"/>
        <pt x="187" y="669" on="0"/>
        <pt x="236" y="689" on="1"/>
        <pt x="198" y="709" on="0"/>
        <pt x="142" y="762" on="0"/>
        <pt x="142" y="799" on="1"/>
        <pt x="142" y="821" on="0"/>
        <pt x="165" y="864" on="0"/>
        <pt x="209" y="899" on="0"/>
        <pt x="275" y="921" on="0"/>
        <pt x="318" y="921" on="1"/>
        <pt x="353" y="921" on="0"/>
        <pt x="413" y="905" on="0"/>
        <pt x="457" y="877" on="0"/>
        <pt x="482" y="835" on="0"/>
        <pt x="482" y="810" on="1"/>
        <pt x="482" y="773" on="0"/>
        <pt x="432" y="719" on="0"/>
        <pt x="386" y="699" on="1"/>
        <pt x="407" y="688" on="0"/>
        <pt x="445" y="665" on="0"/>
        <pt x="474" y="638" on="0"/>
        <pt x="491" y="606" on="0"/>
        <pt x="491" y="587" on="1"/>
        <pt x="491" y="562" on="0"/>
        <pt x="465" y="517" on="0"/>
        <pt x="417" y="482" on="0"/>
        <pt x="347" y="461" on="0"/>
      </contour>
      <contour>
        <pt x="239" y="805" on="1"/>
        <pt x="239" y="781" on="0"/>
        <pt x="293" y="744" on="0"/>
        <pt x="331" y="726" on="1"/>
        <pt x="358" y="740" on="0"/>
        <pt x="390" y="775" on="0"/>
        <pt x="390" y="795" on="1"/>
        <pt x="390" y="818" on="0"/>
        <pt x="351" y="850" on="0"/>
        <pt x="313" y="850" on="1"/>
        <pt x="277" y="850" on="0"/>
        <pt x="239" y="823" on="0"/>
      </contour>
      <contour>
        <pt x="312" y="532" on="1"/>
        <pt x="350" y="532" on="0"/>
        <pt x="393" y="562" on="0"/>
        <pt x="393" y="582" on="1"/>
        <pt x="393" y="594" on="0"/>
        <pt x="376" y="614" on="0"/>
        <pt x="348" y="633" on="0"/>
        <pt x="311" y="652" on="0"/>
        <pt x="291" y="661" on="1"/>
        <pt x="262" y="648" on="0"/>
        <pt x="229" y="614" on="0"/>
        <pt x="229" y="591" on="1"/>
        <pt x="229" y="566" on="0"/>
        <pt x="270" y="532" on="0"/>
      </contour>
    </TTGlyph>
    <TTGlyph name="eight.sup" xMin="134" yMin="350" xMax="491" yMax="810">
      <component glyphName="eight.num" x="0" y="-111" flags="0x204"/>
    </TTGlyph>
    <TTGlyph name="ellipsis" xMin="42" yMin="0" xMax="581" yMax="163">
      <contour>
        <pt x="448" y="0" on="1"/>
        <pt x="454" y="163" on="1"/>
        <pt x="581" y="163" on="1"/>
        <pt x="575" y="0" on="1"/>
      </contour>
      <contour>
        <pt x="245" y="0" on="1"/>
        <pt x="251" y="163" on="1"/>
        <pt x="378" y="163" on="1"/>
        <pt x="372" y="0" on="1"/>
      </contour>
      <contour>
        <pt x="42" y="0" on="1"/>
        <pt x="48" y="163" on="1"/>
        <pt x="175" y="163" on="1"/>
        <pt x="169" y="0" on="1"/>
      </contour>
    </TTGlyph>
    <TTGlyph name="emacron" xMin="71" yMin="-15" xMax="552" yMax="776">
      <component glyphName="e" x="0" y="0" flags="0x204"/>
      <component glyphName="macron" x="10" y="9" flags="0x4"/>
    </TTGlyph>
    <TTGlyph name="emdash" xMin="68" yMin="284" xMax="563" yMax="377">
      <contour>
        <pt x="556" y="284" on="1"/>
        <pt x="68" y="284" on="1"/>
        <pt x="68" y="377" on="1"/>
        <pt x="563" y="377" on="1"/>
      </contour>
    </TTGlyph>
    <TTGlyph name="endash" xMin="85" yMin="284" xMax="546" yMax="377">
      <contour>
        <pt x="535" y="284" on="1"/>
        <pt x="85" y="284" on="1"/>
        <pt x="85" y="377" on="1"/>
        <pt x="546" y="377" on="1"/>
      </contour>
    </TTGlyph>
    <TTGlyph name="eogonek" xMin="71" yMin="-246" xMax="552" yMax="567">
      <contour>
        <pt x="318" y="467" on="1"/>
        <pt x="261" y="467" on="0"/>
        <pt x="197" y="395" on="0"/>
        <pt x="192" y="317" on="1"/>
        <pt x="214" y="317" on="0"/>
        <pt x="276" y="319" on="0"/>
        <pt x="342" y="321" on="0"/>
        <pt x="407" y="323" on="0"/>
        <pt x="433" y="323" on="1"/>
        <pt x="431" y="391" on="0"/>
        <pt x="377" y="467" on="0"/>
      </contour>
      <contour>
        <pt x="401" y="1" on="1"/>
        <pt x="311" y="1" on="0"/>
        <pt x="185" y="37" on="0"/>
        <pt x="107" y="105" on="0"/>
        <pt x="71" y="204" on="0"/>
        <pt x="71" y="266" on="1"/>
        <pt x="71" y="330" on="0"/>
        <pt x="114" y="440" on="0"/>
        <pt x="188" y="521" on="0"/>
        <pt x="286" y="567" on="0"/>
        <pt x="340" y="567" on="1"/>
        <pt x="444" y="567" on="0"/>
        <pt x="552" y="431" on="0"/>
        <pt x="552" y="312" on="1"/>
        <pt x="552" y="284" on="0"/>
        <pt x="549" y="253" on="1"/>
        <pt x="193" y="244" on="1"/>
        <pt x="198" y="202" on="0"/>
        <pt x="237" y="145" on="0"/>
        <pt x="316" y="109" on="0"/>
        <pt x="442" y="92" on="0"/>
        <pt x="534" y="90" on="1"/>
        <pt x="522" y="-9" on="1"/>
        <pt x="481" y="-24" on="0"/>
        <pt x="428" y="-50" on="0"/>
        <pt x="396" y="-72" on="0"/>
        <pt x="383" y="-92" on="0"/>
        <pt x="383" y="-100" on="1"/>
        <pt x="383" y="-118" on="0"/>
        <pt x="437" y="-144" on="0"/>
        <pt x="504" y="-150" on="1"/>
        <pt x="493" y="-246" on="1"/>
        <pt x="431" y="-243" on="0"/>
        <pt x="345" y="-223" on="0"/>
        <pt x="291" y="-194" on="0"/>
        <pt x="266" y="-157" on="0"/>
        <pt x="266" y="-137" on="1"/>
        <pt x="266" y="-103" on="0"/>
        <pt x="329" y="-35" on="0"/>
      </contour>
    </TTGlyph>
    <TTGlyph name="equal" xMin="87" yMin="160" xMax="538" yMax="508">
      <contour>
        <pt x="538" y="404" on="1"/>
        <pt x="87" y="404" on="1"/>
        <pt x="87" y="508" on="1"/>
        <pt x="538" y="508" on="1"/>
      </contour>
      <contour>
        <pt x="538" y="160" on="1"/>
        <pt x="87" y="160" on="1"/>
        <pt x="87" y="264" on="1"/>
        <pt x="538" y="264" on="1"/>
      </contour>
    </TTGlyph>
    <TTGlyph name="eth" xMin="63" yMin="-16" xMax="558" yMax="791">
      <contour>
        <pt x="299" y="-16" on="1"/>
        <pt x="250" y="-16" on="0"/>
        <pt x="164" y="19" on="0"/>
        <pt x="100" y="85" on="0"/>
        <pt x="63" y="180" on="0"/>
        <pt x="63" y="240" on="1"/>
        <pt x="63" y="307" on="0"/>
        <pt x="113" y="409" on="0"/>
        <pt x="195" y="477" on="0"/>
        <pt x="303" y="512" on="0"/>
        <pt x="362" y="512" on="1"/>
        <pt x="372" y="512" on="1"/>
        <pt x="343" y="555" on="0"/>
        <pt x="303" y="596" on="1"/>
        <pt x="160" y="531" on="1"/>
        <pt x="133" y="600" on="1"/>
        <pt x="244" y="650" on="1"/>
        <pt x="223" y="667" on="0"/>
        <pt x="177" y="700" on="0"/>
        <pt x="151" y="717" on="1"/>
        <pt x="230" y="791" on="1"/>
        <pt x="297" y="747" on="0"/>
        <pt x="352" y="700" on="1"/>
        <pt x="473" y="755" on="1"/>
        <pt x="499" y="685" on="1"/>
        <pt x="410" y="645" on="1"/>
        <pt x="485" y="564" on="0"/>
        <pt x="558" y="390" on="0"/>
        <pt x="558" y="288" on="1"/>
        <pt x="558" y="214" on="0"/>
        <pt x="516" y="100" on="0"/>
        <pt x="445" y="23" on="0"/>
        <pt x="351" y="-16" on="0"/>
      </contour>
      <contour>
        <pt x="314" y="84" on="1"/>
        <pt x="374" y="84" on="0"/>
        <pt x="441" y="179" on="0"/>
        <pt x="441" y="276" on="1"/>
        <pt x="441" y="340" on="0"/>
        <pt x="425" y="397" on="1"/>
        <pt x="368" y="415" on="0"/>
        <pt x="324" y="415" on="1"/>
        <pt x="252" y="415" on="0"/>
        <pt x="183" y="329" on="0"/>
        <pt x="183" y="255" on="1"/>
        <pt x="183" y="215" on="0"/>
        <pt x="203" y="152" on="0"/>
        <pt x="239" y="108" on="0"/>
        <pt x="287" y="84" on="0"/>
      </contour>
    </TTGlyph>
    <TTGlyph name="exclam" xMin="227" yMin="0" xMax="400" yMax="752">
      <contour>
        <pt x="274" y="271" on="1"/>
        <pt x="274" y="283" on="0"/>
        <pt x="270" y="357" on="0"/>
        <pt x="263" y="455" on="0"/>
        <pt x="255" y="566" on="0"/>
        <pt x="248" y="664" on="0"/>
        <pt x="243" y="739" on="0"/>
        <pt x="243" y="752" on="1"/>
        <pt x="400" y="752" on="1"/>
        <pt x="399" y="739" on="0"/>
        <pt x="393" y="664" on="0"/>
        <pt x="383" y="566" on="0"/>
        <pt x="372" y="455" on="0"/>
        <pt x="362" y="357" on="0"/>
        <pt x="355" y="283" on="0"/>
        <pt x="355" y="271" on="1"/>
      </contour>
      <contour>
        <pt x="227" y="0" on="1"/>
        <pt x="231" y="145" on="1"/>
        <pt x="390" y="145" on="1"/>
        <pt x="386" y="0" on="1"/>
      </contour>
    </TTGlyph>
    <TTGlyph name="exclamdown" xMin="224" yMin="-63" xMax="397" yMax="689">
      <contour>
        <pt x="397" y="689" on="1"/>
        <pt x="395" y="544" on="1"/>
        <pt x="236" y="544" on="1"/>
        <pt x="239" y="689" on="1"/>
      </contour>
      <contour>
        <pt x="351" y="418" on="1"/>
        <pt x="351" y="405" on="0"/>
        <pt x="355" y="332" on="0"/>
        <pt x="362" y="234" on="0"/>
        <pt x="370" y="123" on="0"/>
        <pt x="377" y="25" on="0"/>
        <pt x="382" y="-50" on="0"/>
        <pt x="382" y="-63" on="1"/>
        <pt x="224" y="-63" on="1"/>
        <pt x="225" y="-50" on="0"/>
        <pt x="232" y="25" on="0"/>
        <pt x="242" y="123" on="0"/>
        <pt x="253" y="234" on="0"/>
        <pt x="262" y="332" on="0"/>
        <pt x="269" y="405" on="0"/>
        <pt x="269" y="418" on="1"/>
      </contour>
    </TTGlyph>
    <TTGlyph name="f" xMin="85" yMin="0" xMax="578" yMax="792">
      <contour>
        <pt x="519" y="0" on="1"/>
        <pt x="92" y="0" on="1"/>
        <pt x="92" y="92" on="1"/>
        <pt x="231" y="92" on="1"/>
        <pt x="231" y="436" on="1"/>
        <pt x="85" y="436" on="1"/>
        <pt x="96" y="529" on="1"/>
        <pt x="231" y="529" on="1"/>
        <pt x="231" y="583" on="0"/>
        <pt x="264" y="675" on="0"/>
        <pt x="343" y="744" on="0"/>
        <pt x="473" y="787" on="0"/>
        <pt x="570" y="792" on="1"/>
        <pt x="578" y="673" on="1"/>
        <pt x="502" y="670" on="0"/>
        <pt x="413" y="659" on="0"/>
        <pt x="367" y="632" on="0"/>
        <pt x="354" y="586" on="0"/>
        <pt x="354" y="549" on="1"/>
        <pt x="354" y="529" on="1"/>
        <pt x="541" y="529" on="1"/>
        <pt x="541" y="436" on="1"/>
        <pt x="354" y="436" on="1"/>
        <pt x="354" y="92" on="1"/>
        <pt x="530" y="92" on="1"/>
      </contour>
    </TTGlyph>
    <TTGlyph name="five" xMin="99" yMin="-15" xMax="536" yMax="688">
      <contour>
        <pt x="536" y="232" on="1"/>
        <pt x="536" y="184" on="0"/>
        <pt x="486" y="101" on="0"/>
        <pt x="381" y="36" on="0"/>
        <pt x="218" y="-7" on="0"/>
        <pt x="106" y="-15" on="1"/>
        <pt x="99" y="98" on="1"/>
        <pt x="190" y="106" on="0"/>
        <pt x="314" y="128" on="0"/>
        <pt x="389" y="158" on="0"/>
        <pt x="422" y="198" on="0"/>
        <pt x="422" y="225" on="1"/>
        <pt x="422" y="246" on="0"/>
        <pt x="390" y="283" on="0"/>
        <pt x="318" y="314" on="0"/>
        <pt x="202" y="339" on="0"/>
        <pt x="117" y="347" on="1"/>
        <pt x="138" y="688" on="1"/>
        <pt x="516" y="688" on="1"/>
        <pt x="506" y="581" on="1"/>
        <pt x="241" y="582" on="1"/>
        <pt x="231" y="427" on="1"/>
        <pt x="319" y="416" on="0"/>
        <pt x="436" y="377" on="0"/>
        <pt x="506" y="326" on="0"/>
        <pt x="536" y="265" on="0"/>
      </contour>
    </TTGlyph>
    <TTGlyph name="five.den" xMin="152" yMin="-246" xMax="484" yMax="205">
      <component glyphName="five.num" x="0" y="-705" flags="0x204"/>
    </TTGlyph>
    <TTGlyph name="five.inf" xMin="152" yMin="-180" xMax="484" yMax="271">
      <component glyphName="five.num" x="0" y="-639" flags="0x204"/>
    </TTGlyph>
    <TTGlyph name="five.num" xMin="152" yMin="459" xMax="484" yMax="910">
      <contour>
        <pt x="484" y="617" on="1"/>
        <pt x="484" y="555" on="0"/>
        <pt x="326" y="469" on="0"/>
        <pt x="158" y="459" on="1"/>
        <pt x="152" y="547" on="1"/>
        <pt x="218" y="551" on="0"/>
        <pt x="310" y="563" on="0"/>
        <pt x="367" y="579" on="0"/>
        <pt x="392" y="600" on="0"/>
        <pt x="392" y="614" on="1"/>
        <pt x="392" y="638" on="0"/>
        <pt x="287" y="671" on="0"/>
        <pt x="163" y="680" on="1"/>
        <pt x="180" y="910" on="1"/>
        <pt x="471" y="910" on="1"/>
        <pt x="462" y="828" on="1"/>
        <pt x="259" y="828" on="1"/>
        <pt x="252" y="745" on="1"/>
        <pt x="318" y="739" on="0"/>
        <pt x="407" y="714" on="0"/>
        <pt x="461" y="680" on="0"/>
        <pt x="484" y="639" on="0"/>
      </contour>
    </TTGlyph>
    <TTGlyph name="five.sup" xMin="152" yMin="348" xMax="484" yMax="799">
      <component glyphName="five.num" x="0" y="-111" flags="0x204"/>
    </TTGlyph>
    <TTGlyph name="fiveeighths" xMin="74" yMin="-244" xMax="551" yMax="910">
      <component glyphName="eight.num" x="0" y="-705" flags="0x204"/>
      <component glyphName="fraction.afrc" x="0" y="0" flags="0x4"/>
      <component glyphName="five.num" x="0" y="0" flags="0x4"/>
    </TTGlyph>
    <TTGlyph name="fivesixths" xMin="74" yMin="-244" xMax="551" yMax="910">
      <component glyphName="six.num" x="0" y="-705" flags="0x204"/>
      <component glyphName="fraction.afrc" x="0" y="0" flags="0x4"/>
      <component glyphName="five.num" x="0" y="0" flags="0x4"/>
    </TTGlyph>
    <TTGlyph name="four" xMin="87" yMin="0" xMax="578" yMax="696">
      <contour>
        <pt x="499" y="130" on="1"/>
        <pt x="499" y="0" on="1"/>
        <pt x="386" y="0" on="1"/>
        <pt x="386" y="130" on="1"/>
        <pt x="88" y="130" on="1"/>
        <pt x="88" y="139" on="0"/>
        <pt x="87" y="157" on="0"/>
        <pt x="87" y="166" on="1"/>
        <pt x="87" y="220" on="0"/>
        <pt x="97" y="346" on="0"/>
        <pt x="115" y="483" on="0"/>
        <pt x="141" y="626" on="0"/>
        <pt x="158" y="696" on="1"/>
        <pt x="289" y="687" on="1"/>
        <pt x="286" y="674" on="0"/>
        <pt x="269" y="601" on="0"/>
        <pt x="246" y="506" on="0"/>
        <pt x="221" y="401" on="0"/>
        <pt x="200" y="310" on="0"/>
        <pt x="185" y="244" on="0"/>
        <pt x="185" y="236" on="1"/>
        <pt x="386" y="236" on="1"/>
        <pt x="386" y="465" on="1"/>
        <pt x="499" y="478" on="1"/>
        <pt x="499" y="236" on="1"/>
        <pt x="578" y="236" on="1"/>
        <pt x="568" y="130" on="1"/>
      </contour>
    </TTGlyph>
    <TTGlyph name="four.den" xMin="142" yMin="-233" xMax="511" yMax="212">
      <component glyphName="four.num" x="0" y="-705" flags="0x204"/>
    </TTGlyph>
    <TTGlyph name="four.inf" xMin="142" yMin="-167" xMax="511" yMax="278">
      <component glyphName="four.num" x="0" y="-639" flags="0x204"/>
    </TTGlyph>
    <TTGlyph name="four.num" xMin="142" yMin="472" xMax="511" yMax="917">
      <contour>
        <pt x="452" y="555" on="1"/>
        <pt x="453" y="472" on="1"/>
        <pt x="362" y="472" on="1"/>
        <pt x="363" y="556" on="1"/>
        <pt x="142" y="554" on="1"/>
        <pt x="142" y="575" on="1"/>
        <pt x="142" y="644" on="0"/>
        <pt x="168" y="826" on="0"/>
        <pt x="193" y="917" on="1"/>
        <pt x="298" y="910" on="1"/>
        <pt x="296" y="903" on="0"/>
        <pt x="283" y="859" on="0"/>
        <pt x="267" y="800" on="0"/>
        <pt x="250" y="735" on="0"/>
        <pt x="235" y="679" on="0"/>
        <pt x="225" y="638" on="0"/>
        <pt x="225" y="634" on="1"/>
        <pt x="363" y="632" on="1"/>
        <pt x="362" y="768" on="1"/>
        <pt x="453" y="776" on="1"/>
        <pt x="451" y="633" on="1"/>
        <pt x="511" y="634" on="1"/>
        <pt x="504" y="554" on="1"/>
      </contour>
    </TTGlyph>
    <TTGlyph name="four.sup" xMin="142" yMin="361" xMax="511" yMax="806">
      <component glyphName="four.num" x="0" y="-111" flags="0x204"/>
    </TTGlyph>
    <TTGlyph name="fourfifths" xMin="74" yMin="-246" xMax="551" yMax="917">
      <component glyphName="four.num" x="0" y="0" flags="0x204"/>
      <component glyphName="five.num" x="0" y="-705" flags="0x4"/>
      <component glyphName="fraction.afrc" x="0" y="0" flags="0x4"/>
    </TTGlyph>
    <TTGlyph name="fraction" xMin="33" yMin="-178" xMax="585" yMax="841">
      <contour>
        <pt x="33" y="-135" on="1"/>
        <pt x="481" y="841" on="1"/>
        <pt x="585" y="798" on="1"/>
        <pt x="137" y="-178" on="1"/>
      </contour>
    </TTGlyph>
    <TTGlyph name="fraction.afrc" xMin="74" yMin="299" xMax="551" yMax="378">
      <contour>
        <pt x="74" y="378" on="1"/>
        <pt x="551" y="378" on="1"/>
        <pt x="551" y="299" on="1"/>
        <pt x="74" y="299" on="1"/>
      </contour>
    </TTGlyph>
    <TTGlyph name="g" xMin="64" yMin="-195" xMax="533" yMax="566">
      <contour>
        <pt x="131" y="-84" on="1"/>
        <pt x="223" y="-77" on="0"/>
        <pt x="332" y="-58" on="0"/>
        <pt x="390" y="-20" on="0"/>
        <pt x="409" y="43" on="0"/>
        <pt x="410" y="96" on="1"/>
        <pt x="383" y="76" on="0"/>
        <pt x="312" y="49" on="0"/>
        <pt x="267" y="49" on="1"/>
        <pt x="224" y="49" on="0"/>
        <pt x="150" y="81" on="0"/>
        <pt x="95" y="141" on="0"/>
        <pt x="64" y="226" on="0"/>
        <pt x="64" y="279" on="1"/>
        <pt x="64" y="345" on="0"/>
        <pt x="112" y="451" on="0"/>
        <pt x="193" y="526" on="0"/>
        <pt x="302" y="566" on="0"/>
        <pt x="363" y="566" on="1"/>
        <pt x="405" y="566" on="0"/>
        <pt x="488" y="552" on="0"/>
        <pt x="530" y="539" on="1"/>
        <pt x="530" y="524" on="0"/>
        <pt x="531" y="467" on="0"/>
        <pt x="532" y="395" on="0"/>
        <pt x="533" y="315" on="0"/>
        <pt x="533" y="238" on="0"/>
        <pt x="533" y="171" on="0"/>
        <pt x="533" y="149" on="1"/>
        <pt x="533" y="74" on="0"/>
        <pt x="499" y="-48" on="0"/>
        <pt x="412" y="-137" on="0"/>
        <pt x="261" y="-189" on="0"/>
        <pt x="143" y="-195" on="1"/>
      </contour>
      <contour>
        <pt x="315" y="145" on="1"/>
        <pt x="340" y="145" on="0"/>
        <pt x="388" y="158" on="0"/>
        <pt x="410" y="169" on="1"/>
        <pt x="410" y="447" on="1"/>
        <pt x="363" y="462" on="0"/>
        <pt x="319" y="462" on="1"/>
        <pt x="259" y="462" on="0"/>
        <pt x="185" y="384" on="0"/>
        <pt x="185" y="307" on="1"/>
        <pt x="185" y="266" on="0"/>
        <pt x="205" y="205" on="0"/>
        <pt x="240" y="165" on="0"/>
        <pt x="288" y="145" on="0"/>
      </contour>
    </TTGlyph>
    <TTGlyph name="gbreve" xMin="64" yMin="-195" xMax="551" yMax="845">
      <component glyphName="g" x="0" y="0" flags="0x204"/>
      <component glyphName="breve" x="19" y="7" flags="0x4"/>
    </TTGlyph>
    <TTGlyph name="gcommaaccent" xMin="64" yMin="-195" xMax="533" yMax="880">
      <component glyphName="g" x="0" y="0" flags="0x204"/>
      <component glyphName="commaaccent.rot" x="0" y="0" flags="0x4"/>
    </TTGlyph>
    <TTGlyph name="gdotaccent" xMin="64" yMin="-195" xMax="533" yMax="798">
      <component glyphName="g" x="0" y="0" flags="0x204"/>
      <component glyphName="dotaccent" x="19" y="7" flags="0x4"/>
    </TTGlyph>
    <TTGlyph name="germandbls" xMin="84" yMin="-9" xMax="592" yMax="791">
      <contour>
        <pt x="410" y="396" on="1"/>
        <pt x="410" y="378" on="0"/>
        <pt x="437" y="348" on="0"/>
        <pt x="477" y="318" on="0"/>
        <pt x="525" y="285" on="0"/>
        <pt x="565" y="244" on="0"/>
        <pt x="592" y="194" on="0"/>
        <pt x="592" y="161" on="1"/>
        <pt x="592" y="129" on="0"/>
        <pt x="566" y="68" on="0"/>
        <pt x="504" y="20" on="0"/>
        <pt x="401" y="-9" on="0"/>
        <pt x="324" y="-9" on="1"/>
        <pt x="316" y="-9" on="0"/>
        <pt x="301" y="-8" on="0"/>
        <pt x="293" y="-8" on="1"/>
        <pt x="298" y="100" on="1"/>
        <pt x="315" y="98" on="0"/>
        <pt x="344" y="96" on="0"/>
        <pt x="358" y="96" on="1"/>
        <pt x="417" y="96" on="0"/>
        <pt x="468" y="128" on="0"/>
        <pt x="468" y="155" on="1"/>
        <pt x="468" y="173" on="0"/>
        <pt x="442" y="203" on="0"/>
        <pt x="402" y="232" on="0"/>
        <pt x="357" y="263" on="0"/>
        <pt x="317" y="300" on="0"/>
        <pt x="291" y="348" on="0"/>
        <pt x="291" y="380" on="1"/>
        <pt x="291" y="412" on="0"/>
        <pt x="322" y="466" on="0"/>
        <pt x="359" y="518" on="0"/>
        <pt x="390" y="570" on="0"/>
        <pt x="390" y="600" on="1"/>
        <pt x="390" y="634" on="0"/>
        <pt x="349" y="686" on="0"/>
        <pt x="306" y="686" on="1"/>
        <pt x="255" y="686" on="0"/>
        <pt x="205" y="613" on="0"/>
        <pt x="205" y="534" on="1"/>
        <pt x="205" y="0" on="1"/>
        <pt x="84" y="0" on="1"/>
        <pt x="84" y="508" on="1"/>
        <pt x="84" y="568" on="0"/>
        <pt x="117" y="672" on="0"/>
        <pt x="180" y="748" on="0"/>
        <pt x="273" y="791" on="0"/>
        <pt x="333" y="791" on="1"/>
        <pt x="380" y="791" on="0"/>
        <pt x="448" y="762" on="0"/>
        <pt x="492" y="715" on="0"/>
        <pt x="513" y="656" on="0"/>
        <pt x="513" y="627" on="1"/>
        <pt x="513" y="580" on="0"/>
        <pt x="481" y="512" on="0"/>
        <pt x="442" y="459" on="0"/>
        <pt x="410" y="417" on="0"/>
      </contour>
    </TTGlyph>
    <TTGlyph name="grave" xMin="150" yMin="617" xMax="468" yMax="870">
      <contour>
        <pt x="433" y="617" on="1"/>
        <pt x="403" y="629" on="0"/>
        <pt x="329" y="665" on="0"/>
        <pt x="252" y="707" on="0"/>
        <pt x="179" y="750" on="0"/>
        <pt x="150" y="770" on="1"/>
        <pt x="233" y="870" on="1"/>
        <pt x="256" y="847" on="0"/>
        <pt x="318" y="792" on="0"/>
        <pt x="383" y="736" on="0"/>
        <pt x="445" y="687" on="0"/>
        <pt x="468" y="670" on="1"/>
      </contour>
    </TTGlyph>
    <TTGlyph name="grave.cap" xMin="150" yMin="617" xMax="468" yMax="870">
      <contour>
        <pt x="433" y="617" on="1"/>
        <pt x="403" y="629" on="0"/>
        <pt x="329" y="665" on="0"/>
        <pt x="252" y="707" on="0"/>
        <pt x="179" y="750" on="0"/>
        <pt x="150" y="770" on="1"/>
        <pt x="233" y="870" on="1"/>
        <pt x="256" y="847" on="0"/>
        <pt x="318" y="792" on="0"/>
        <pt x="383" y="736" on="0"/>
        <pt x="445" y="687" on="0"/>
        <pt x="468" y="670" on="1"/>
      </contour>
    </TTGlyph>
    <TTGlyph name="greater" xMin="96" yMin="-27" xMax="532" yMax="680">
      <contour>
        <pt x="96" y="60" on="1"/>
        <pt x="421" y="322" on="1"/>
        <pt x="421" y="334" on="1"/>
        <pt x="99" y="592" on="1"/>
        <pt x="168" y="680" on="1"/>
        <pt x="532" y="380" on="1"/>
        <pt x="532" y="277" on="1"/>
        <pt x="162" y="-27" on="1"/>
      </contour>
    </TTGlyph>
    <TTGlyph name="greaterequal" xMin="84" yMin="8" xMax="541" yMax="676">
      <contour>
        <pt x="541" y="111" on="1"/>
        <pt x="541" y="8" on="1"/>
        <pt x="84" y="8" on="1"/>
        <pt x="84" y="111" on="1"/>
      </contour>
      <contour>
        <pt x="103" y="584" on="1"/>
        <pt x="152" y="676" on="1"/>
        <pt x="533" y="447" on="1"/>
        <pt x="535" y="353" on="1"/>
        <pt x="142" y="159" on="1"/>
        <pt x="102" y="255" on="1"/>
        <pt x="406" y="402" on="1"/>
        <pt x="406" y="410" on="1"/>
      </contour>
    </TTGlyph>
    <TTGlyph name="guillemotleft" xMin="42" yMin="-21" xMax="591" yMax="574">
      <contour>
        <pt x="42" y="216" on="1"/>
        <pt x="48" y="336" on="1"/>
        <pt x="232" y="574" on="1"/>
        <pt x="320" y="502" on="1"/>
        <pt x="135" y="280" on="1"/>
        <pt x="316" y="50" on="1"/>
        <pt x="228" y="-21" on="1"/>
      </contour>
      <contour>
        <pt x="314" y="216" on="1"/>
        <pt x="319" y="336" on="1"/>
        <pt x="504" y="574" on="1"/>
        <pt x="591" y="502" on="1"/>
        <pt x="405" y="279" on="1"/>
        <pt x="588" y="50" on="1"/>
        <pt x="499" y="-21" on="1"/>
      </contour>
    </TTGlyph>
    <TTGlyph name="guillemotleft.cap" xMin="42" yMin="45" xMax="591" yMax="640">
      <component glyphName="guillemotleft" x="0" y="66" flags="0x204"/>
    </TTGlyph>
    <TTGlyph name="guillemotright" xMin="33" yMin="-21" xMax="583" yMax="574">
      <contour>
        <pt x="305" y="51" on="1"/>
        <pt x="491" y="274" on="1"/>
        <pt x="309" y="504" on="1"/>
        <pt x="397" y="574" on="1"/>
        <pt x="583" y="338" on="1"/>
        <pt x="577" y="217" on="1"/>
        <pt x="392" y="-21" on="1"/>
      </contour>
      <contour>
        <pt x="33" y="51" on="1"/>
        <pt x="220" y="275" on="1"/>
        <pt x="37" y="504" on="1"/>
        <pt x="125" y="574" on="1"/>
        <pt x="311" y="338" on="1"/>
        <pt x="305" y="217" on="1"/>
        <pt x="121" y="-21" on="1"/>
      </contour>
    </TTGlyph>
    <TTGlyph name="guillemotright.cap" xMin="33" yMin="45" xMax="583" yMax="640">
      <component glyphName="guillemotright" x="0" y="66" flags="0x204"/>
    </TTGlyph>
    <TTGlyph name="guilsinglleft" xMin="140" yMin="-21" xMax="489" yMax="575">
      <contour>
        <pt x="140" y="216" on="1"/>
        <pt x="148" y="336" on="1"/>
        <pt x="408" y="575" on="1"/>
        <pt x="489" y="489" on="1"/>
        <pt x="239" y="277" on="1"/>
        <pt x="483" y="65" on="1"/>
        <pt x="401" y="-21" on="1"/>
      </contour>
    </TTGlyph>
    <TTGlyph name="guilsinglleft.cap" xMin="140" yMin="45" xMax="489" yMax="641">
      <component glyphName="guilsinglleft" x="0" y="66" flags="0x204"/>
    </TTGlyph>
    <TTGlyph name="guilsinglright" xMin="136" yMin="-21" xMax="485" yMax="575">
      <contour>
        <pt x="136" y="65" on="1"/>
        <pt x="386" y="276" on="1"/>
        <pt x="143" y="489" on="1"/>
        <pt x="225" y="575" on="1"/>
        <pt x="485" y="338" on="1"/>
        <pt x="477" y="218" on="1"/>
        <pt x="217" y="-21" on="1"/>
      </contour>
    </TTGlyph>
    <TTGlyph name="guilsinglright.cap" xMin="136" yMin="45" xMax="485" yMax="641">
      <component glyphName="guilsinglright" x="0" y="66" flags="0x204"/>
    </TTGlyph>
    <TTGlyph name="h" xMin="92" yMin="0" xMax="541" yMax="789">
      <contour>
        <pt x="325" y="462" on="1"/>
        <pt x="294" y="462" on="0"/>
        <pt x="240" y="444" on="0"/>
        <pt x="215" y="427" on="1"/>
        <pt x="215" y="0" on="1"/>
        <pt x="92" y="0" on="1"/>
        <pt x="92" y="778" on="1"/>
        <pt x="215" y="789" on="1"/>
        <pt x="215" y="502" on="1"/>
        <pt x="247" y="529" on="0"/>
        <pt x="329" y="567" on="0"/>
        <pt x="382" y="567" on="1"/>
        <pt x="455" y="567" on="0"/>
        <pt x="541" y="477" on="0"/>
        <pt x="541" y="376" on="1"/>
        <pt x="541" y="0" on="1"/>
        <pt x="418" y="0" on="1"/>
        <pt x="418" y="333" on="1"/>
        <pt x="418" y="406" on="0"/>
        <pt x="368" y="462" on="0"/>
      </contour>
    </TTGlyph>
    <TTGlyph name="hbar" xMin="22" yMin="0" xMax="541" yMax="789">
      <contour>
        <pt x="325" y="462" on="1"/>
        <pt x="294" y="462" on="0"/>
        <pt x="240" y="444" on="0"/>
        <pt x="215" y="427" on="1"/>
        <pt x="215" y="0" on="1"/>
        <pt x="92" y="0" on="1"/>
        <pt x="92" y="632" on="1"/>
        <pt x="22" y="632" on="1"/>
        <pt x="22" y="710" on="1"/>
        <pt x="92" y="710" on="1"/>
        <pt x="92" y="778" on="1"/>
        <pt x="215" y="789" on="1"/>
        <pt x="215" y="710" on="1"/>
        <pt x="352" y="710" on="1"/>
        <pt x="352" y="633" on="1"/>
        <pt x="215" y="633" on="1"/>
        <pt x="215" y="499" on="1"/>
        <pt x="247" y="525" on="0"/>
        <pt x="329" y="563" on="0"/>
        <pt x="382" y="563" on="1"/>
        <pt x="455" y="563" on="0"/>
        <pt x="541" y="475" on="0"/>
        <pt x="541" y="376" on="1"/>
        <pt x="541" y="0" on="1"/>
        <pt x="418" y="0" on="1"/>
        <pt x="418" y="333" on="1"/>
        <pt x="418" y="406" on="0"/>
        <pt x="368" y="462" on="0"/>
      </contour>
    </TTGlyph>
    <TTGlyph name="hcoslug" xMin="50" yMin="-100" xMax="644" yMax="700">
      <contour>
        <pt x="644" y="-100" on="1"/>
        <pt x="50" y="-100" on="1"/>
        <pt x="50" y="700" on="1"/>
        <pt x="644" y="700" on="1"/>
      </contour>
      <contour>
        <pt x="247" y="428" on="1"/>
        <pt x="247" y="441" on="0"/>
        <pt x="262" y="457" on="0"/>
        <pt x="274" y="457" on="1"/>
        <pt x="287" y="457" on="0"/>
        <pt x="303" y="436" on="0"/>
        <pt x="303" y="419" on="1"/>
        <pt x="303" y="406" on="0"/>
        <pt x="293" y="382" on="0"/>
        <pt x="285" y="369" on="1"/>
        <pt x="268" y="386" on="0"/>
        <pt x="247" y="411" on="0"/>
      </contour>
      <contour>
        <pt x="312" y="342" on="1"/>
        <pt x="342" y="362" on="0"/>
        <pt x="354" y="376" on="1"/>
        <pt x="369" y="361" on="0"/>
        <pt x="369" y="342" on="1"/>
        <pt x="369" y="325" on="0"/>
        <pt x="353" y="296" on="1"/>
        <pt x="343" y="307" on="0"/>
        <pt x="324" y="330" on="0"/>
      </contour>
      <contour>
        <pt x="261" y="219" on="1"/>
        <pt x="238" y="219" on="0"/>
        <pt x="209" y="250" on="0"/>
        <pt x="209" y="273" on="1"/>
        <pt x="209" y="297" on="0"/>
        <pt x="225" y="313" on="1"/>
        <pt x="239" y="300" on="0"/>
        <pt x="278" y="257" on="0"/>
        <pt x="299" y="231" on="1"/>
        <pt x="284" y="219" on="0"/>
      </contour>
      <contour>
        <pt x="382" y="264" on="1"/>
        <pt x="393" y="279" on="0"/>
        <pt x="417" y="299" on="0"/>
        <pt x="428" y="306" on="1"/>
        <pt x="435" y="295" on="0"/>
        <pt x="457" y="281" on="0"/>
        <pt x="471" y="281" on="1"/>
        <pt x="492" y="281" on="0"/>
        <pt x="521" y="312" on="0"/>
        <pt x="521" y="335" on="1"/>
        <pt x="521" y="358" on="0"/>
        <pt x="492" y="387" on="0"/>
        <pt x="471" y="387" on="1"/>
        <pt x="436" y="387" on="0"/>
        <pt x="411" y="349" on="1"/>
        <pt x="409" y="369" on="0"/>
        <pt x="385" y="386" on="0"/>
        <pt x="365" y="386" on="1"/>
        <pt x="362" y="386" on="1"/>
        <pt x="371" y="401" on="0"/>
        <pt x="371" y="420" on="1"/>
        <pt x="371" y="433" on="0"/>
        <pt x="359" y="460" on="0"/>
        <pt x="335" y="481" on="0"/>
        <pt x="299" y="494" on="0"/>
        <pt x="276" y="494" on="1"/>
        <pt x="251" y="494" on="0"/>
        <pt x="211" y="480" on="0"/>
        <pt x="182" y="456" on="0"/>
        <pt x="167" y="425" on="0"/>
        <pt x="167" y="409" on="1"/>
        <pt x="167" y="387" on="0"/>
        <pt x="182" y="357" on="0"/>
        <pt x="198" y="340" on="1"/>
        <pt x="116" y="312" on="0"/>
        <pt x="116" y="249" on="1"/>
        <pt x="116" y="229" on="0"/>
        <pt x="133" y="195" on="0"/>
        <pt x="163" y="170" on="0"/>
        <pt x="202" y="156" on="0"/>
        <pt x="225" y="156" on="1"/>
        <pt x="288" y="156" on="0"/>
        <pt x="329" y="201" on="1"/>
        <pt x="354" y="175" on="0"/>
        <pt x="391" y="156" on="0"/>
        <pt x="414" y="156" on="1"/>
        <pt x="446" y="156" on="0"/>
        <pt x="492" y="206" on="0"/>
        <pt x="494" y="250" on="1"/>
        <pt x="487" y="252" on="1"/>
        <pt x="479" y="239" on="0"/>
        <pt x="460" y="223" on="0"/>
        <pt x="444" y="223" on="1"/>
        <pt x="429" y="223" on="0"/>
        <pt x="401" y="242" on="0"/>
      </contour>
      <contour>
        <pt x="274" y="122" on="1"/>
        <pt x="274" y="113" on="1"/>
        <pt x="267" y="113" on="1"/>
        <pt x="267" y="106" on="1"/>
        <pt x="274" y="106" on="1"/>
        <pt x="274" y="86" on="1"/>
        <pt x="274" y="73" on="0"/>
        <pt x="286" y="73" on="1"/>
        <pt x="297" y="73" on="0"/>
        <pt x="300" y="86" on="1"/>
        <pt x="295" y="88" on="1"/>
        <pt x="294" y="81" on="0"/>
        <pt x="290" y="81" on="1"/>
        <pt x="286" y="81" on="0"/>
        <pt x="286" y="86" on="1"/>
        <pt x="286" y="106" on="1"/>
        <pt x="299" y="106" on="1"/>
        <pt x="299" y="113" on="1"/>
        <pt x="286" y="113" on="1"/>
        <pt x="286" y="124" on="1"/>
      </contour>
      <contour>
        <pt x="174" y="94" on="1"/>
        <pt x="174" y="84" on="0"/>
        <pt x="186" y="73" on="0"/>
        <pt x="195" y="73" on="1"/>
        <pt x="204" y="73" on="0"/>
        <pt x="216" y="85" on="0"/>
        <pt x="216" y="94" on="1"/>
        <pt x="216" y="103" on="0"/>
        <pt x="204" y="114" on="0"/>
        <pt x="195" y="114" on="1"/>
        <pt x="186" y="114" on="0"/>
        <pt x="174" y="103" on="0"/>
      </contour>
      <contour>
        <pt x="203" y="94" on="1"/>
        <pt x="203" y="78" on="0"/>
        <pt x="195" y="78" on="1"/>
        <pt x="187" y="78" on="0"/>
        <pt x="187" y="94" on="1"/>
        <pt x="187" y="109" on="0"/>
        <pt x="195" y="109" on="1"/>
        <pt x="203" y="109" on="0"/>
      </contour>
      <contour>
        <pt x="379" y="93" on="1"/>
        <pt x="379" y="80" on="0"/>
        <pt x="372" y="80" on="1"/>
        <pt x="364" y="80" on="0"/>
        <pt x="364" y="93" on="1"/>
        <pt x="364" y="106" on="0"/>
        <pt x="372" y="106" on="1"/>
        <pt x="379" y="106" on="0"/>
      </contour>
      <contour>
        <pt x="219" y="74" on="1"/>
        <pt x="241" y="74" on="1"/>
        <pt x="241" y="81" on="1"/>
        <pt x="237" y="81" on="1"/>
        <pt x="237" y="96" on="1"/>
        <pt x="237" y="106" on="0"/>
        <pt x="244" y="106" on="1"/>
        <pt x="250" y="106" on="0"/>
        <pt x="250" y="99" on="1"/>
        <pt x="250" y="81" on="1"/>
        <pt x="246" y="81" on="1"/>
        <pt x="246" y="74" on="1"/>
        <pt x="268" y="74" on="1"/>
        <pt x="268" y="81" on="1"/>
        <pt x="262" y="81" on="1"/>
        <pt x="262" y="100" on="1"/>
        <pt x="262" y="114" on="0"/>
        <pt x="250" y="114" on="1"/>
        <pt x="241" y="114" on="0"/>
        <pt x="236" y="103" on="1"/>
        <pt x="236" y="113" on="1"/>
        <pt x="219" y="113" on="1"/>
        <pt x="219" y="106" on="1"/>
        <pt x="225" y="106" on="1"/>
        <pt x="225" y="81" on="1"/>
        <pt x="219" y="81" on="1"/>
      </contour>
      <contour>
        <pt x="125" y="74" on="1"/>
        <pt x="155" y="74" on="1"/>
        <pt x="155" y="81" on="1"/>
        <pt x="145" y="81" on="1"/>
        <pt x="145" y="97" on="1"/>
        <pt x="149" y="97" on="1"/>
        <pt x="154" y="97" on="0"/>
        <pt x="155" y="89" on="1"/>
        <pt x="162" y="89" on="1"/>
        <pt x="162" y="112" on="1"/>
        <pt x="155" y="112" on="1"/>
        <pt x="154" y="104" on="0"/>
        <pt x="149" y="104" on="1"/>
        <pt x="145" y="104" on="1"/>
        <pt x="145" y="122" on="1"/>
        <pt x="157" y="122" on="1"/>
        <pt x="162" y="122" on="0"/>
        <pt x="166" y="117" on="0"/>
        <pt x="168" y="109" on="1"/>
        <pt x="176" y="109" on="1"/>
        <pt x="176" y="129" on="1"/>
        <pt x="125" y="129" on="1"/>
        <pt x="125" y="122" on="1"/>
        <pt x="132" y="122" on="1"/>
        <pt x="132" y="81" on="1"/>
        <pt x="125" y="81" on="1"/>
      </contour>
      <contour>
        <pt x="302" y="74" on="1"/>
        <pt x="309" y="74" on="1"/>
        <pt x="310" y="78" on="1"/>
        <pt x="312" y="76" on="0"/>
        <pt x="318" y="73" on="0"/>
        <pt x="323" y="73" on="1"/>
        <pt x="337" y="73" on="0"/>
        <pt x="337" y="86" on="1"/>
        <pt x="337" y="92" on="0"/>
        <pt x="329" y="97" on="0"/>
        <pt x="320" y="99" on="0"/>
        <pt x="313" y="101" on="0"/>
        <pt x="313" y="104" on="1"/>
        <pt x="313" y="108" on="0"/>
        <pt x="318" y="108" on="1"/>
        <pt x="323" y="108" on="0"/>
        <pt x="328" y="101" on="1"/>
        <pt x="335" y="101" on="1"/>
        <pt x="335" y="114" on="1"/>
        <pt x="329" y="114" on="1"/>
        <pt x="327" y="109" on="1"/>
        <pt x="324" y="114" on="0"/>
        <pt x="316" y="114" on="1"/>
        <pt x="309" y="114" on="0"/>
        <pt x="302" y="107" on="0"/>
        <pt x="302" y="102" on="1"/>
        <pt x="302" y="96" on="0"/>
        <pt x="309" y="91" on="0"/>
        <pt x="318" y="88" on="0"/>
        <pt x="326" y="86" on="0"/>
        <pt x="326" y="83" on="1"/>
        <pt x="326" y="79" on="0"/>
        <pt x="321" y="79" on="1"/>
        <pt x="315" y="79" on="0"/>
        <pt x="309" y="88" on="1"/>
        <pt x="302" y="88" on="1"/>
      </contour>
      <contour>
        <pt x="352" y="73" on="1"/>
        <pt x="358" y="73" on="1"/>
        <pt x="362" y="81" on="1"/>
        <pt x="367" y="73" on="0"/>
        <pt x="376" y="73" on="1"/>
        <pt x="385" y="73" on="0"/>
        <pt x="392" y="87" on="0"/>
        <pt x="392" y="94" on="1"/>
        <pt x="392" y="114" on="0"/>
        <pt x="377" y="114" on="1"/>
        <pt x="367" y="114" on="0"/>
        <pt x="364" y="105" on="1"/>
        <pt x="364" y="132" on="1"/>
        <pt x="346" y="132" on="1"/>
        <pt x="346" y="125" on="1"/>
        <pt x="352" y="125" on="1"/>
      </contour>
      <contour>
        <pt x="405" y="65" on="1"/>
        <pt x="407" y="67" on="0"/>
        <pt x="407" y="69" on="1"/>
        <pt x="407" y="75" on="0"/>
        <pt x="400" y="75" on="1"/>
        <pt x="393" y="75" on="0"/>
        <pt x="393" y="68" on="1"/>
        <pt x="393" y="59" on="0"/>
        <pt x="404" y="59" on="1"/>
        <pt x="416" y="59" on="0"/>
        <pt x="422" y="75" on="1"/>
        <pt x="435" y="106" on="1"/>
        <pt x="440" y="106" on="1"/>
        <pt x="440" y="113" on="1"/>
        <pt x="423" y="113" on="1"/>
        <pt x="423" y="106" on="1"/>
        <pt x="428" y="106" on="1"/>
        <pt x="420" y="86" on="1"/>
        <pt x="411" y="106" on="1"/>
        <pt x="417" y="106" on="1"/>
        <pt x="417" y="113" on="1"/>
        <pt x="392" y="113" on="1"/>
        <pt x="392" y="106" on="1"/>
        <pt x="397" y="106" on="1"/>
        <pt x="399" y="99" on="0"/>
        <pt x="403" y="93" on="1"/>
        <pt x="405" y="88" on="0"/>
        <pt x="411" y="77" on="0"/>
        <pt x="413" y="73" on="1"/>
        <pt x="411" y="65" on="0"/>
      </contour>
      <contour>
        <pt x="446" y="33" on="1"/>
        <pt x="446" y="26" on="1"/>
        <pt x="452" y="26" on="1"/>
        <pt x="450" y="21" on="0"/>
        <pt x="446" y="17" on="1"/>
        <pt x="443" y="20" on="0"/>
        <pt x="438" y="26" on="0"/>
        <pt x="434" y="30" on="1"/>
        <pt x="445" y="35" on="0"/>
        <pt x="445" y="42" on="1"/>
        <pt x="445" y="47" on="0"/>
        <pt x="438" y="54" on="0"/>
        <pt x="431" y="54" on="1"/>
        <pt x="423" y="54" on="0"/>
        <pt x="414" y="45" on="0"/>
        <pt x="414" y="40" on="1"/>
        <pt x="414" y="34" on="0"/>
        <pt x="420" y="28" on="1"/>
        <pt x="407" y="24" on="0"/>
        <pt x="407" y="13" on="1"/>
        <pt x="407" y="-1" on="0"/>
        <pt x="425" y="-1" on="1"/>
        <pt x="434" y="-1" on="0"/>
        <pt x="440" y="5" on="1"/>
        <pt x="445" y="-1" on="0"/>
        <pt x="452" y="-1" on="1"/>
        <pt x="462" y="-1" on="0"/>
        <pt x="465" y="11" on="1"/>
        <pt x="460" y="12" on="1"/>
        <pt x="459" y="7" on="0"/>
        <pt x="456" y="7" on="1"/>
        <pt x="453" y="7" on="0"/>
        <pt x="450" y="12" on="1"/>
        <pt x="452" y="15" on="0"/>
        <pt x="457" y="21" on="0"/>
        <pt x="459" y="26" on="1"/>
        <pt x="464" y="26" on="1"/>
        <pt x="464" y="33" on="1"/>
      </contour>
      <contour>
        <pt x="294" y="42" on="1"/>
        <pt x="294" y="50" on="0"/>
        <pt x="298" y="54" on="0"/>
        <pt x="300" y="54" on="1"/>
        <pt x="301" y="54" on="0"/>
        <pt x="301" y="53" on="0"/>
        <pt x="302" y="53" on="1"/>
        <pt x="303" y="53" on="1"/>
        <pt x="302" y="52" on="1"/>
        <pt x="302" y="50" on="1"/>
        <pt x="302" y="44" on="0"/>
        <pt x="308" y="44" on="1"/>
        <pt x="308" y="39" on="1"/>
        <pt x="294" y="39" on="1"/>
      </contour>
      <contour>
        <pt x="469" y="27" on="1"/>
        <pt x="469" y="-1" on="0"/>
        <pt x="498" y="-1" on="1"/>
        <pt x="520" y="-1" on="0"/>
        <pt x="522" y="22" on="1"/>
        <pt x="514" y="22" on="1"/>
        <pt x="512" y="6" on="0"/>
        <pt x="500" y="6" on="1"/>
        <pt x="484" y="6" on="0"/>
        <pt x="484" y="28" on="1"/>
        <pt x="484" y="50" on="0"/>
        <pt x="498" y="50" on="1"/>
        <pt x="508" y="50" on="0"/>
        <pt x="513" y="34" on="1"/>
        <pt x="521" y="34" on="1"/>
        <pt x="521" y="56" on="1"/>
        <pt x="513" y="56" on="1"/>
        <pt x="512" y="50" on="1"/>
        <pt x="505" y="57" on="0"/>
        <pt x="496" y="57" on="1"/>
        <pt x="485" y="57" on="0"/>
        <pt x="469" y="41" on="0"/>
      </contour>
      <contour>
        <pt x="431" y="33" on="1"/>
        <pt x="425" y="39" on="0"/>
        <pt x="425" y="43" on="1"/>
        <pt x="425" y="48" on="0"/>
        <pt x="430" y="48" on="1"/>
        <pt x="436" y="48" on="0"/>
        <pt x="436" y="42" on="1"/>
        <pt x="436" y="36" on="0"/>
      </contour>
      <contour>
        <pt x="273" y="18" on="1"/>
        <pt x="273" y="21" on="1"/>
        <pt x="273" y="40" on="0"/>
        <pt x="254" y="40" on="1"/>
        <pt x="246" y="40" on="0"/>
        <pt x="234" y="28" on="0"/>
        <pt x="234" y="19" on="1"/>
        <pt x="234" y="-1" on="0"/>
        <pt x="255" y="-1" on="1"/>
        <pt x="269" y="-1" on="0"/>
        <pt x="273" y="13" on="1"/>
        <pt x="266" y="13" on="1"/>
        <pt x="265" y="6" on="0"/>
        <pt x="257" y="6" on="1"/>
        <pt x="247" y="6" on="0"/>
        <pt x="247" y="18" on="1"/>
      </contour>
      <contour>
        <pt x="189" y="20" on="1"/>
        <pt x="189" y="10" on="0"/>
        <pt x="201" y="-1" on="0"/>
        <pt x="210" y="-1" on="1"/>
        <pt x="219" y="-1" on="0"/>
        <pt x="231" y="11" on="0"/>
        <pt x="231" y="20" on="1"/>
        <pt x="231" y="29" on="0"/>
        <pt x="219" y="40" on="0"/>
        <pt x="210" y="40" on="1"/>
        <pt x="201" y="40" on="0"/>
        <pt x="189" y="29" on="0"/>
      </contour>
      <contour>
        <pt x="525" y="20" on="1"/>
        <pt x="525" y="10" on="0"/>
        <pt x="537" y="-1" on="0"/>
        <pt x="546" y="-1" on="1"/>
        <pt x="555" y="-1" on="0"/>
        <pt x="567" y="11" on="0"/>
        <pt x="567" y="20" on="1"/>
        <pt x="567" y="29" on="0"/>
        <pt x="555" y="40" on="0"/>
        <pt x="546" y="40" on="1"/>
        <pt x="537" y="40" on="0"/>
        <pt x="525" y="29" on="0"/>
      </contour>
      <contour>
        <pt x="366" y="18" on="1"/>
        <pt x="366" y="21" on="1"/>
        <pt x="366" y="40" on="0"/>
        <pt x="347" y="40" on="1"/>
        <pt x="339" y="40" on="0"/>
        <pt x="327" y="28" on="0"/>
        <pt x="327" y="19" on="1"/>
        <pt x="327" y="-1" on="0"/>
        <pt x="348" y="-1" on="1"/>
        <pt x="362" y="-1" on="0"/>
        <pt x="366" y="13" on="1"/>
        <pt x="359" y="13" on="1"/>
        <pt x="358" y="6" on="0"/>
        <pt x="350" y="6" on="1"/>
        <pt x="340" y="6" on="0"/>
        <pt x="340" y="18" on="1"/>
      </contour>
      <contour>
        <pt x="247" y="23" on="1"/>
        <pt x="247" y="35" on="0"/>
        <pt x="254" y="35" on="1"/>
        <pt x="261" y="35" on="0"/>
        <pt x="261" y="23" on="1"/>
      </contour>
      <contour>
        <pt x="218" y="20" on="1"/>
        <pt x="218" y="4" on="0"/>
        <pt x="210" y="4" on="1"/>
        <pt x="202" y="4" on="0"/>
        <pt x="202" y="20" on="1"/>
        <pt x="202" y="35" on="0"/>
        <pt x="210" y="35" on="1"/>
        <pt x="218" y="35" on="0"/>
      </contour>
      <contour>
        <pt x="554" y="20" on="1"/>
        <pt x="554" y="4" on="0"/>
        <pt x="546" y="4" on="1"/>
        <pt x="538" y="4" on="0"/>
        <pt x="538" y="20" on="1"/>
        <pt x="538" y="35" on="0"/>
        <pt x="546" y="35" on="1"/>
        <pt x="554" y="35" on="0"/>
      </contour>
      <contour>
        <pt x="340" y="23" on="1"/>
        <pt x="340" y="35" on="0"/>
        <pt x="347" y="35" on="1"/>
        <pt x="354" y="35" on="0"/>
        <pt x="354" y="23" on="1"/>
      </contour>
      <contour>
        <pt x="276" y="0" on="1"/>
        <pt x="299" y="0" on="1"/>
        <pt x="299" y="7" on="1"/>
        <pt x="294" y="7" on="1"/>
        <pt x="294" y="32" on="1"/>
        <pt x="308" y="32" on="1"/>
        <pt x="308" y="7" on="1"/>
        <pt x="303" y="7" on="1"/>
        <pt x="303" y="0" on="1"/>
        <pt x="326" y="0" on="1"/>
        <pt x="326" y="7" on="1"/>
        <pt x="320" y="7" on="1"/>
        <pt x="320" y="59" on="1"/>
        <pt x="310" y="57" on="1"/>
        <pt x="306" y="59" on="0"/>
        <pt x="301" y="59" on="1"/>
        <pt x="293" y="59" on="0"/>
        <pt x="282" y="50" on="0"/>
        <pt x="282" y="40" on="1"/>
        <pt x="282" y="39" on="1"/>
        <pt x="275" y="39" on="1"/>
        <pt x="275" y="32" on="1"/>
        <pt x="282" y="32" on="1"/>
        <pt x="282" y="7" on="1"/>
        <pt x="276" y="7" on="1"/>
      </contour>
      <contour>
        <pt x="368" y="0" on="1"/>
        <pt x="394" y="0" on="1"/>
        <pt x="394" y="7" on="1"/>
        <pt x="386" y="7" on="1"/>
        <pt x="386" y="23" on="1"/>
        <pt x="390" y="32" on="0"/>
        <pt x="393" y="32" on="1"/>
        <pt x="393" y="31" on="1"/>
        <pt x="393" y="25" on="0"/>
        <pt x="399" y="25" on="1"/>
        <pt x="406" y="25" on="0"/>
        <pt x="406" y="32" on="1"/>
        <pt x="406" y="40" on="0"/>
        <pt x="398" y="40" on="1"/>
        <pt x="390" y="40" on="0"/>
        <pt x="386" y="29" on="1"/>
        <pt x="386" y="39" on="1"/>
        <pt x="368" y="39" on="1"/>
        <pt x="368" y="32" on="1"/>
        <pt x="374" y="32" on="1"/>
        <pt x="374" y="7" on="1"/>
        <pt x="368" y="7" on="1"/>
      </contour>
      <contour>
        <pt x="437" y="9" on="1"/>
        <pt x="432" y="6" on="0"/>
        <pt x="429" y="6" on="1"/>
        <pt x="419" y="6" on="0"/>
        <pt x="419" y="16" on="1"/>
        <pt x="419" y="21" on="0"/>
        <pt x="423" y="25" on="1"/>
        <pt x="427" y="21" on="0"/>
        <pt x="433" y="14" on="0"/>
      </contour>
      <contour>
        <pt x="124" y="0" on="1"/>
        <pt x="153" y="0" on="1"/>
        <pt x="153" y="7" on="1"/>
        <pt x="145" y="7" on="1"/>
        <pt x="145" y="25" on="1"/>
        <pt x="167" y="25" on="1"/>
        <pt x="167" y="7" on="1"/>
        <pt x="159" y="7" on="1"/>
        <pt x="159" y="0" on="1"/>
        <pt x="188" y="0" on="1"/>
        <pt x="188" y="7" on="1"/>
        <pt x="180" y="7" on="1"/>
        <pt x="180" y="48" on="1"/>
        <pt x="188" y="48" on="1"/>
        <pt x="188" y="55" on="1"/>
        <pt x="159" y="55" on="1"/>
        <pt x="159" y="48" on="1"/>
        <pt x="167" y="48" on="1"/>
        <pt x="167" y="32" on="1"/>
        <pt x="145" y="32" on="1"/>
        <pt x="145" y="48" on="1"/>
        <pt x="153" y="48" on="1"/>
        <pt x="153" y="55" on="1"/>
        <pt x="124" y="55" on="1"/>
        <pt x="124" y="48" on="1"/>
        <pt x="132" y="48" on="1"/>
        <pt x="132" y="7" on="1"/>
        <pt x="124" y="7" on="1"/>
      </contour>
      <contour>
        <pt x="583" y="6" on="1"/>
        <pt x="583" y="13" on="0"/>
        <pt x="576" y="13" on="1"/>
        <pt x="569" y="13" on="0"/>
        <pt x="569" y="6" on="1"/>
        <pt x="569" y="-1" on="0"/>
        <pt x="576" y="-1" on="1"/>
        <pt x="583" y="-1" on="0"/>
      </contour>
    </TTGlyph>
    <TTGlyph name="hungarumlaut" xMin="141" yMin="625" xMax="609" yMax="886">
      <contour>
        <pt x="141" y="662" on="1"/>
        <pt x="157" y="685" on="0"/>
        <pt x="190" y="743" on="0"/>
        <pt x="220" y="803" on="0"/>
        <pt x="247" y="862" on="0"/>
        <pt x="257" y="886" on="1"/>
        <pt x="374" y="831" on="1"/>
        <pt x="358" y="807" on="0"/>
        <pt x="317" y="753" on="0"/>
        <pt x="271" y="699" on="0"/>
        <pt x="222" y="647" on="0"/>
        <pt x="199" y="625" on="1"/>
      </contour>
      <contour>
        <pt x="375" y="660" on="1"/>
        <pt x="406" y="708" on="0"/>
        <pt x="467" y="826" on="0"/>
        <pt x="486" y="877" on="1"/>
        <pt x="609" y="829" on="1"/>
        <pt x="593" y="805" on="0"/>
        <pt x="552" y="751" on="0"/>
        <pt x="505" y="697" on="0"/>
        <pt x="457" y="646" on="0"/>
        <pt x="433" y="625" on="1"/>
      </contour>
    </TTGlyph>
    <TTGlyph name="hungarumlaut.cap" xMin="141" yMin="625" xMax="609" yMax="886">
      <contour>
        <pt x="141" y="662" on="1"/>
        <pt x="157" y="685" on="0"/>
        <pt x="190" y="743" on="0"/>
        <pt x="220" y="803" on="0"/>
        <pt x="247" y="862" on="0"/>
        <pt x="257" y="886" on="1"/>
        <pt x="374" y="831" on="1"/>
        <pt x="358" y="807" on="0"/>
        <pt x="317" y="753" on="0"/>
        <pt x="271" y="699" on="0"/>
        <pt x="222" y="647" on="0"/>
        <pt x="199" y="625" on="1"/>
      </contour>
      <contour>
        <pt x="375" y="660" on="1"/>
        <pt x="406" y="708" on="0"/>
        <pt x="467" y="826" on="0"/>
        <pt x="486" y="877" on="1"/>
        <pt x="609" y="829" on="1"/>
        <pt x="593" y="805" on="0"/>
        <pt x="552" y="751" on="0"/>
        <pt x="505" y="697" on="0"/>
        <pt x="457" y="646" on="0"/>
        <pt x="433" y="625" on="1"/>
      </contour>
    </TTGlyph>
    <TTGlyph name="hyphen" xMin="138" yMin="278" xMax="494" yMax="383">
      <contour>
        <pt x="484" y="278" on="1"/>
        <pt x="138" y="278" on="1"/>
        <pt x="138" y="383" on="1"/>
        <pt x="494" y="383" on="1"/>
      </contour>
    </TTGlyph>
    <TTGlyph name="i" xMin="80" yMin="0" xMax="591" yMax="791">
      <contour>
        <pt x="268" y="635" on="1"/>
        <pt x="276" y="791" on="1"/>
        <pt x="405" y="791" on="1"/>
        <pt x="396" y="635" on="1"/>
      </contour>
      <contour>
        <pt x="82" y="0" on="1"/>
        <pt x="82" y="92" on="1"/>
        <pt x="275" y="92" on="1"/>
        <pt x="275" y="457" on="1"/>
        <pt x="80" y="466" on="1"/>
        <pt x="90" y="552" on="1"/>
        <pt x="399" y="552" on="1"/>
        <pt x="399" y="92" on="1"/>
        <pt x="591" y="92" on="1"/>
        <pt x="581" y="0" on="1"/>
      </contour>
    </TTGlyph>
    <TTGlyph name="iacute" xMin="80" yMin="0" xMax="591" yMax="871">
      <component glyphName="acute" x="39" y="0" flags="0x204"/>
      <component glyphName="dotlessi" x="0" y="0" flags="0x4"/>
    </TTGlyph>
    <TTGlyph name="ibreve" xMin="80" yMin="0" xMax="591" yMax="838">
      <component glyphName="dotlessi" x="0" y="0" flags="0x204"/>
      <component glyphName="breve" x="29" y="0" flags="0x4"/>
    </TTGlyph>
    <TTGlyph name="icircumflex" xMin="80" yMin="0" xMax="591" yMax="850">
      <component glyphName="circumflex" x="25" y="0" flags="0x204"/>
      <component glyphName="dotlessi" x="0" y="0" flags="0x4"/>
    </TTGlyph>
    <TTGlyph name="idieresis" xMin="80" yMin="0" xMax="591" yMax="791">
      <component glyphName="dieresis" x="25" y="0" flags="0x204"/>
      <component glyphName="dotlessi" x="0" y="0" flags="0x4"/>
    </TTGlyph>
    <TTGlyph name="igrave" xMin="80" yMin="0" xMax="591" yMax="870">
      <component glyphName="dotlessi" x="0" y="0" flags="0x204"/>
      <component glyphName="grave" x="-6" y="0" flags="0x4"/>
    </TTGlyph>
    <TTGlyph name="imacron" xMin="80" yMin="0" xMax="591" yMax="767">
      <component glyphName="dotlessi" x="0" y="0" flags="0x204"/>
      <component glyphName="macron" x="25" y="0" flags="0x4"/>
    </TTGlyph>
    <TTGlyph name="iogonek" xMin="80" yMin="-249" xMax="591" yMax="791">
      <contour>
        <pt x="268" y="635" on="1"/>
        <pt x="276" y="791" on="1"/>
        <pt x="405" y="791" on="1"/>
        <pt x="396" y="635" on="1"/>
      </contour>
      <contour>
        <pt x="411" y="-249" on="1"/>
        <pt x="349" y="-246" on="0"/>
        <pt x="263" y="-226" on="0"/>
        <pt x="209" y="-196" on="0"/>
        <pt x="184" y="-157" on="0"/>
        <pt x="184" y="-135" on="1"/>
        <pt x="184" y="-103" on="0"/>
        <pt x="231" y="-37" on="0"/>
        <pt x="283" y="0" on="1"/>
        <pt x="82" y="0" on="1"/>
        <pt x="82" y="92" on="1"/>
        <pt x="275" y="92" on="1"/>
        <pt x="275" y="457" on="1"/>
        <pt x="80" y="466" on="1"/>
        <pt x="90" y="552" on="1"/>
        <pt x="399" y="552" on="1"/>
        <pt x="399" y="92" on="1"/>
        <pt x="591" y="92" on="1"/>
        <pt x="581" y="0" on="1"/>
        <pt x="392" y="0" on="1"/>
        <pt x="339" y="-35" on="0"/>
        <pt x="301" y="-82" on="0"/>
        <pt x="301" y="-101" on="1"/>
        <pt x="301" y="-121" on="0"/>
        <pt x="355" y="-146" on="0"/>
        <pt x="422" y="-152" on="1"/>
      </contour>
    </TTGlyph>
    <TTGlyph name="j" xMin="65" yMin="-194" xMax="446" yMax="791">
      <contour>
        <pt x="313" y="635" on="1"/>
        <pt x="318" y="791" on="1"/>
        <pt x="446" y="791" on="1"/>
        <pt x="440" y="635" on="1"/>
      </contour>
      <contour>
        <pt x="446" y="552" on="1"/>
        <pt x="446" y="68" on="1"/>
        <pt x="446" y="7" on="0"/>
        <pt x="408" y="-89" on="0"/>
        <pt x="319" y="-155" on="0"/>
        <pt x="173" y="-192" on="0"/>
        <pt x="65" y="-194" on="1"/>
        <pt x="69" y="-79" on="1"/>
        <pt x="154" y="-76" on="0"/>
        <pt x="255" y="-65" on="0"/>
        <pt x="308" y="-39" on="0"/>
        <pt x="323" y="6" on="0"/>
        <pt x="323" y="42" on="1"/>
        <pt x="323" y="454" on="1"/>
        <pt x="96" y="466" on="1"/>
        <pt x="105" y="552" on="1"/>
      </contour>
    </TTGlyph>
    <TTGlyph name="k" xMin="104" yMin="-8" xMax="589" yMax="789">
      <contour>
        <pt x="293" y="238" on="1"/>
        <pt x="227" y="236" on="1"/>
        <pt x="227" y="0" on="1"/>
        <pt x="104" y="0" on="1"/>
        <pt x="104" y="778" on="1"/>
        <pt x="227" y="789" on="1"/>
        <pt x="227" y="325" on="1"/>
        <pt x="294" y="326" on="1"/>
        <pt x="336" y="381" on="0"/>
        <pt x="412" y="494" on="0"/>
        <pt x="448" y="555" on="1"/>
        <pt x="574" y="546" on="1"/>
        <pt x="532" y="481" on="0"/>
        <pt x="445" y="353" on="0"/>
        <pt x="397" y="292" on="1"/>
        <pt x="589" y="8" on="1"/>
        <pt x="458" y="-8" on="1"/>
      </contour>
    </TTGlyph>
    <TTGlyph name="kcommaaccent" xMin="104" yMin="-323" xMax="589" yMax="789">
      <component glyphName="commaaccent" x="22" y="-8" flags="0x204"/>
      <component glyphName="k" x="0" y="0" flags="0x4"/>
    </TTGlyph>
    <TTGlyph name="l" xMin="84" yMin="0" xMax="550" yMax="776">
      <contour>
        <pt x="84" y="0" on="1"/>
        <pt x="84" y="92" on="1"/>
        <pt x="255" y="92" on="1"/>
        <pt x="255" y="680" on="1"/>
        <pt x="90" y="688" on="1"/>
        <pt x="100" y="776" on="1"/>
        <pt x="378" y="776" on="1"/>
        <pt x="378" y="92" on="1"/>
        <pt x="550" y="92" on="1"/>
        <pt x="539" y="0" on="1"/>
      </contour>
    </TTGlyph>
    <TTGlyph name="lacute" xMin="84" yMin="0" xMax="550" yMax="1095">
      <component glyphName="acute" x="19" y="224" flags="0x204"/>
      <component glyphName="l" x="0" y="0" flags="0x4"/>
    </TTGlyph>
    <TTGlyph name="lcaron" xMin="84" yMin="0" xMax="619" yMax="895">
      <component glyphName="caron.alt" x="256" y="0" flags="0x204"/>
      <component glyphName="l" x="0" y="0" flags="0x4"/>
    </TTGlyph>
    <TTGlyph name="lcommaaccent" xMin="84" yMin="-315" xMax="550" yMax="776">
      <component glyphName="commaaccent" x="9" y="0" flags="0x204"/>
      <component glyphName="l" x="0" y="0" flags="0x4"/>
    </TTGlyph>
    <TTGlyph name="ldot" xMin="84" yMin="0" xMax="686" yMax="776">
      <contour>
        <pt x="84" y="0" on="1"/>
        <pt x="84" y="92" on="1"/>
        <pt x="255" y="92" on="1"/>
        <pt x="255" y="680" on="1"/>
        <pt x="90" y="688" on="1"/>
        <pt x="100" y="776" on="1"/>
        <pt x="378" y="776" on="1"/>
        <pt x="378" y="92" on="1"/>
        <pt x="550" y="92" on="1"/>
        <pt x="539" y="0" on="1"/>
      </contour>
      <contour>
        <pt x="557" y="288" on="1"/>
        <pt x="565" y="430" on="1"/>
        <pt x="686" y="430" on="1"/>
        <pt x="679" y="288" on="1"/>
      </contour>
    </TTGlyph>
    <TTGlyph name="less" xMin="95" yMin="-26" xMax="531" yMax="681">
      <contour>
        <pt x="529" y="594" on="1"/>
        <pt x="207" y="334" on="1"/>
        <pt x="207" y="322" on="1"/>
        <pt x="531" y="61" on="1"/>
        <pt x="462" y="-26" on="1"/>
        <pt x="95" y="276" on="1"/>
        <pt x="95" y="379" on="1"/>
        <pt x="463" y="681" on="1"/>
      </contour>
    </TTGlyph>
    <TTGlyph name="lessequal" xMin="84" yMin="8" xMax="541" yMax="676">
      <contour>
        <pt x="541" y="8" on="1"/>
        <pt x="84" y="8" on="1"/>
        <pt x="84" y="111" on="1"/>
        <pt x="541" y="111" on="1"/>
      </contour>
      <contour>
        <pt x="219" y="402" on="1"/>
        <pt x="523" y="255" on="1"/>
        <pt x="483" y="159" on="1"/>
        <pt x="91" y="353" on="1"/>
        <pt x="92" y="447" on="1"/>
        <pt x="473" y="676" on="1"/>
        <pt x="522" y="584" on="1"/>
        <pt x="219" y="410" on="1"/>
      </contour>
    </TTGlyph>
    <TTGlyph name="lslash" xMin="84" yMin="0" xMax="550" yMax="776">
      <contour>
        <pt x="84" y="0" on="1"/>
        <pt x="84" y="92" on="1"/>
        <pt x="255" y="92" on="1"/>
        <pt x="255" y="332" on="1"/>
        <pt x="137" y="272" on="1"/>
        <pt x="118" y="352" on="1"/>
        <pt x="255" y="421" on="1"/>
        <pt x="255" y="680" on="1"/>
        <pt x="90" y="688" on="1"/>
        <pt x="100" y="776" on="1"/>
        <pt x="378" y="776" on="1"/>
        <pt x="378" y="484" on="1"/>
        <pt x="489" y="540" on="1"/>
        <pt x="508" y="460" on="1"/>
        <pt x="378" y="394" on="1"/>
        <pt x="378" y="92" on="1"/>
        <pt x="550" y="92" on="1"/>
        <pt x="539" y="0" on="1"/>
      </contour>
    </TTGlyph>
    <TTGlyph name="m" xMin="55" yMin="0" xMax="571" yMax="567">
      <contour>
        <pt x="233" y="462" on="1"/>
        <pt x="201" y="462" on="0"/>
        <pt x="170" y="433" on="1"/>
        <pt x="172" y="355" on="0"/>
        <pt x="174" y="137" on="0"/>
        <pt x="174" y="0" on="1"/>
        <pt x="60" y="0" on="1"/>
        <pt x="60" y="187" on="0"/>
        <pt x="58" y="454" on="0"/>
        <pt x="55" y="549" on="1"/>
        <pt x="160" y="555" on="1"/>
        <pt x="164" y="507" on="1"/>
        <pt x="187" y="533" on="0"/>
        <pt x="244" y="567" on="0"/>
        <pt x="278" y="567" on="1"/>
        <pt x="311" y="567" on="0"/>
        <pt x="351" y="535" on="0"/>
        <pt x="359" y="507" on="1"/>
        <pt x="382" y="532" on="0"/>
        <pt x="439" y="567" on="0"/>
        <pt x="476" y="567" on="1"/>
        <pt x="571" y="567" on="0"/>
        <pt x="571" y="440" on="1"/>
        <pt x="571" y="0" on="1"/>
        <pt x="457" y="0" on="1"/>
        <pt x="457" y="398" on="1"/>
        <pt x="457" y="434" on="0"/>
        <pt x="437" y="462" on="0"/>
        <pt x="415" y="462" on="1"/>
        <pt x="399" y="462" on="0"/>
        <pt x="373" y="449" on="0"/>
        <pt x="360" y="437" on="1"/>
        <pt x="360" y="431" on="1"/>
        <pt x="360" y="0" on="1"/>
        <pt x="273" y="0" on="1"/>
        <pt x="273" y="399" on="1"/>
        <pt x="273" y="434" on="0"/>
        <pt x="253" y="462" on="0"/>
      </contour>
    </TTGlyph>
    <TTGlyph name="macron" xMin="120" yMin="662" xMax="505" yMax="767">
      <contour>
        <pt x="505" y="662" on="1"/>
        <pt x="120" y="662" on="1"/>
        <pt x="120" y="767" on="1"/>
        <pt x="505" y="767" on="1"/>
      </contour>
    </TTGlyph>
    <TTGlyph name="macron.cap" xMin="120" yMin="662" xMax="505" yMax="767">
      <contour>
        <pt x="505" y="662" on="1"/>
        <pt x="120" y="662" on="1"/>
        <pt x="120" y="767" on="1"/>
        <pt x="505" y="767" on="1"/>
      </contour>
    </TTGlyph>
    <TTGlyph name="minus" xMin="87" yMin="279" xMax="538" yMax="382">
      <contour>
        <pt x="538" y="279" on="1"/>
        <pt x="87" y="279" on="1"/>
        <pt x="87" y="382" on="1"/>
        <pt x="538" y="382" on="1"/>
      </contour>
    </TTGlyph>
    <TTGlyph name="mu" xMin="86" yMin="-193" xMax="541" yMax="556">
      <contour>
        <pt x="86" y="-193" on="1"/>
        <pt x="86" y="549" on="1"/>
        <pt x="209" y="556" on="1"/>
        <pt x="209" y="204" on="1"/>
        <pt x="209" y="139" on="0"/>
        <pt x="257" y="90" on="0"/>
        <pt x="300" y="90" on="1"/>
        <pt x="332" y="90" on="0"/>
        <pt x="387" y="110" on="0"/>
        <pt x="413" y="127" on="1"/>
        <pt x="411" y="205" on="0"/>
        <pt x="409" y="417" on="0"/>
        <pt x="409" y="552" on="1"/>
        <pt x="532" y="552" on="1"/>
        <pt x="532" y="366" on="0"/>
        <pt x="536" y="98" on="0"/>
        <pt x="541" y="4" on="1"/>
        <pt x="429" y="-3" on="1"/>
        <pt x="422" y="60" on="1"/>
        <pt x="394" y="30" on="0"/>
        <pt x="322" y="-14" on="0"/>
        <pt x="274" y="-14" on="1"/>
        <pt x="231" y="-14" on="0"/>
        <pt x="202" y="5" on="1"/>
        <pt x="206" y="-182" on="1"/>
      </contour>
    </TTGlyph>
    <TTGlyph name="multiply" xMin="79" yMin="94" xMax="546" yMax="566">
      <contour>
        <pt x="311" y="254" on="1"/>
        <pt x="157" y="98" on="1"/>
        <pt x="83" y="172" on="1"/>
        <pt x="237" y="328" on="1"/>
        <pt x="79" y="489" on="1"/>
        <pt x="156" y="566" on="1"/>
        <pt x="314" y="406" on="1"/>
        <pt x="468" y="562" on="1"/>
        <pt x="542" y="488" on="1"/>
        <pt x="387" y="331" on="1"/>
        <pt x="546" y="169" on="1"/>
        <pt x="469" y="94" on="1"/>
      </contour>
    </TTGlyph>
    <TTGlyph name="n" xMin="84" yMin="0" xMax="541" yMax="567">
      <contour>
        <pt x="325" y="462" on="1"/>
        <pt x="292" y="462" on="0"/>
        <pt x="237" y="441" on="0"/>
        <pt x="211" y="424" on="1"/>
        <pt x="213" y="346" on="0"/>
        <pt x="216" y="134" on="0"/>
        <pt x="216" y="0" on="1"/>
        <pt x="93" y="0" on="1"/>
        <pt x="93" y="187" on="0"/>
        <pt x="89" y="454" on="0"/>
        <pt x="84" y="549" on="1"/>
        <pt x="198" y="555" on="1"/>
        <pt x="205" y="492" on="1"/>
        <pt x="238" y="522" on="0"/>
        <pt x="325" y="567" on="0"/>
        <pt x="382" y="567" on="1"/>
        <pt x="455" y="567" on="0"/>
        <pt x="541" y="477" on="0"/>
        <pt x="541" y="376" on="1"/>
        <pt x="541" y="0" on="1"/>
        <pt x="418" y="0" on="1"/>
        <pt x="418" y="333" on="1"/>
        <pt x="418" y="406" on="0"/>
        <pt x="368" y="462" on="0"/>
      </contour>
    </TTGlyph>
</ttFont>
